<svg xmlns="http://www.w3.org/2000/svg" viewBox="0 0 463 295.24"><defs><style>.cls-1{isolation:isolate;}.cls-2{mix-blend-mode:difference;}.cls-3{fill:#fff;}.cls-4{fill:#c4232d;}.cls-5{fill:#6a9cbe;}.cls-6{fill:#43b34f;}.cls-7{fill:#db404f;}.cls-8{fill:#2377b8;}.cls-9{fill:#ffef2a;}.cls-10{fill:#f8ad4d;}.cls-11{fill:#b98042;}.cls-12{fill:#32b375;}</style></defs><title>logo_1</title><g class="cls-1"><g id="Calque_2" data-name="Calque 2"><g id="Calque_1-2" data-name="Calque 1"><rect class="cls-2" y="227.61" width="463" height="67.63"/><rect class="cls-3" x="221.01" y="122.8" width="20.53" height="20.53" transform="translate(98.2 364.33) rotate(-90)"/><rect class="cls-3" x="56.8" y="143.68" width="20.53" height="20.53" transform="translate(-86.89 221.01) rotate(-90)"/><rect class="cls-3" x="159.43" y="143.68" width="20.53" height="20.53" transform="translate(15.74 323.64) rotate(-90)"/><rect class="cls-3" x="241.53" y="143.68" width="20.53" height="20.53" transform="translate(97.85 405.74) rotate(-90)"/><rect class="cls-3" x="303.11" y="143.68" width="20.53" height="20.53" transform="translate(159.43 467.32) rotate(-90)"/><rect class="cls-3" x="385.21" y="143.68" width="20.53" height="20.53" transform="translate(241.53 549.42) rotate(-90)"/><rect class="cls-4" x="138.9" y="164.21" width="20.53" height="20.53" transform="translate(-25.31 323.64) rotate(-90)"/><polygon class="cls-5" points="241.53 164.21 241.53 143.68 241.53 123.16 221 123.16 221 143.68 200.48 143.68 200.48 164.21 221 164.21 221 184.73 241.53 184.73 262.06 184.73 262.06 164.21 241.53 164.21"/><rect class="cls-6" x="282.58" y="164.21" width="20.53" height="20.53" transform="translate(118.37 467.32) rotate(-90)"/><rect class="cls-7" x="138.9" y="143.68" width="20.53" height="20.53"/><rect class="cls-7" x="159.43" y="164.21" width="20.53" height="20.53"/><rect class="cls-7" x="385.21" y="164.21" width="20.53" height="20.53"/><rect class="cls-8" x="200.48" y="164.21" width="20.53" height="20.53"/><rect class="cls-8" x="221.01" y="184.73" width="20.53" height="20.53"/><rect class="cls-9" x="221.01" y="20.53" width="20.53" height="20.53"/><polygon class="cls-9" points="77.32 61.58 56.8 61.58 56.8 82.1 56.8 102.63 56.8 123.16 77.32 123.16 97.85 123.16 97.85 102.63 97.85 82.1 77.32 82.1 77.32 61.58"/><polygon class="cls-9" points="385.21 61.58 385.21 82.1 364.69 82.1 364.69 102.63 344.16 102.63 323.63 102.63 303.11 102.63 282.58 102.63 262.06 102.63 262.06 123.16 282.58 123.16 303.11 123.16 323.63 123.16 344.16 123.16 364.69 123.16 385.21 123.16 405.74 123.16 405.74 102.63 405.74 82.1 405.74 61.58 385.21 61.58"/><rect class="cls-9" x="200.48" y="82.1" width="20.53" height="20.53"/><rect class="cls-9" x="241.53" y="82.1" width="20.53" height="20.53"/><rect class="cls-9" x="118.38" y="102.63" width="20.53" height="20.53"/><polygon class="cls-9" points="159.43 102.63 159.43 123.16 179.95 123.16 200.48 123.16 200.48 102.63 179.95 102.63 159.43 102.63"/><rect class="cls-9" x="200.48" y="205.26" width="20.53" height="20.53"/><rect class="cls-9" x="241.53" y="205.26" width="20.53" height="20.53"/><rect class="cls-10" x="200.48" y="41.05" width="20.53" height="20.53"/><rect class="cls-10" x="241.53" y="41.05" width="20.53" height="20.53"/><polygon class="cls-10" points="159.43 123.16 159.43 102.63 138.9 102.63 138.9 123.16 118.38 123.16 118.38 102.63 97.85 102.63 97.85 123.16 77.32 123.16 56.8 123.16 56.8 143.68 77.32 143.68 97.85 143.68 118.38 143.68 138.9 143.68 159.43 143.68 179.95 143.68 200.48 143.68 200.48 123.16 179.95 123.16 159.43 123.16"/><polygon class="cls-10" points="385.21 123.16 364.69 123.16 344.16 123.16 323.63 123.16 303.11 123.16 282.58 123.16 262.06 123.16 262.06 143.68 282.58 143.68 303.11 143.68 323.63 143.68 344.16 143.68 364.69 143.68 385.21 143.68 405.74 143.68 405.74 123.16 385.21 123.16"/><polygon class="cls-10" points="241.53 102.63 241.53 82.1 241.53 61.58 221 61.58 221 82.1 221 102.63 200.48 102.63 200.48 123.16 221 123.16 241.53 123.16 262.06 123.16 262.06 102.63 241.53 102.63"/><polygon class="cls-10" points="159.43 184.73 138.9 184.73 118.38 184.73 97.85 184.73 77.32 184.73 56.8 184.73 56.8 205.26 77.32 205.26 77.32 225.79 97.85 225.79 97.85 205.26 118.38 205.26 138.9 205.26 159.43 205.26 159.43 225.79 179.95 225.79 200.48 225.79 200.48 205.26 200.48 184.73 179.95 184.73 159.43 184.73"/><polygon class="cls-10" points="364.69 184.73 344.16 184.73 323.63 184.73 303.11 184.73 282.58 184.73 262.06 184.73 262.06 205.26 262.06 225.79 282.58 225.79 303.11 225.79 303.11 205.26 323.63 205.26 344.16 205.26 364.69 205.26 364.69 225.79 385.21 225.79 385.21 205.26 405.74 205.26 405.74 184.73 385.21 184.73 364.69 184.73"/><polygon class="cls-11" points="179.95 82.1 159.43 82.1 159.43 61.58 138.9 61.58 138.9 82.1 118.38 82.1 118.38 102.63 138.9 102.63 159.43 102.63 179.95 102.63 179.95 82.1"/><polygon class="cls-11" points="323.63 102.63 344.16 102.63 344.16 82.1 323.63 82.1 323.63 61.58 303.11 61.58 303.11 82.1 282.58 82.1 282.58 102.63 303.11 102.63 323.63 102.63"/><rect class="cls-11" x="200.48" y="123.16" width="20.53" height="20.53"/><rect class="cls-11" x="241.53" y="123.16" width="20.53" height="20.53"/><polygon class="cls-11" points="200.48 143.68 179.95 143.68 179.95 164.21 179.95 184.73 200.48 184.73 200.48 164.21 200.48 143.68"/><polygon class="cls-11" points="262.06 164.21 262.06 184.73 282.58 184.73 282.58 164.21 282.58 143.68 262.06 143.68 262.06 164.21"/><polygon class="cls-11" points="118.38 184.73 138.9 184.73 138.9 164.21 138.9 143.68 118.38 143.68 97.85 143.68 77.32 143.68 77.32 164.21 77.32 184.73 97.85 184.73 118.38 184.73"/><polygon class="cls-11" points="385.21 164.21 385.21 143.68 364.69 143.68 344.16 143.68 323.63 143.68 323.63 164.21 323.63 184.73 344.16 184.73 364.69 184.73 385.21 184.73 385.21 164.21"/><rect class="cls-11" x="200.48" y="184.73" width="20.53" height="20.53"/><rect class="cls-11" x="241.53" y="184.73" width="20.53" height="20.53"/><rect class="cls-11" x="56.8" y="205.26" width="20.53" height="20.53"/><polygon class="cls-11" points="118.38 205.26 97.85 205.26 97.85 225.79 118.38 225.79 138.9 225.79 159.43 225.79 159.43 205.26 138.9 205.26 118.38 205.26"/><rect class="cls-11" x="221.01" y="205.26" width="20.53" height="20.53"/><polygon class="cls-11" points="323.63 205.26 303.11 205.26 303.11 225.79 323.63 225.79 344.16 225.79 364.69 225.79 364.69 205.26 344.16 205.26 323.63 205.26"/><rect class="cls-11" x="385.21" y="205.26" width="20.53" height="20.53"/><g class="cls-2"><rect x="221.01" width="20.53" height="20.53"/><rect x="200.48" y="20.53" width="20.53" height="20.53"/><rect x="241.53" y="20.53" width="20.53" height="20.53"/><polygon points="405.74 41.05 385.21 41.05 385.21 61.58 405.74 61.58 405.74 82.1 405.74 102.63 405.74 123.16 405.74 143.68 405.74 164.21 405.74 184.73 405.74 205.26 405.74 225.79 385.21 225.79 364.69 225.79 344.16 225.79 323.63 225.79 303.11 225.79 282.58 225.79 262.06 225.79 241.53 225.79 221 225.79 200.48 225.79 179.95 225.79 159.43 225.79 138.9 225.79 118.38 225.79 97.85 225.79 77.32 225.79 56.8 225.79 56.8 205.26 56.8 184.73 56.8 164.21 56.8 143.68 56.8 123.16 56.8 102.63 56.8 82.1 56.8 61.58 77.32 61.58 77.32 41.05 56.8 41.05 36.27 41.05 36.27 61.58 36.27 82.1 36.27 102.63 36.27 123.16 36.27 143.68 36.27 164.21 36.27 184.73 36.27 205.26 36.27 225.79 36.27 246.31 56.8 246.31 77.32 246.31 97.85 246.31 118.38 246.31 138.9 246.31 159.43 246.31 179.95 246.31 200.48 246.31 221 246.31 241.53 246.31 262.06 246.31 282.58 246.31 303.11 246.31 323.63 246.31 344.16 246.31 364.69 246.31 385.21 246.31 405.74 246.31 426.26 246.31 426.26 225.79 426.26 205.26 426.26 184.73 426.26 164.21 426.26 143.68 426.26 123.16 426.26 102.63 426.26 82.1 426.26 61.58 426.26 41.05 405.74 41.05"/><polygon points="97.85 82.1 97.85 102.63 118.38 102.63 118.38 82.1 138.9 82.1 138.9 61.58 159.43 61.58 159.43 41.05 138.9 41.05 118.38 41.05 118.38 61.58 97.85 61.58 77.32 61.58 77.32 82.1 97.85 82.1"/><polygon points="179.95 82.1 179.95 102.63 200.48 102.63 200.48 82.1 221 82.1 221 61.58 200.48 61.58 200.48 41.05 179.95 41.05 179.95 61.58 159.43 61.58 159.43 82.1 179.95 82.1"/><polygon points="241.53 61.58 241.53 82.1 262.06 82.1 262.06 102.63 282.58 102.63 282.58 82.1 303.11 82.1 303.11 61.58 282.58 61.58 282.58 41.05 262.06 41.05 262.06 61.58 241.53 61.58"/><polygon points="323.63 82.1 344.16 82.1 344.16 102.63 364.69 102.63 364.69 82.1 385.21 82.1 385.21 61.58 364.69 61.58 344.16 61.58 344.16 41.05 323.63 41.05 303.11 41.05 303.11 61.58 323.63 61.58 323.63 82.1"/></g><rect class="cls-12" x="282.58" y="143.68" width="20.53" height="20.53"/><rect class="cls-12" x="56.8" y="164.21" width="20.53" height="20.53"/><rect class="cls-12" x="303.11" y="164.21" width="20.53" height="20.53"/><g class="cls-2"><path class="cls-3" d="M17.59,282V240.72H42.37V249H25.85V265.5H42.37v8.26H25.85V282ZM42.37,265.5V249h8.26V265.5Z"/><path class="cls-3" d="M58.89,282v-8.25h8.26V249H58.89v-8.26H83.66V249H75.4v24.78h8.26V282Z"/><path class="cls-3" d="M91.92,249v-8.26h8.26V249Zm0,33v-8.25h8.26V282Zm8.26-24.77V249h8.26v8.26Zm0,16.52V265.5h8.26v8.26Zm8.26-8.26v-8.26h8.26v8.26Zm8.26-8.26V249H125v8.26Zm0,16.52V265.5H125v8.26ZM125,249v-8.26h8.26V249Zm0,33v-8.25h8.26V282Z"/><path class="cls-3" d="M141.47,282V240.72h24.78V249H149.73v8.26H158v8.26h-8.26v8.26h16.52V282Z"/><path class="cls-3" d="M174.51,282V240.72h8.25v33h16.52V282Z"/><path class="cls-3" d="M232.31,282V249h-8.25v-8.26h24.77V249h-8.26v33Z"/><path class="cls-3" d="M257.09,282V240.72h8.26v16.52h16.52V240.72h8.25V282h-8.25V265.5H265.35V282Z"/><path class="cls-3" d="M298.38,282V240.72h24.78V249H306.64V265.5h16.52v8.26H306.64V282Zm24.78-16.51V249h8.26V265.5Zm0,16.51v-8.25h8.26V282Z"/><path class="cls-3" d="M339.67,273.76V249h8.26v24.78ZM347.93,249v-8.26h16.52V249Zm0,33v-8.25h16.52V282Zm16.52-8.25V249h8.26v24.78Z"/><path class="cls-3" d="M381,282V240.72h8.26V249h8.25v8.26h-8.25V282Zm24.77,0V265.5h-8.26v-8.26h8.26V240.72H414V282Z"/><path class="cls-3" d="M422.26,282V240.72H447V249H430.52v8.26h8.26v8.26h-8.26v8.26H447V282Z"/></g></g></g></g></svg>