<svg xmlns="http://www.w3.org/2000/svg" viewBox="0 0 671.87 510.62"><defs><style>.cls-1{fill:#b3cf8d;}.cls-2{fill:#231f20;}.cls-3{fill:#43b34f;}</style></defs><title>sapins_2</title><g id="Calque_2" data-name="Calque 2"><g id="Calque_1-2" data-name="Calque 1"><polygon class="cls-1" points="483.75 456.87 510.62 456.87 510.62 483.75 510.62 483.75 510.62 510.62 483.75 510.62 483.75 483.75 483.75 483.75 483.75 456.87"/><polygon class="cls-1" points="349.37 483.75 349.37 483.75 349.37 510.62 322.5 510.62 322.5 483.75 322.5 483.75 322.5 456.87 349.37 456.87 349.37 483.75"/><polygon class="cls-1" points="188.12 456.87 188.12 483.75 188.12 483.75 188.12 483.75 215 483.75 215 510.62 188.12 510.62 188.12 510.62 161.25 510.62 161.25 483.75 161.25 483.75 161.25 456.87 188.12 456.87"/><rect class="cls-1" x="188.12" y="456.87" width="26.87" height="26.88"/><rect class="cls-2" x="483.75" y="26.87" width="26.87" height="26.87"/><polygon class="cls-2" points="537.5 80.62 537.5 80.62 537.5 107.5 510.62 107.5 510.62 80.62 510.62 80.62 510.62 53.75 537.5 53.75 537.5 80.62"/><polygon class="cls-2" points="483.75 80.62 483.75 107.5 456.87 107.5 456.87 80.62 456.87 80.62 456.87 53.75 483.75 53.75 483.75 80.62 483.75 80.62"/><rect class="cls-2" x="537.5" y="134.37" width="26.87" height="26.87"/><polygon class="cls-2" points="456.87 134.37 456.87 161.25 456.87 161.25 456.87 188.12 430 188.12 430 161.25 430 161.25 430 161.25 403.12 161.25 403.12 134.37 430 134.37 430 134.37 456.87 134.37"/><polygon class="cls-2" points="564.37 215 591.25 215 591.25 215 618.12 215 618.12 241.87 591.25 241.87 591.25 241.87 564.37 241.87 564.37 215"/><rect class="cls-2" x="403.12" y="215" width="26.87" height="26.87"/><polygon class="cls-2" points="80.63 322.5 80.63 322.5 80.63 349.37 53.75 349.37 53.75 322.5 53.75 322.5 53.75 295.62 80.63 295.62 80.63 322.5"/><polygon class="cls-2" points="403.12 241.87 403.12 268.75 403.12 268.75 403.12 295.62 376.25 295.62 376.25 268.75 376.25 268.75 376.25 268.75 349.37 268.75 349.37 268.75 322.5 268.75 322.5 241.87 349.37 241.87 349.37 241.87 376.25 241.87 376.25 241.87 403.12 241.87"/><rect class="cls-2" x="349.37" y="268.75" width="26.87" height="26.87"/><rect class="cls-2" x="295.62" y="215" width="26.87" height="26.87"/><rect class="cls-2" x="376.25" y="80.62" width="26.87" height="26.87"/><rect class="cls-2" x="215" y="80.62" width="26.87" height="26.87"/><polygon class="cls-2" points="268.75 134.37 268.75 134.37 268.75 134.37 295.62 134.37 295.62 161.25 295.62 161.25 295.62 188.12 268.75 188.12 268.75 161.25 268.75 161.25 268.75 161.25 241.87 161.25 241.87 134.37 241.87 134.37 241.87 107.5 268.75 107.5 268.75 134.37"/><rect class="cls-2" x="215" y="26.87" width="26.87" height="26.87"/><rect class="cls-2" x="161.25" y="26.87" width="26.87" height="26.87"/><rect class="cls-2" x="188.12" width="26.87" height="26.87"/><rect class="cls-2" x="591.24" y="456.87" width="26.87" height="26.87"/><rect class="cls-2" x="537.5" y="456.87" width="26.87" height="26.87"/><rect class="cls-2" x="53.75" y="456.87" width="26.87" height="26.87"/><rect class="cls-2" x="510.62" y="483.75" width="26.87" height="26.87"/><rect class="cls-2" x="456.87" y="483.75" width="26.87" height="26.87"/><rect class="cls-2" x="349.37" y="483.75" width="26.87" height="26.87"/><rect class="cls-2" x="537.49" y="107.5" width="26.88" height="26.87"/><rect class="cls-2" x="430" y="107.5" width="26.87" height="26.87"/><rect class="cls-2" x="564.37" y="134.37" width="26.87" height="26.87"/><polygon class="cls-2" points="564.37 188.12 564.37 188.12 564.37 161.25 591.25 161.25 591.25 188.12 591.25 188.12 591.25 215 564.37 215 564.37 188.12"/><polygon class="cls-2" points="430 188.12 430 215 403.12 215 403.12 188.12 403.12 188.12 403.12 161.25 430 161.25 430 188.12 430 188.12"/><polygon class="cls-2" points="618.12 295.62 591.25 295.62 591.25 268.75 591.25 268.75 591.25 241.87 618.12 241.87 618.12 268.75 618.12 268.75 618.12 268.75 644.99 268.75 644.99 295.62 618.12 295.62 618.12 295.62"/><rect class="cls-2" x="618.12" y="295.62" width="26.87" height="26.87"/><polygon class="cls-2" points="644.99 322.5 644.99 295.62 671.87 295.62 671.87 322.5 671.87 322.5 671.87 349.37 671.87 349.37 671.87 376.25 644.99 376.25 644.99 349.37 644.99 349.37 644.99 322.5 644.99 322.5"/><polygon class="cls-2" points="26.88 268.75 26.88 268.75 53.75 268.75 53.75 295.62 26.88 295.62 26.88 295.62 0 295.62 0 268.75 0 268.75 0 241.87 26.88 241.87 26.88 268.75 26.88 268.75"/><rect class="cls-2" x="376.25" y="215" width="26.87" height="26.88"/><polygon class="cls-2" points="295.62 241.87 268.75 241.87 268.75 215 268.75 215 268.75 188.12 295.62 188.12 295.62 215 295.62 215 295.62 241.87"/><polygon class="cls-2" points="0 241.87 0 215 26.88 215 26.88 215 53.75 215 53.75 215 53.75 215 53.75 188.12 80.63 188.12 80.63 215 80.63 215 80.63 241.87 53.75 241.87 53.75 241.87 26.88 241.87 26.88 241.87 0 241.87"/><polygon class="cls-2" points="53.75 188.12 53.75 161.25 80.63 161.25 80.63 161.25 107.5 161.25 107.5 161.25 107.5 161.25 107.5 134.37 134.37 134.37 134.37 161.25 134.37 161.25 134.37 188.12 107.5 188.12 107.5 188.12 80.63 188.12 80.63 188.12 53.75 188.12"/><polygon class="cls-2" points="295.62 107.5 295.62 80.62 322.5 80.62 322.5 107.5 322.5 107.5 322.5 134.37 295.62 134.37 295.62 107.5 295.62 107.5"/><rect class="cls-2" x="376.25" y="107.5" width="26.87" height="26.87"/><polygon class="cls-2" points="107.5 134.37 107.5 107.5 134.37 107.5 134.37 107.5 134.37 107.5 134.37 80.62 134.37 80.62 134.37 53.75 161.25 53.75 161.25 80.62 161.25 80.62 161.25 107.5 161.25 107.5 161.25 134.37 134.37 134.37 134.37 134.37 107.5 134.37"/><rect class="cls-2" x="349.37" y="26.87" width="26.88" height="26.88"/><rect class="cls-2" x="376.25" y="53.75" width="26.87" height="26.87"/><rect class="cls-2" x="322.5" y="53.75" width="26.87" height="26.87"/><rect class="cls-2" x="215" y="53.75" width="26.87" height="26.87"/><rect class="cls-2" x="618.12" y="349.37" width="26.87" height="26.87"/><rect class="cls-2" x="26.88" y="349.37" width="26.87" height="26.87"/><polygon class="cls-2" points="591.25 403.12 591.25 376.25 591.25 376.25 591.25 349.37 618.12 349.37 618.12 376.25 618.12 376.25 618.12 403.12 591.25 403.12"/><rect class="cls-2" y="376.25" width="26.88" height="26.87"/><rect class="cls-2" x="26.88" y="403.12" width="26.87" height="26.88"/><polygon class="cls-2" points="591.25 430 591.25 403.12 618.12 403.12 618.12 430 618.12 430 618.12 456.87 591.25 456.87 591.25 430 591.25 430"/><rect class="cls-2" x="53.75" y="430" width="26.88" height="26.87"/><rect class="cls-2" x="564.37" y="456.87" width="26.87" height="26.88"/><rect class="cls-2" x="510.62" y="456.87" width="26.87" height="26.88"/><rect class="cls-2" x="456.87" y="456.87" width="26.87" height="26.88"/><polygon class="cls-2" points="376.25 456.87 403.12 456.87 403.12 456.87 430 456.87 430 456.87 456.87 456.87 456.87 483.75 430 483.75 430 483.75 403.12 483.75 403.12 483.75 376.25 483.75 376.25 483.75 349.37 483.75 349.37 456.87 376.25 456.87 376.25 456.87"/><polygon class="cls-2" points="241.87 456.87 268.75 456.87 268.75 456.87 295.62 456.87 295.62 456.87 322.5 456.87 322.5 483.75 295.62 483.75 295.62 483.75 268.75 483.75 268.75 483.75 241.87 483.75 241.87 483.75 241.87 483.75 241.87 510.62 215 510.62 215 483.75 215 483.75 215 456.87 241.87 456.87 241.87 456.87"/><rect class="cls-2" x="134.37" y="456.87" width="26.87" height="26.88"/><rect class="cls-2" x="80.62" y="456.87" width="26.87" height="26.88"/><polygon class="cls-2" points="134.37 483.75 161.25 483.75 161.25 510.62 134.37 510.62 134.37 510.62 107.5 510.62 107.5 510.62 80.63 510.62 80.63 483.75 107.5 483.75 107.5 483.75 134.37 483.75 134.37 483.75"/><rect class="cls-3" x="483.75" y="80.62" width="26.87" height="26.87"/><polygon class="cls-3" points="537.5 241.87 537.5 241.87 537.5 268.75 510.62 268.75 510.62 241.87 510.62 241.87 510.62 241.87 483.75 241.87 483.75 241.87 483.75 241.87 483.75 268.75 456.87 268.75 456.87 241.87 456.87 241.87 456.87 241.87 430 241.87 430 215 430 215 430 188.12 456.87 188.12 456.87 215 456.87 215 456.87 215 483.75 215 483.75 215 483.75 215 483.75 188.12 510.62 188.12 510.62 215 510.62 215 510.62 215 537.5 215 537.5 215 537.5 215 537.5 188.12 564.37 188.12 564.37 215 564.37 215 564.37 241.87 537.5 241.87 537.5 241.87"/><rect class="cls-3" x="403.12" y="268.75" width="26.87" height="26.87"/><rect class="cls-3" x="403.12" y="322.5" width="26.87" height="26.87"/><rect class="cls-3" x="349.37" y="322.5" width="26.87" height="26.87"/><rect class="cls-3" x="295.62" y="322.5" width="26.87" height="26.87"/><rect class="cls-3" x="241.87" y="322.5" width="26.87" height="26.87"/><rect class="cls-3" x="295.62" y="268.75" width="26.87" height="26.87"/><rect class="cls-3" x="241.87" y="268.75" width="26.87" height="26.87"/><polygon class="cls-3" points="322.5 215 322.5 215 295.62 215 295.62 188.12 295.62 188.12 295.62 161.25 322.5 161.25 322.5 188.12 322.5 188.12 322.5 188.12 349.37 188.12 349.37 188.12 349.37 188.12 349.37 161.25 376.25 161.25 376.25 188.12 376.25 188.12 376.25 188.12 403.12 188.12 403.12 215 376.25 215 376.25 215 349.37 215 349.37 215 349.37 215 349.37 241.87 322.5 241.87 322.5 215 322.5 215"/><rect class="cls-3" x="349.37" y="215" width="26.87" height="26.87"/><polygon class="cls-3" points="376.25 161.25 376.25 161.25 349.37 161.25 349.37 161.25 349.37 161.25 349.37 188.12 322.5 188.12 322.5 161.25 322.5 161.25 322.5 161.25 295.62 161.25 295.62 134.37 322.5 134.37 322.5 134.37 349.37 134.37 349.37 134.37 349.37 134.37 349.37 107.5 349.37 107.5 349.37 107.5 322.5 107.5 322.5 80.62 349.37 80.62 349.37 80.62 349.37 80.62 349.37 53.75 376.25 53.75 376.25 80.62 376.25 80.62 376.25 107.5 376.25 107.5 376.25 134.37 376.25 134.37 376.25 134.37 403.12 134.37 403.12 161.25 403.12 161.25 403.12 188.12 376.25 188.12 376.25 161.25 376.25 161.25"/><rect class="cls-3" x="161.25" y="80.62" width="26.87" height="26.87"/><path class="cls-3" d="M26.88,376.25v26.87H80.62V430h0V403.12H53.75V430H80.62v26.87H241.87V430h26.88v26.87h26.87V430H322.5v26.87h26.87V430h26.88v26.87h26.87V430H430v26.87H591.24V430h0V403.12h0V376.25H564.37V349.37H645V322.5H618.12V295.62H591.24V322.5H564.37V295.62h26.87V268.75H564.37V241.87H537.5v26.88H510.62V241.87H483.75v26.88H456.87V241.87H403.12v26.88H430v26.87H349.37V268.75H322.5v26.87H295.62V268.75H322.5V241.87H268.75V215H241.87v26.87h0V215h26.88V188.12h0V161.25H241.87v26.87h0V161.25h0V134.37h0V107.5H215V80.62h0V53.75h0V26.87H188.12V53.75H161.25V80.62h26.87V107.5H161.25v26.87h26.87v26.88h0V134.37H134.37v26.88h0v26.87h0V215h0V188.12H107.5V215H80.62v26.87h0v26.88H107.5V241.87h26.87v26.88h0V241.87H107.5v26.88H80.62V241.87H53.75v26.88h0v26.87H107.5V322.5H80.62v26.87H107.5v26.88H80.62V349.37H53.75v26.88H26.88Zm107.49-26.88h0v26.88h0Zm53.75,26.88h0V349.37h0v26.88h0Zm80.63-26.88H241.87V322.5h26.88v26.87ZM215,295.62H188.12V322.5h0V295.62H215Zm-53.75,0H134.37V322.5h0V295.62h26.88ZM215,215H188.12V188.12h0V215Zm0,53.75H188.12V241.87h0v26.88Zm53.75,26.87H241.87V268.75h26.88ZM322.5,322.5h0v26.87H295.62V322.5H322.5Zm53.75,0h0v26.87H349.37V322.5h26.88Zm53.75,0h0v26.87H403.12V322.5H430Zm26.87,53.75V349.37h26.88v26.88H456.87Zm26.88-80.63h0V322.5H456.87V295.62h26.88ZM537.5,322.5H510.62V295.62H537.5Zm0,53.75H510.62V349.37H537.5ZM564.37,430h0V403.12H537.5V430H510.62V403.12H483.75V430H456.87V403.12H430V376.25H403.12v26.87H376.25V376.25H349.37v26.87H322.5V376.25H295.62v26.87H268.75V376.25H241.87v26.87h0V376.25h26.88v26.87h26.87V376.25H322.5v26.87h26.87V376.25h26.88v26.87h26.87V376.25H430v26.87h26.87V430h26.88V403.12h26.87V430h26.87V403.12h26.88V430ZM215,430H188.12V403.12h0V430ZM107.5,403.12h26.87V430h0V403.12H107.5V430h0Z"/><rect class="cls-3" x="403.12" y="430" width="26.87" height="26.87"/><rect class="cls-3" x="349.37" y="430" width="26.87" height="26.87"/><rect class="cls-3" x="295.62" y="430" width="26.87" height="26.87"/><rect class="cls-3" x="241.87" y="430" width="26.87" height="26.87"/><rect class="cls-3" x="107.5" y="456.87" width="26.87" height="26.87"/><rect class="cls-3" x="483.75" y="53.75" width="26.88" height="26.87"/><polygon class="cls-3" points="510.62 134.37 510.62 134.37 510.62 134.37 483.75 134.37 483.75 134.37 483.75 134.37 483.75 161.25 456.87 161.25 456.87 134.37 456.87 134.37 456.87 107.5 483.75 107.5 483.75 107.5 510.62 107.5 510.62 107.5 537.5 107.5 537.5 134.37 537.5 134.37 537.5 161.25 510.62 161.25 510.62 134.37"/><polygon class="cls-3" points="537.5 215 510.62 215 510.62 188.12 510.62 188.12 510.62 188.12 483.75 188.12 483.75 188.12 483.75 188.12 483.75 215 456.87 215 456.87 188.12 456.87 188.12 456.87 161.25 483.75 161.25 483.75 161.25 483.75 161.25 483.75 134.37 510.62 134.37 510.62 161.25 510.62 161.25 510.62 161.25 537.5 161.25 537.5 161.25 564.37 161.25 564.37 188.12 537.5 188.12 537.5 188.12 537.5 188.12 537.5 215"/><rect class="cls-3" x="564.37" y="241.87" width="26.87" height="26.87"/><rect class="cls-3" x="564.37" y="295.62" width="26.87" height="26.87"/><rect class="cls-3" x="510.62" y="295.62" width="26.87" height="26.87"/><rect class="cls-3" x="456.87" y="295.62" width="26.87" height="26.87"/><rect class="cls-3" x="80.62" y="295.62" width="26.87" height="26.87"/><rect class="cls-3" x="26.88" y="241.87" width="26.87" height="26.87"/><rect class="cls-3" x="80.62" y="188.12" width="26.87" height="26.87"/><rect class="cls-3" x="322.5" y="107.5" width="26.87" height="26.87"/><rect class="cls-3" x="564.37" y="349.37" width="26.87" height="26.87"/><rect class="cls-3" x="510.62" y="349.37" width="26.87" height="26.87"/><rect class="cls-3" x="456.87" y="349.37" width="26.87" height="26.87"/><rect class="cls-3" x="80.62" y="349.37" width="26.87" height="26.87"/></g></g></svg>