<svg xmlns="http://www.w3.org/2000/svg" viewBox="0 0 68.65 31"><defs><style>.cls-1{fill:#dadada;}.cls-2{fill:#54596f;}.cls-3{fill:#3b3b49;}.cls-4{fill:#fff;}.cls-5{fill:#f9b233;}.cls-6{fill:#ce1817;}.cls-7{fill:#841c11;}.cls-8{fill:#1d1d1b;}</style></defs><title>dragon_2</title><g id="Calque_2" data-name="Calque 2"><g id="Calque_1-2" data-name="Calque 1"><rect class="cls-1" x="37.65" y="4.43" width="2.21" height="2.21"/><rect class="cls-1" x="11.07" y="22.15" width="2.21" height="2.21"/><rect class="cls-1" x="46.51" y="22.15" width="2.21" height="2.21"/><rect class="cls-2" x="62.01" y="13.29" width="2.21" height="2.21"/><rect class="cls-2" x="59.79" y="15.5" width="2.21" height="2.21"/><rect class="cls-2" x="59.79" y="19.93" width="2.21" height="2.21"/><rect class="cls-2" x="62.01" y="22.15" width="2.21" height="2.21"/><rect class="cls-3" x="64.22" y="13.29" width="2.21" height="2.21"/><rect class="cls-3" x="62.01" y="15.5" width="2.21" height="2.21"/><rect class="cls-3" x="62.01" y="19.93" width="2.21" height="2.21"/><rect class="cls-3" x="64.22" y="22.15" width="2.21" height="2.21"/><rect class="cls-4" x="37.65" y="2.21" width="2.21" height="2.21"/><polygon class="cls-4" points="11.07 15.5 11.07 17.72 11.07 19.93 13.29 19.93 13.29 17.72 15.5 17.72 15.5 15.5 13.29 15.5 11.07 15.5"/><rect class="cls-4" x="44.29" y="22.15" width="2.21" height="2.21"/><rect class="cls-4" x="6.64" y="24.36" width="2.21" height="2.21"/><rect class="cls-4" x="13.29" y="24.36" width="2.21" height="2.21"/><rect class="cls-4" x="8.86" y="26.57" width="2.21" height="2.21"/><rect class="cls-5" x="24.36" y="15.5" width="2.21" height="2.21"/><polygon class="cls-5" points="55.36 17.72 53.15 17.72 50.94 17.72 48.72 17.72 46.51 17.72 46.51 19.93 48.72 19.93 50.94 19.93 53.15 19.93 55.36 19.93 57.58 19.93 57.58 17.72 55.36 17.72"/><rect class="cls-5" x="15.5" y="22.15" width="2.21" height="2.21"/><rect class="cls-5" x="11.07" y="26.57" width="2.21" height="2.21"/><rect class="cls-5" x="24.36" y="26.57" width="2.21" height="2.21"/><path class="cls-6" d="M17.72,17.72h2.21V15.5h2.22V13.29h2.21V11.07H22.15V8.86H19.93V4.43H17.72V6.64H13.29V4.43H11.07V6.64H8.86V8.86H6.64v4.43H4.43v4.43H2.21v4.43H6.64v2.21H8.86V22.15h8.86V17.72Zm-4.43,2.21H11.07V15.5H15.5v4.43Z"/><polygon class="cls-6" points="62.01 17.72 59.79 17.72 57.58 17.72 57.58 19.93 59.79 19.93 62.01 19.93 64.22 19.93 64.22 17.72 62.01 17.72"/><polygon class="cls-6" points="53.15 19.93 50.94 19.93 48.72 19.93 48.72 22.15 50.94 22.15 50.94 24.36 53.15 24.36 53.15 22.15 55.36 22.15 57.58 22.15 57.58 19.93 55.36 19.93 53.15 19.93"/><rect class="cls-6" x="17.72" y="22.15" width="2.21" height="2.21"/><polygon class="cls-6" points="8.86 28.79 8.86 31 11.07 31 13.29 31 13.29 28.79 11.07 28.79 8.86 28.79"/><rect class="cls-6" x="15.5" y="24.36" width="2.21" height="2.21"/><rect class="cls-6" x="6.64" y="26.57" width="2.21" height="2.21"/><rect class="cls-6" x="13.29" y="26.57" width="2.21" height="2.21"/><polygon class="cls-6" points="39.86 26.57 39.86 24.36 37.65 24.36 35.43 24.36 33.22 24.36 31 24.36 31 22.15 28.79 22.15 28.79 19.93 26.57 19.93 26.57 17.72 24.36 17.72 24.36 15.5 22.15 15.5 22.15 17.72 19.93 17.72 19.93 19.93 19.93 22.15 22.15 22.15 22.15 24.36 22.15 26.57 24.36 26.57 26.57 26.57 26.57 28.79 26.57 31 28.79 31 31 31 33.22 31 35.43 31 37.65 31 39.86 31 42.08 31 42.08 28.79 44.29 28.79 44.29 26.57 42.08 26.57 39.86 26.57"/><polygon class="cls-7" points="22.15 6.64 22.15 4.43 22.15 2.21 19.93 2.21 19.93 4.43 19.93 6.64 19.93 8.86 22.15 8.86 22.15 6.64"/><rect class="cls-7" x="24.36" y="11.07" width="2.21" height="2.21"/><rect class="cls-7" x="22.15" y="13.29" width="2.21" height="2.21"/><rect class="cls-7" x="19.93" y="15.5" width="2.21" height="2.21"/><polygon class="cls-7" points="17.72 19.93 17.72 22.15 19.93 22.15 19.93 19.93 19.93 17.72 17.72 17.72 17.72 19.93"/><rect class="cls-7" x="64.22" y="17.72" width="2.21" height="2.21"/><rect class="cls-7" x="57.58" y="19.93" width="2.21" height="2.21"/><rect class="cls-7" x="19.93" y="22.15" width="2.21" height="2.21"/><rect class="cls-7" x="33.22" y="22.15" width="2.21" height="2.21"/><polygon class="cls-7" points="42.08 24.36 44.29 24.36 44.29 22.15 44.29 19.93 44.29 17.72 44.29 15.5 42.08 15.5 42.08 13.29 42.08 11.07 42.08 8.86 42.08 6.64 39.86 6.64 37.65 6.64 35.43 6.64 35.43 8.86 33.22 8.86 33.22 11.07 33.22 13.29 31 13.29 31 15.5 31 17.72 28.79 17.72 28.79 19.93 31 19.93 31 22.15 33.22 22.15 33.22 19.93 33.22 17.72 33.22 15.5 35.43 15.5 35.43 13.29 35.43 11.07 37.65 11.07 37.65 8.86 39.86 8.86 39.86 11.07 37.65 11.07 37.65 13.29 37.65 15.5 35.43 15.5 35.43 17.72 35.43 19.93 35.43 22.15 37.65 22.15 39.86 22.15 39.86 24.36 42.08 24.36"/><polygon class="cls-7" points="53.15 22.15 53.15 24.36 55.36 24.36 57.58 24.36 57.58 22.15 55.36 22.15 53.15 22.15"/><rect class="cls-7" x="42.08" y="28.79" width="2.21" height="2.21"/><rect class="cls-7" x="17.72" y="24.36" width="2.21" height="2.21"/><polygon class="cls-7" points="48.72 24.36 48.72 26.57 50.94 26.57 53.15 26.57 53.15 24.36 50.94 24.36 48.72 24.36"/><rect class="cls-7" x="44.29" y="26.57" width="2.21" height="2.21"/><rect class="cls-8" x="37.65" width="2.21" height="2.21"/><rect class="cls-8" x="11.07" y="2.21" width="2.21" height="2.21"/><rect class="cls-8" x="17.72" y="2.21" width="2.21" height="2.21"/><rect class="cls-8" x="8.86" y="4.43" width="2.21" height="2.21"/><polygon class="cls-8" points="15.5 6.64 17.72 6.64 17.72 4.43 15.5 4.43 13.29 4.43 13.29 6.64 15.5 6.64"/><polygon class="cls-8" points="37.65 4.43 37.65 2.21 35.43 2.21 35.43 4.43 35.43 6.64 37.65 6.64 37.65 4.43"/><polygon class="cls-8" points="39.86 6.64 42.08 6.64 42.08 4.43 42.08 2.21 39.86 2.21 39.86 4.43 39.86 6.64"/><rect class="cls-8" x="6.64" y="6.64" width="2.21" height="2.21"/><rect class="cls-8" x="33.22" y="6.64" width="2.21" height="2.21"/><rect class="cls-8" x="37.65" y="8.86" width="2.21" height="2.21"/><polygon class="cls-8" points="42.08 11.07 42.08 13.29 42.08 15.5 44.29 15.5 44.29 13.29 44.29 11.07 44.29 8.86 44.29 6.64 42.08 6.64 42.08 8.86 42.08 11.07"/><polygon class="cls-8" points="6.64 11.07 6.64 8.86 4.43 8.86 4.43 11.07 4.43 13.29 6.64 13.29 6.64 11.07"/><polygon class="cls-8" points="28.79 11.07 28.79 8.86 26.57 8.86 24.36 8.86 24.36 6.64 24.36 4.43 22.15 4.43 22.15 6.64 22.15 8.86 22.15 11.07 24.36 11.07 26.57 11.07 26.57 13.29 28.79 13.29 28.79 11.07"/><polygon class="cls-8" points="33.22 11.07 33.22 8.86 31 8.86 31 11.07 31 13.29 33.22 13.29 33.22 11.07"/><polygon class="cls-8" points="66.44 13.29 66.44 11.07 64.22 11.07 62.01 11.07 62.01 13.29 64.22 13.29 66.44 13.29"/><rect class="cls-8" x="24.36" y="13.29" width="2.21" height="2.21"/><polygon class="cls-8" points="37.65 13.29 37.65 11.07 35.43 11.07 35.43 13.29 35.43 15.5 37.65 15.5 37.65 13.29"/><rect class="cls-8" x="59.79" y="13.29" width="2.21" height="2.21"/><rect class="cls-8" x="66.44" y="13.29" width="2.21" height="2.21"/><polygon class="cls-8" points="4.43 15.5 4.43 13.29 2.21 13.29 2.21 15.5 2.21 17.72 4.43 17.72 4.43 15.5"/><polygon class="cls-8" points="31 17.72 31 15.5 31 13.29 28.79 13.29 28.79 15.5 26.57 15.5 26.57 17.72 26.57 19.93 28.79 19.93 28.79 17.72 31 17.72"/><rect class="cls-8" x="64.22" y="15.5" width="2.21" height="2.21"/><rect class="cls-8" x="13.29" y="17.72" width="2.21" height="2.21"/><polygon class="cls-8" points="35.43 17.72 35.43 15.5 33.22 15.5 33.22 17.72 33.22 19.93 33.22 22.15 35.43 22.15 35.43 19.93 35.43 17.72"/><polygon class="cls-8" points="44.29 19.93 44.29 22.15 46.51 22.15 48.72 22.15 48.72 19.93 46.51 19.93 46.51 17.72 48.72 17.72 50.94 17.72 53.15 17.72 55.36 17.72 57.58 17.72 59.79 17.72 59.79 15.5 57.58 15.5 55.36 15.5 53.15 15.5 50.94 15.5 48.72 15.5 46.51 15.5 44.29 15.5 44.29 17.72 44.29 19.93"/><rect class="cls-8" x="66.44" y="17.72" width="2.21" height="2.21"/><rect class="cls-8" x="28.79" y="19.93" width="2.21" height="2.21"/><rect class="cls-8" x="64.22" y="19.93" width="2.21" height="2.21"/><rect class="cls-8" x="13.29" y="22.15" width="2.21" height="2.21"/><rect class="cls-8" x="31" y="22.15" width="2.21" height="2.21"/><polygon class="cls-8" points="37.65 22.15 35.43 22.15 35.43 24.36 37.65 24.36 39.86 24.36 39.86 22.15 37.65 22.15"/><rect class="cls-8" x="48.72" y="22.15" width="2.21" height="2.21"/><polygon class="cls-8" points="59.79 22.15 57.58 22.15 57.58 24.36 59.79 24.36 62.01 24.36 62.01 22.15 59.79 22.15"/><rect class="cls-8" x="66.44" y="22.15" width="2.21" height="2.21"/><rect class="cls-8" x="6.64" y="28.79" width="2.21" height="2.21"/><rect class="cls-8" x="13.29" y="28.79" width="2.21" height="2.21"/><rect class="cls-8" x="24.36" y="28.79" width="2.21" height="2.21"/><rect class="cls-8" x="44.29" y="28.79" width="2.21" height="2.21"/><polygon class="cls-8" points="6.64 24.36 6.64 22.15 4.43 22.15 2.21 22.15 2.21 19.93 2.21 17.72 0 17.72 0 19.93 0 22.15 0 24.36 2.21 24.36 4.43 24.36 4.43 26.57 4.43 28.79 6.64 28.79 6.64 26.57 6.64 24.36"/><polygon class="cls-8" points="13.29 24.36 11.07 24.36 11.07 22.15 8.86 22.15 8.86 24.36 8.86 26.57 11.07 26.57 13.29 26.57 13.29 24.36"/><rect class="cls-8" x="19.93" y="24.36" width="2.21" height="2.21"/><polygon class="cls-8" points="53.15 24.36 53.15 26.57 55.36 26.57 57.58 26.57 57.58 24.36 55.36 24.36 53.15 24.36"/><polygon class="cls-8" points="62.01 24.36 62.01 26.57 64.22 26.57 66.44 26.57 66.44 24.36 64.22 24.36 62.01 24.36"/><polygon class="cls-8" points="15.5 26.57 15.5 28.79 17.72 28.79 19.93 28.79 19.93 26.57 17.72 26.57 15.5 26.57"/><rect class="cls-8" x="22.15" y="26.57" width="2.21" height="2.21"/><polygon class="cls-8" points="48.72 26.57 48.72 24.36 46.51 24.36 44.29 24.36 42.08 24.36 39.86 24.36 39.86 26.57 42.08 26.57 44.29 26.57 46.51 26.57 46.51 28.79 48.72 28.79 50.94 28.79 53.15 28.79 53.15 26.57 50.94 26.57 48.72 26.57"/></g></g></svg>