<svg xmlns="http://www.w3.org/2000/svg" viewBox="0 0 81.94 62.01"><defs><style>.cls-1{fill:#d5d4d3;}.cls-2{fill:#1d71b8;}.cls-3{fill:#f9b233;}.cls-4{fill:#fff;}.cls-5{fill:#a4a19f;}.cls-6{fill:#fde922;}.cls-7{fill:#fddfc1;}.cls-8{fill:#c1bfbe;}.cls-9{fill:#dadada;}.cls-10{fill:#1d1d1b;}</style></defs><title>héro1_3_1</title><g id="Calque_2" data-name="Calque 2"><g id="Calque_1-2" data-name="Calque 1"><rect class="cls-1" x="15.5" y="4.43" width="2.21" height="2.21" transform="translate(11.07 22.15) rotate(-90)"/><rect class="cls-2" x="28.79" y="17.72" width="2.21" height="2.21" transform="translate(11.07 48.72) rotate(-90)"/><rect class="cls-2" x="22.15" y="17.72" width="2.21" height="2.21" transform="translate(4.43 42.08) rotate(-90)"/><polygon class="cls-3" points="8.86 11.07 8.86 8.86 8.86 6.64 8.86 4.43 11.07 4.43 11.07 2.21 13.29 2.21 15.5 2.21 15.5 4.43 13.29 4.43 13.29 6.64 11.07 6.64 11.07 8.86 11.07 11.07 11.07 13.29 11.07 15.5 11.07 17.72 8.86 17.72 8.86 19.93 6.64 19.93 6.64 17.72 6.64 15.5 6.64 13.29 6.64 11.07 8.86 11.07"/><rect class="cls-4" x="17.72" y="4.43" width="2.21" height="2.21"/><polygon class="cls-4" points="24.36 15.5 24.36 17.72 22.15 17.72 22.15 17.72 22.15 15.5 22.15 15.5 24.36 15.5"/><polygon class="cls-4" points="31 15.5 31 17.72 28.79 17.72 28.79 17.72 28.79 15.5 28.79 15.5 31 15.5"/><rect class="cls-4" x="77.51" y="39.86" width="2.21" height="2.21"/><polygon class="cls-4" points="11.07 26.57 13.29 26.57 13.29 28.79 11.07 28.79 8.86 28.79 8.86 26.57 11.07 26.57"/><rect class="cls-5" x="77.51" y="42.08" width="2.21" height="2.21" transform="translate(35.43 121.8) rotate(-90)"/><rect class="cls-5" x="75.3" y="42.08" width="2.21" height="2.21" transform="translate(33.22 119.59) rotate(-90)"/><rect class="cls-5" x="73.08" y="42.08" width="2.21" height="2.21" transform="translate(31 117.37) rotate(-90)"/><rect class="cls-5" x="70.87" y="42.08" width="2.21" height="2.21" transform="translate(28.79 115.16) rotate(-90)"/><rect class="cls-5" x="68.65" y="42.08" width="2.21" height="2.21" transform="translate(26.57 112.94) rotate(-90)"/><rect class="cls-5" x="66.44" y="42.08" width="2.21" height="2.21" transform="translate(24.36 110.73) rotate(-90)"/><rect class="cls-5" x="64.22" y="42.08" width="2.21" height="2.21" transform="translate(22.15 108.51) rotate(-90)"/><rect class="cls-5" x="62.01" y="42.08" width="2.21" height="2.21" transform="translate(19.93 106.3) rotate(-90)"/><rect class="cls-5" x="59.79" y="42.08" width="2.21" height="2.21" transform="translate(17.72 104.08) rotate(-90)"/><rect class="cls-5" x="57.58" y="42.08" width="2.21" height="2.21" transform="translate(15.5 101.87) rotate(-90)"/><rect class="cls-5" x="53.15" y="42.08" width="2.21" height="2.21" transform="translate(11.07 97.44) rotate(-90)"/><rect class="cls-5" x="50.94" y="42.08" width="2.21" height="2.21" transform="translate(8.86 95.23) rotate(-90)"/><rect class="cls-6" x="8.86" y="2.21" width="2.21" height="2.21"/><polygon class="cls-6" points="8.86 8.86 8.86 11.07 6.64 11.07 6.64 8.86 6.64 6.64 6.64 4.43 8.86 4.43 8.86 6.64 8.86 8.86"/><polygon class="cls-6" points="4.43 17.72 6.64 17.72 6.64 19.93 4.43 19.93 2.21 19.93 2.21 17.72 4.43 17.72"/><polygon class="cls-6" points="39.86 33.22 39.86 35.43 42.08 35.43 42.08 37.65 42.08 39.86 44.29 39.86 44.29 42.08 42.08 42.08 39.86 42.08 39.86 39.86 37.65 39.86 37.65 37.65 35.43 37.65 35.43 35.43 35.43 33.22 37.65 33.22 39.86 33.22"/><polygon class="cls-6" points="6.64 35.43 6.64 33.22 8.86 33.22 11.07 33.22 11.07 35.43 11.07 37.65 8.86 37.65 8.86 39.86 6.64 39.86 6.64 42.08 4.43 42.08 4.43 39.86 4.43 37.65 6.64 37.65 6.64 35.43"/><polygon class="cls-6" points="57.58 39.86 57.58 42.08 57.58 44.29 57.58 46.51 55.36 46.51 55.36 44.29 55.36 42.08 55.36 39.86 55.36 37.65 57.58 37.65 57.58 39.86"/><polygon class="cls-7" points="46.51 39.86 48.72 39.86 48.72 42.08 48.72 44.29 46.51 44.29 44.29 44.29 44.29 42.08 46.51 42.08 46.51 39.86"/><polygon class="cls-7" points="6.64 44.29 8.86 44.29 8.86 46.51 8.86 48.72 6.64 48.72 4.43 48.72 4.43 46.51 4.43 44.29 6.64 44.29"/><rect class="cls-8" x="31" y="4.43" width="2.21" height="2.21"/><polygon class="cls-8" points="35.43 8.86 35.43 11.07 35.43 13.29 35.43 15.5 33.22 15.5 33.22 13.29 33.22 11.07 33.22 8.86 33.22 6.64 35.43 6.64 35.43 8.86"/><polygon class="cls-8" points="35.43 22.15 35.43 24.36 33.22 24.36 33.22 22.15 33.22 19.93 35.43 19.93 35.43 22.15"/><polygon class="cls-8" points="39.86 28.79 39.86 31 37.65 31 37.65 28.79 37.65 26.57 39.86 26.57 39.86 28.79"/><rect class="cls-8" x="28.79" y="26.57" width="2.21" height="2.21"/><rect class="cls-8" x="24.36" y="26.57" width="2.21" height="2.21"/><rect class="cls-8" x="19.93" y="26.57" width="2.21" height="2.21"/><polygon class="cls-8" points="28.79 31 28.79 33.22 26.57 33.22 26.57 31 26.57 28.79 28.79 28.79 28.79 31"/><rect class="cls-8" x="24.36" y="33.22" width="2.21" height="2.21"/><polygon class="cls-8" points="28.79 37.65 31 37.65 31 39.86 31 42.08 31 44.29 28.79 44.29 28.79 42.08 26.57 42.08 26.57 39.86 26.57 37.65 26.57 35.43 28.79 35.43 28.79 37.65"/><rect class="cls-8" x="79.72" y="42.08" width="2.21" height="2.21"/><polygon class="cls-8" points="31 48.72 31 50.94 31 53.15 31 55.36 28.79 55.36 28.79 53.15 28.79 50.94 28.79 48.72 28.79 46.51 31 46.51 31 48.72"/><polygon class="cls-9" points="28.79 15.5 26.57 15.5 24.36 15.5 22.15 15.5 19.93 15.5 17.72 15.5 15.5 15.5 13.29 15.5 13.29 13.29 13.29 11.07 13.29 8.86 13.29 6.64 15.5 6.64 17.72 6.64 19.93 6.64 19.93 4.43 22.15 4.43 24.36 4.43 26.57 4.43 28.79 4.43 31 4.43 31 6.64 33.22 6.64 33.22 8.86 33.22 11.07 33.22 13.29 33.22 15.5 31 15.5 28.79 15.5"/><polygon class="cls-9" points="28.79 24.36 26.57 24.36 24.36 24.36 22.15 24.36 19.93 24.36 17.72 24.36 15.5 24.36 13.29 24.36 13.29 22.15 13.29 19.93 15.5 19.93 17.72 19.93 19.93 19.93 22.15 19.93 24.36 19.93 26.57 19.93 28.79 19.93 31 19.93 33.22 19.93 33.22 22.15 33.22 24.36 31 24.36 28.79 24.36"/><polygon class="cls-9" points="8.86 26.57 8.86 28.79 11.07 28.79 13.29 28.79 13.29 26.57 15.5 26.57 17.72 26.57 19.93 26.57 19.93 28.79 22.15 28.79 24.36 28.79 24.36 31 24.36 33.22 22.15 33.22 22.15 35.43 19.93 35.43 17.72 35.43 15.5 35.43 15.5 33.22 15.5 31 17.72 31 17.72 28.79 15.5 28.79 15.5 31 13.29 31 11.07 31 8.86 31 6.64 31 6.64 28.79 6.64 26.57 8.86 26.57"/><polygon class="cls-9" points="28.79 33.22 28.79 31 28.79 28.79 31 28.79 31 26.57 33.22 26.57 35.43 26.57 37.65 26.57 37.65 28.79 37.65 31 35.43 31 35.43 28.79 33.22 28.79 33.22 31 33.22 33.22 33.22 35.43 31 35.43 28.79 35.43 28.79 33.22"/><polygon class="cls-9" points="24.36 37.65 24.36 39.86 26.57 39.86 26.57 42.08 24.36 42.08 24.36 44.29 22.15 44.29 19.93 44.29 17.72 44.29 17.72 42.08 17.72 39.86 17.72 37.65 19.93 37.65 22.15 37.65 22.15 35.43 24.36 35.43 24.36 37.65"/><rect class="cls-9" x="79.72" y="39.86" width="2.21" height="2.21"/><polygon class="cls-9" points="62.01 39.86 64.22 39.86 66.44 39.86 68.65 39.86 70.87 39.86 73.08 39.86 75.3 39.86 77.51 39.86 77.51 42.08 75.3 42.08 73.08 42.08 70.87 42.08 68.65 42.08 66.44 42.08 64.22 42.08 62.01 42.08 59.79 42.08 57.58 42.08 57.58 39.86 59.79 39.86 62.01 39.86"/><polygon class="cls-9" points="55.36 39.86 55.36 42.08 53.15 42.08 50.94 42.08 50.94 39.86 53.15 39.86 55.36 39.86"/><rect class="cls-9" x="26.57" y="42.08" width="2.21" height="2.21"/><polygon class="cls-9" points="17.72 48.72 17.72 46.51 19.93 46.51 22.15 46.51 24.36 46.51 26.57 46.51 28.79 46.51 28.79 48.72 28.79 50.94 28.79 53.15 28.79 55.36 26.57 55.36 26.57 53.15 26.57 50.94 24.36 50.94 22.15 50.94 19.93 50.94 19.93 53.15 17.72 53.15 17.72 55.36 15.5 55.36 15.5 53.15 15.5 50.94 17.72 50.94 17.72 48.72"/><rect class="cls-5" x="31" y="57.58" width="2.21" height="2.21" transform="translate(-26.57 90.8) rotate(-90)"/><rect class="cls-5" x="28.79" y="57.58" width="2.21" height="2.21" transform="translate(-28.79 88.58) rotate(-90)"/><rect class="cls-5" x="17.72" y="57.58" width="2.21" height="2.21" transform="translate(-39.86 77.51) rotate(-90)"/><rect class="cls-5" x="15.5" y="57.58" width="2.21" height="2.21" transform="translate(-42.08 75.3) rotate(-90)"/><polygon class="cls-10" points="11.07 2.21 8.86 2.21 8.86 0 11.07 0 13.29 0 15.5 0 15.5 2.21 13.29 2.21 11.07 2.21"/><polygon class="cls-10" points="28.79 4.43 26.57 4.43 24.36 4.43 22.15 4.43 19.93 4.43 17.72 4.43 15.5 4.43 15.5 2.21 17.72 2.21 19.93 2.21 22.15 2.21 24.36 2.21 26.57 2.21 28.79 2.21 31 2.21 33.22 2.21 33.22 4.43 31 4.43 28.79 4.43"/><rect class="cls-10" x="6.64" y="2.21" width="2.21" height="2.21"/><rect class="cls-10" x="33.22" y="4.43" width="2.21" height="2.21"/><rect class="cls-10" x="13.29" y="4.43" width="2.21" height="2.21"/><polygon class="cls-10" points="2.21 15.5 4.43 15.5 4.43 13.29 4.43 11.07 4.43 8.86 4.43 6.64 4.43 4.43 6.64 4.43 6.64 6.64 6.64 8.86 6.64 11.07 6.64 13.29 6.64 15.5 6.64 17.72 4.43 17.72 2.21 17.72 2.21 19.93 0 19.93 0 17.72 0 15.5 2.21 15.5"/><polygon class="cls-10" points="24.36 19.93 24.36 17.72 24.36 15.5 26.57 15.5 28.79 15.5 28.79 17.72 28.79 19.93 26.57 19.93 24.36 19.93"/><polygon class="cls-10" points="11.07 17.72 11.07 15.5 11.07 13.29 11.07 11.07 11.07 8.86 11.07 6.64 13.29 6.64 13.29 8.86 13.29 11.07 13.29 13.29 13.29 15.5 15.5 15.5 17.72 15.5 19.93 15.5 22.15 15.5 22.15 17.72 22.15 19.93 19.93 19.93 17.72 19.93 15.5 19.93 13.29 19.93 13.29 22.15 13.29 24.36 15.5 24.36 17.72 24.36 19.93 24.36 22.15 24.36 24.36 24.36 26.57 24.36 28.79 24.36 31 24.36 33.22 24.36 35.43 24.36 35.43 22.15 35.43 19.93 33.22 19.93 31 19.93 31 17.72 31 15.5 33.22 15.5 35.43 15.5 35.43 13.29 35.43 11.07 35.43 8.86 35.43 6.64 37.65 6.64 37.65 8.86 37.65 11.07 37.65 13.29 37.65 15.5 37.65 17.72 37.65 19.93 37.65 22.15 37.65 24.36 39.86 24.36 39.86 26.57 37.65 26.57 35.43 26.57 33.22 26.57 31 26.57 28.79 26.57 28.79 28.79 26.57 28.79 26.57 26.57 24.36 26.57 24.36 28.79 22.15 28.79 22.15 26.57 19.93 26.57 17.72 26.57 15.5 26.57 13.29 26.57 11.07 26.57 8.86 26.57 6.64 26.57 6.64 24.36 8.86 24.36 11.07 24.36 11.07 22.15 11.07 19.93 8.86 19.93 8.86 17.72 11.07 17.72"/><polygon class="cls-10" points="6.64 19.93 8.86 19.93 8.86 22.15 6.64 22.15 4.43 22.15 2.21 22.15 2.21 19.93 4.43 19.93 6.64 19.93"/><polygon class="cls-10" points="39.86 26.57 42.08 26.57 42.08 28.79 42.08 31 39.86 31 39.86 28.79 39.86 26.57"/><rect class="cls-10" x="15.5" y="28.79" width="2.21" height="2.21"/><polygon class="cls-10" points="6.64 31 4.43 31 4.43 28.79 4.43 26.57 6.64 26.57 6.64 28.79 6.64 31"/><polygon class="cls-10" points="26.57 33.22 24.36 33.22 24.36 31 24.36 28.79 26.57 28.79 26.57 31 26.57 33.22"/><polygon class="cls-10" points="11.07 31 13.29 31 15.5 31 15.5 33.22 15.5 35.43 17.72 35.43 19.93 35.43 22.15 35.43 22.15 37.65 19.93 37.65 17.72 37.65 17.72 39.86 17.72 42.08 17.72 44.29 19.93 44.29 22.15 44.29 24.36 44.29 24.36 42.08 26.57 42.08 26.57 44.29 28.79 44.29 31 44.29 31 46.51 28.79 46.51 26.57 46.51 24.36 46.51 22.15 46.51 19.93 46.51 17.72 46.51 17.72 48.72 17.72 50.94 15.5 50.94 15.5 48.72 15.5 46.51 15.5 44.29 15.5 42.08 15.5 39.86 15.5 37.65 13.29 37.65 11.07 37.65 11.07 35.43 11.07 33.22 8.86 33.22 6.64 33.22 6.64 31 8.86 31 11.07 31"/><rect class="cls-10" x="39.86" y="33.22" width="2.21" height="2.21"/><rect class="cls-10" x="26.57" y="33.22" width="2.21" height="2.21"/><rect class="cls-10" x="22.15" y="33.22" width="2.21" height="2.21"/><polygon class="cls-10" points="26.57 37.65 26.57 39.86 24.36 39.86 24.36 37.65 24.36 35.43 26.57 35.43 26.57 37.65"/><polygon class="cls-10" points="6.64 37.65 4.43 37.65 4.43 35.43 4.43 33.22 6.64 33.22 6.64 35.43 6.64 37.65"/><rect class="cls-10" x="8.86" y="37.65" width="2.21" height="2.21"/><rect class="cls-10" x="37.65" y="39.86" width="2.21" height="2.21"/><polygon class="cls-10" points="31 39.86 31 37.65 28.79 37.65 28.79 35.43 31 35.43 33.22 35.43 33.22 33.22 33.22 31 33.22 28.79 35.43 28.79 35.43 31 37.65 31 39.86 31 39.86 33.22 37.65 33.22 35.43 33.22 35.43 35.43 35.43 37.65 37.65 37.65 37.65 39.86 35.43 39.86 33.22 39.86 33.22 42.08 33.22 44.29 31 44.29 31 42.08 31 39.86"/><polygon class="cls-10" points="4.43 42.08 6.64 42.08 6.64 39.86 8.86 39.86 8.86 42.08 8.86 44.29 6.64 44.29 4.43 44.29 4.43 46.51 4.43 48.72 6.64 48.72 8.86 48.72 8.86 50.94 6.64 50.94 4.43 50.94 2.21 50.94 2.21 48.72 2.21 46.51 2.21 44.29 2.21 42.08 2.21 39.86 2.21 37.65 4.43 37.65 4.43 39.86 4.43 42.08"/><polygon class="cls-10" points="44.29 42.08 44.29 44.29 46.51 44.29 48.72 44.29 48.72 42.08 48.72 39.86 46.51 39.86 46.51 42.08 44.29 42.08 44.29 39.86 42.08 39.86 42.08 37.65 42.08 35.43 44.29 35.43 44.29 37.65 46.51 37.65 48.72 37.65 50.94 37.65 50.94 39.86 50.94 42.08 50.94 44.29 50.94 46.51 48.72 46.51 46.51 46.51 44.29 46.51 42.08 46.51 42.08 44.29 39.86 44.29 39.86 42.08 42.08 42.08 44.29 42.08"/><polygon class="cls-10" points="8.86 44.29 11.07 44.29 11.07 46.51 11.07 48.72 8.86 48.72 8.86 46.51 8.86 44.29"/><polygon class="cls-10" points="22.15 50.94 24.36 50.94 26.57 50.94 26.57 53.15 26.57 55.36 24.36 55.36 24.36 53.15 22.15 53.15 19.93 53.15 19.93 50.94 22.15 50.94"/><polygon class="cls-10" points="15.5 55.36 17.72 55.36 17.72 53.15 19.93 53.15 19.93 55.36 19.93 57.58 17.72 57.58 15.5 57.58 15.5 59.79 17.72 59.79 19.93 59.79 19.93 57.58 22.15 57.58 22.15 59.79 22.15 62.01 19.93 62.01 17.72 62.01 15.5 62.01 13.29 62.01 13.29 59.79 13.29 57.58 13.29 55.36 13.29 53.15 13.29 50.94 15.5 50.94 15.5 53.15 15.5 55.36"/><polygon class="cls-10" points="31 55.36 31 53.15 31 50.94 31 48.72 31 46.51 33.22 46.51 33.22 48.72 33.22 50.94 33.22 53.15 33.22 55.36 33.22 57.58 31 57.58 28.79 57.58 28.79 59.79 31 59.79 33.22 59.79 33.22 57.58 35.43 57.58 35.43 59.79 35.43 62.01 33.22 62.01 31 62.01 28.79 62.01 26.57 62.01 26.57 59.79 26.57 57.58 26.57 55.36 28.79 55.36 31 55.36"/></g></g></svg>