<svg xmlns="http://www.w3.org/2000/svg" viewBox="0 0 35.43 33.22"><defs><style>.cls-1{fill:#f9b233;}.cls-2{fill:#fde922;}.cls-3{fill:#fff;}.cls-4{fill:#1d71b8;}.cls-5{fill:#c1bfbe;}.cls-6{fill:#dadada;}.cls-7{fill:#a4a19f;}.cls-8{fill:#1d1d1b;}</style></defs><title>hero_crouch</title><g id="Calque_2" data-name="Calque 2"><g id="Calque_1-2" data-name="Calque 1"><polygon class="cls-1" points="8.86 4.43 8.86 2.21 11.07 2.21 13.29 2.21 13.29 4.43 11.07 4.43 11.07 6.64 8.86 6.64 8.86 8.86 8.86 11.07 8.86 13.29 6.64 13.29 6.64 11.07 6.64 8.86 6.64 6.64 6.64 4.43 8.86 4.43"/><rect class="cls-2" x="6.64" y="2.21" width="2.21" height="2.21"/><polygon class="cls-2" points="4.43 11.07 4.43 8.86 4.43 6.64 4.43 4.43 6.64 4.43 6.64 6.64 6.64 8.86 6.64 11.07 6.64 13.29 4.43 13.29 2.21 13.29 2.21 11.07 4.43 11.07"/><rect class="cls-3" x="26.57" y="8.86" width="2.21" height="2.21"/><rect class="cls-3" x="19.93" y="8.86" width="2.21" height="2.21"/><rect class="cls-3" x="15.5" y="4.43" width="2.21" height="2.21"/><rect class="cls-4" x="26.57" y="11.07" width="2.21" height="2.21"/><rect class="cls-4" x="19.93" y="11.07" width="2.21" height="2.21"/><rect class="cls-5" x="28.79" y="4.43" width="2.21" height="2.21"/><rect class="cls-5" x="31" y="6.64" width="2.21" height="2.21"/><polygon class="cls-5" points="33.22 15.5 33.22 17.72 33.22 19.93 31 19.93 31 17.72 31 15.5 31 13.29 33.22 13.29 33.22 15.5"/><polygon class="cls-5" points="19.93 24.36 22.15 24.36 22.15 26.57 19.93 26.57 17.72 26.57 17.72 24.36 19.93 24.36"/><polygon class="cls-6" points="13.29 6.64 15.5 6.64 17.72 6.64 17.72 4.43 19.93 4.43 22.15 4.43 24.36 4.43 26.57 4.43 28.79 4.43 28.79 6.64 31 6.64 31 8.86 28.79 8.86 26.57 8.86 24.36 8.86 22.15 8.86 19.93 8.86 17.72 8.86 15.5 8.86 13.29 8.86 11.07 8.86 11.07 6.64 13.29 6.64"/><polygon class="cls-6" points="15.5 13.29 17.72 13.29 19.93 13.29 22.15 13.29 24.36 13.29 26.57 13.29 28.79 13.29 31 13.29 31 15.5 31 17.72 31 19.93 28.79 19.93 26.57 19.93 24.36 19.93 22.15 19.93 19.93 19.93 17.72 19.93 15.5 19.93 13.29 19.93 11.07 19.93 11.07 17.72 11.07 15.5 11.07 13.29 13.29 13.29 15.5 13.29"/><polygon class="cls-6" points="17.72 22.15 19.93 22.15 22.15 22.15 24.36 22.15 26.57 22.15 26.57 24.36 24.36 24.36 22.15 24.36 19.93 24.36 17.72 24.36 17.72 26.57 15.5 26.57 15.5 24.36 13.29 24.36 13.29 22.15 15.5 22.15 17.72 22.15"/><polygon class="cls-7" points="24.36 26.57 26.57 26.57 26.57 28.79 26.57 31 24.36 31 22.15 31 19.93 31 19.93 28.79 19.93 26.57 22.15 26.57 24.36 26.57"/><polygon class="cls-7" points="15.5 26.57 17.72 26.57 17.72 28.79 17.72 31 15.5 31 13.29 31 13.29 28.79 13.29 26.57 15.5 26.57"/><polygon class="cls-8" points="8.86 2.21 6.64 2.21 6.64 0 8.86 0 11.07 0 13.29 0 13.29 2.21 11.07 2.21 8.86 2.21"/><polygon class="cls-8" points="26.57 4.43 24.36 4.43 22.15 4.43 19.93 4.43 17.72 4.43 15.5 4.43 13.29 4.43 13.29 2.21 15.5 2.21 17.72 2.21 19.93 2.21 22.15 2.21 24.36 2.21 26.57 2.21 28.79 2.21 31 2.21 31 4.43 28.79 4.43 26.57 4.43"/><rect class="cls-8" x="4.43" y="2.21" width="2.21" height="2.21"/><rect class="cls-8" x="31" y="4.43" width="2.21" height="2.21"/><rect class="cls-8" x="11.07" y="4.43" width="2.21" height="2.21"/><polygon class="cls-8" points="4.43 8.86 4.43 11.07 2.21 11.07 2.21 8.86 2.21 6.64 2.21 4.43 4.43 4.43 4.43 6.64 4.43 8.86"/><rect class="cls-8" y="11.07" width="2.21" height="2.21"/><path class="cls-8" d="M4.43,13.29H2.21V15.5H8.86v6.65h2.21V33.22H28.79V22.15h6.64V6.64H33.22V8.86H28.79v4.43h4.43v6.64H11.07V13.29h8.86V8.86H11.07V6.64H8.86v6.65H4.43Zm8.86,8.86H26.57v2.21H22.15v2.21h4.42V31H19.93V26.57H17.72V31H13.29V26.57H15.5V24.36H13.29Z"/><polygon class="cls-8" points="22.15 13.29 22.15 11.07 22.15 8.86 24.36 8.86 26.57 8.86 26.57 11.07 26.57 13.29 24.36 13.29 22.15 13.29"/></g></g></svg>