<svg xmlns="http://www.w3.org/2000/svg" viewBox="0 0 75.3 59.79"><defs><style>.cls-1{fill:#fff;}.cls-2{fill:#1d71b8;}.cls-3{fill:#a58a75;}.cls-4{fill:#c1bfbe;}.cls-5{fill:#dadada;}.cls-6{fill:#db3341;}.cls-7{fill:#fddfc1;}.cls-8{fill:#841c11;}.cls-9{fill:#c61618;}.cls-10{fill:#a4a19f;}.cls-11{fill:#1d1d1b;}</style></defs><title>lancier_2</title><g id="Calque_2" data-name="Calque 2"><g id="Calque_1-2" data-name="Calque 1"><rect class="cls-1" x="46.51" y="13.29" width="2.21" height="2.21"/><rect class="cls-1" x="53.15" y="13.29" width="2.21" height="2.21"/><rect class="cls-1" x="57.58" y="2.21" width="2.21" height="2.21"/><rect class="cls-2" x="46.51" y="15.5" width="2.21" height="2.21" transform="translate(31 64.22) rotate(-90)"/><rect class="cls-2" x="53.15" y="15.5" width="2.21" height="2.21" transform="translate(37.65 70.87) rotate(-90)"/><polygon class="cls-3" points="37.65 50.94 37.65 48.72 35.43 48.72 35.43 46.51 33.22 46.51 33.22 44.29 31 44.29 28.79 44.29 28.79 46.51 31 46.51 31 48.72 33.22 48.72 33.22 50.94 35.43 50.94 35.43 53.15 37.65 53.15 37.65 55.36 39.86 55.36 39.86 53.15 39.86 50.94 37.65 50.94"/><rect class="cls-3" x="4.43" y="15.5" width="2.21" height="2.21"/><polygon class="cls-3" points="24.36 35.43 22.15 35.43 22.15 33.22 19.93 33.22 19.93 31 17.72 31 17.72 28.79 15.5 28.79 15.5 26.57 13.29 26.57 13.29 24.36 11.07 24.36 11.07 22.15 8.86 22.15 8.86 19.93 6.64 19.93 4.43 19.93 4.43 22.15 6.64 22.15 6.64 24.36 8.86 24.36 8.86 26.57 11.07 26.57 11.07 28.79 13.29 28.79 13.29 31 15.5 31 15.5 33.22 17.72 33.22 17.72 35.43 19.93 35.43 19.93 37.65 22.15 37.65 22.15 39.86 24.36 39.86 24.36 42.08 26.57 42.08 26.57 39.86 26.57 37.65 24.36 37.65 24.36 35.43"/><polygon class="cls-4" points="2.21 15.5 0 15.5 0 17.72 0 19.93 0 22.15 0 24.36 2.21 24.36 2.21 22.15 4.43 22.15 4.43 19.93 4.43 17.72 4.43 15.5 2.21 15.5"/><polygon class="cls-5" points="8.86 13.29 6.64 13.29 4.43 13.29 2.21 13.29 2.21 15.5 2.21 17.72 4.43 17.72 4.43 19.93 6.64 19.93 8.86 19.93 8.86 17.72 8.86 15.5 11.07 15.5 11.07 13.29 8.86 13.29"/><polygon class="cls-6" points="68.65 26.57 68.65 24.36 66.44 24.36 64.22 24.36 64.22 26.57 66.44 26.57 68.65 26.57"/><polygon class="cls-6" points="37.65 31 37.65 33.22 35.43 33.22 35.43 35.43 35.43 37.65 33.22 37.65 33.22 39.86 33.22 42.08 35.43 42.08 35.43 39.86 37.65 39.86 37.65 37.65 39.86 37.65 39.86 35.43 42.08 35.43 42.08 33.22 42.08 31 39.86 31 37.65 31"/><polygon class="cls-6" points="70.87 35.43 70.87 33.22 70.87 31 68.65 31 66.44 31 66.44 33.22 66.44 35.43 68.65 35.43 68.65 37.65 70.87 37.65 70.87 39.86 73.08 39.86 73.08 37.65 73.08 35.43 70.87 35.43"/><polygon class="cls-7" points="26.57 37.65 26.57 39.86 28.79 39.86 28.79 42.08 31 42.08 31 39.86 31 37.65 28.79 37.65 26.57 37.65"/><polygon class="cls-7" points="70.87 42.08 68.65 42.08 68.65 44.29 68.65 46.51 70.87 46.51 73.08 46.51 73.08 44.29 73.08 42.08 70.87 42.08"/><rect class="cls-8" x="44.29" y="2.21" width="2.21" height="2.21"/><polygon class="cls-8" points="44.29 11.07 44.29 8.86 44.29 6.64 44.29 4.43 42.08 4.43 42.08 6.64 42.08 8.86 42.08 11.07 42.08 13.29 44.29 13.29 44.29 11.07"/><polygon class="cls-8" points="44.29 19.93 44.29 17.72 42.08 17.72 42.08 19.93 42.08 22.15 44.29 22.15 44.29 19.93"/><polygon class="cls-8" points="37.65 26.57 37.65 28.79 39.86 28.79 39.86 26.57 39.86 24.36 37.65 24.36 37.65 26.57"/><rect class="cls-8" x="46.51" y="24.36" width="2.21" height="2.21"/><rect class="cls-8" x="50.94" y="24.36" width="2.21" height="2.21"/><rect class="cls-8" x="55.36" y="24.36" width="2.21" height="2.21"/><polygon class="cls-8" points="48.72 28.79 48.72 31 50.94 31 50.94 28.79 50.94 26.57 48.72 26.57 48.72 28.79"/><rect class="cls-8" x="50.94" y="31" width="2.21" height="2.21"/><polygon class="cls-8" points="48.72 35.43 46.51 35.43 46.51 37.65 46.51 39.86 46.51 42.08 48.72 42.08 48.72 39.86 50.94 39.86 50.94 37.65 50.94 35.43 50.94 33.22 48.72 33.22 48.72 35.43"/><polygon class="cls-8" points="46.51 46.51 46.51 48.72 48.72 48.72 48.72 46.51 48.72 44.29 46.51 44.29 46.51 46.51"/><rect class="cls-8" x="44.29" y="48.72" width="2.21" height="2.21"/><rect class="cls-8" x="46.51" y="50.93" width="2.21" height="2.21"/><polygon class="cls-9" points="48.72 13.29 50.94 13.29 53.15 13.29 55.36 13.29 57.58 13.29 59.79 13.29 62.01 13.29 64.22 13.29 64.22 11.07 64.22 8.86 64.22 6.64 64.22 4.43 62.01 4.43 62.01 2.21 59.79 2.21 59.79 4.43 57.58 4.43 57.58 2.21 55.36 2.21 53.15 2.21 50.94 2.21 48.72 2.21 46.51 2.21 46.51 4.43 44.29 4.43 44.29 6.64 44.29 8.86 44.29 11.07 44.29 13.29 46.51 13.29 48.72 13.29"/><polygon class="cls-9" points="48.72 22.15 50.94 22.15 53.15 22.15 55.36 22.15 57.58 22.15 59.79 22.15 62.01 22.15 64.22 22.15 64.22 19.93 64.22 17.72 62.01 17.72 59.79 17.72 57.58 17.72 55.36 17.72 53.15 17.72 50.94 17.72 48.72 17.72 46.51 17.72 44.29 17.72 44.29 19.93 44.29 22.15 46.51 22.15 48.72 22.15"/><polygon class="cls-9" points="68.65 24.36 68.65 26.57 66.44 26.57 64.22 26.57 64.22 24.36 62.01 24.36 59.79 24.36 57.58 24.36 57.58 26.57 55.36 26.57 53.15 26.57 53.15 28.79 53.15 31 55.36 31 55.36 33.22 57.58 33.22 59.79 33.22 62.01 33.22 62.01 31 62.01 28.79 59.79 28.79 59.79 26.57 62.01 26.57 62.01 28.79 64.22 28.79 66.44 28.79 68.65 28.79 70.87 28.79 70.87 26.57 70.87 24.36 68.65 24.36"/><polygon class="cls-9" points="44.29 31 44.29 33.22 46.51 33.22 48.72 33.22 48.72 31 48.72 28.79 48.72 26.57 46.51 26.57 46.51 24.36 44.29 24.36 42.08 24.36 39.86 24.36 39.86 26.57 39.86 28.79 42.08 28.79 42.08 26.57 44.29 26.57 44.29 28.79 44.29 31"/><polygon class="cls-9" points="53.15 35.43 53.15 37.65 50.94 37.65 50.94 39.86 53.15 39.86 53.15 42.08 55.36 42.08 57.58 42.08 59.79 42.08 59.79 39.86 59.79 37.65 59.79 35.43 57.58 35.43 55.36 35.43 55.36 33.22 53.15 33.22 53.15 35.43"/><rect class="cls-9" x="48.72" y="39.86" width="2.21" height="2.21"/><polygon class="cls-9" points="55.36 44.29 53.15 44.29 50.94 44.29 48.72 44.29 48.72 46.51 48.72 48.72 46.51 48.72 46.51 50.94 48.72 50.94 48.72 53.15 50.94 53.15 50.94 50.94 50.94 48.72 53.15 48.72 55.36 48.72 55.36 50.94 55.36 53.15 57.58 53.15 57.58 50.94 59.79 50.94 59.79 48.72 59.79 46.51 59.79 44.29 57.58 44.29 55.36 44.29"/><rect class="cls-10" x="46.51" y="55.36" width="2.21" height="2.21"/><rect class="cls-10" x="55.36" y="55.36" width="2.21" height="2.21"/><polygon class="cls-11" points="48.72 2.21 50.94 2.21 53.15 2.21 55.36 2.21 57.58 2.21 59.79 2.21 62.01 2.21 62.01 0 59.79 0 57.58 0 55.36 0 53.15 0 50.94 0 48.72 0 46.51 0 44.29 0 44.29 2.21 46.51 2.21 48.72 2.21"/><rect class="cls-11" x="42.08" y="2.21" width="2.21" height="2.21"/><rect class="cls-11" x="62.01" y="2.21" width="2.21" height="2.21"/><polygon class="cls-11" points="53.15 17.72 53.15 15.5 53.15 13.29 50.94 13.29 48.72 13.29 48.72 15.5 48.72 17.72 50.94 17.72 53.15 17.72"/><polygon class="cls-11" points="42.08 24.36 44.29 24.36 46.51 24.36 48.72 24.36 48.72 26.57 50.94 26.57 50.94 24.36 53.15 24.36 53.15 26.57 55.36 26.57 55.36 24.36 57.58 24.36 59.79 24.36 62.01 24.36 64.22 24.36 66.44 24.36 68.65 24.36 70.87 24.36 70.87 22.15 68.65 22.15 66.44 22.15 66.44 19.93 66.44 17.72 66.44 15.5 66.44 13.29 66.44 11.07 66.44 8.86 66.44 6.64 66.44 4.43 64.22 4.43 64.22 6.64 64.22 8.86 64.22 11.07 64.22 13.29 62.01 13.29 59.79 13.29 57.58 13.29 55.36 13.29 55.36 15.5 55.36 17.72 57.58 17.72 59.79 17.72 62.01 17.72 64.22 17.72 64.22 19.93 64.22 22.15 62.01 22.15 59.79 22.15 57.58 22.15 55.36 22.15 53.15 22.15 50.94 22.15 48.72 22.15 46.51 22.15 44.29 22.15 42.08 22.15 42.08 19.93 42.08 17.72 44.29 17.72 46.51 17.72 46.51 15.5 46.51 13.29 44.29 13.29 42.08 13.29 42.08 11.07 42.08 8.86 42.08 6.64 42.08 4.43 39.86 4.43 39.86 6.64 39.86 8.86 39.86 11.07 39.86 13.29 39.86 15.5 39.86 17.72 39.86 19.93 39.86 22.15 37.65 22.15 37.65 24.36 39.86 24.36 42.08 24.36"/><polygon class="cls-11" points="37.65 24.36 35.43 24.36 35.43 26.57 35.43 28.79 37.65 28.79 37.65 26.57 37.65 24.36"/><rect class="cls-11" x="59.79" y="26.57" width="2.21" height="2.21"/><polygon class="cls-11" points="70.87 28.79 73.08 28.79 73.08 26.57 73.08 24.36 70.87 24.36 70.87 26.57 70.87 28.79"/><polygon class="cls-11" points="53.15 28.79 53.15 26.57 50.94 26.57 50.94 28.79 50.94 31 53.15 31 53.15 28.79"/><rect class="cls-11" x="35.43" y="31" width="2.21" height="2.21"/><rect class="cls-11" x="48.72" y="31" width="2.21" height="2.21"/><rect class="cls-11" x="53.15" y="31" width="2.21" height="2.21"/><polygon class="cls-11" points="66.44 31 68.65 31 70.87 31 70.87 28.79 68.65 28.79 66.44 28.79 64.22 28.79 62.01 28.79 62.01 31 62.01 33.22 59.79 33.22 57.58 33.22 55.36 33.22 55.36 35.43 57.58 35.43 59.79 35.43 59.79 37.65 59.79 39.86 59.79 42.08 57.58 42.08 55.36 42.08 53.15 42.08 53.15 39.86 50.94 39.86 50.94 42.08 48.72 42.08 46.51 42.08 46.51 44.29 48.72 44.29 50.94 44.29 53.15 44.29 55.36 44.29 57.58 44.29 59.79 44.29 59.79 46.51 59.79 48.72 59.79 50.94 62.01 50.94 62.01 48.72 62.01 46.51 62.01 44.29 62.01 42.08 62.01 39.86 62.01 37.65 62.01 35.43 64.22 35.43 66.44 35.43 66.44 33.22 66.44 31"/><polygon class="cls-11" points="50.94 35.43 50.94 37.65 53.15 37.65 53.15 35.43 53.15 33.22 50.94 33.22 50.94 35.43"/><polygon class="cls-11" points="70.87 35.43 73.08 35.43 73.08 33.22 73.08 31 70.87 31 70.87 33.22 70.87 35.43"/><rect class="cls-11" x="66.44" y="35.43" width="2.21" height="2.21"/><polygon class="cls-11" points="73.08 35.43 73.08 37.65 73.08 39.86 70.87 39.86 70.87 37.65 68.65 37.65 68.65 39.86 68.65 42.08 70.87 42.08 73.08 42.08 73.08 44.29 73.08 46.51 70.87 46.51 68.65 46.51 68.65 48.72 70.87 48.72 73.08 48.72 75.3 48.72 75.3 46.51 75.3 44.29 75.3 42.08 75.3 39.86 75.3 37.65 75.3 35.43 73.08 35.43"/><rect class="cls-11" x="37.65" y="37.65" width="2.21" height="2.21"/><polygon class="cls-11" points="46.51 37.65 46.51 35.43 48.72 35.43 48.72 33.22 46.51 33.22 44.29 33.22 44.29 31 44.29 28.79 44.29 26.57 42.08 26.57 42.08 28.79 39.86 28.79 37.65 28.79 37.65 31 39.86 31 42.08 31 42.08 33.22 42.08 35.43 39.86 35.43 39.86 37.65 42.08 37.65 44.29 37.65 44.29 39.86 44.29 42.08 46.51 42.08 46.51 39.86 46.51 37.65"/><polygon class="cls-11" points="33.22 39.86 33.22 37.65 35.43 37.65 35.43 35.43 35.43 33.22 33.22 33.22 33.22 35.43 31 35.43 28.79 35.43 26.57 35.43 26.57 37.65 28.79 37.65 31 37.65 31 39.86 31 42.08 28.79 42.08 28.79 39.86 26.57 39.86 26.57 42.08 26.57 44.29 28.79 44.29 31 44.29 33.22 44.29 35.43 44.29 35.43 42.08 33.22 42.08 33.22 39.86"/><rect class="cls-11" x="35.43" y="39.86" width="2.21" height="2.21"/><polygon class="cls-11" points="68.65 42.08 66.44 42.08 66.44 44.29 66.44 46.51 68.65 46.51 68.65 44.29 68.65 42.08"/><polygon class="cls-11" points="46.51 46.51 46.51 44.29 44.29 44.29 44.29 46.51 44.29 48.72 46.51 48.72 46.51 46.51"/><rect class="cls-11" x="42.08" y="48.72" width="2.21" height="2.21"/><path class="cls-11" d="M57.58,53.15H55.36V48.72H50.94v4.43H46.51V50.93H44.29v8.86h15.5V50.93H57.58ZM46.51,57.58V55.36h2.21v2.22Zm11.07,0H55.36V55.36h2.22Z"/></g></g></svg>