<svg xmlns="http://www.w3.org/2000/svg" viewBox="0 0 42.08 26.57"><defs><style>.cls-1{fill:#fff;}.cls-2{fill:#c61618;}.cls-3{fill:#6e9fc5;}.cls-4{fill:#40ab35;}.cls-5{fill:#db3341;}.cls-6{fill:#1d71b8;}.cls-7{fill:#ffed00;}.cls-8{fill:#f9b136;}.cls-9{fill:#c28331;}.cls-10{fill:#1d1d1b;}.cls-11{fill:#2fac66;}</style></defs><title>crown</title><g id="Calque_2" data-name="Calque 2"><g id="Calque_1-2" data-name="Calque 1"><rect class="cls-1" x="19.93" y="4.43" width="2.21" height="2.21" transform="translate(15.5 26.57) rotate(-90)"/><rect class="cls-1" x="2.21" y="15.5" width="2.21" height="2.21" transform="translate(-13.29 19.93) rotate(-90)"/><rect class="cls-1" x="13.29" y="15.5" width="2.21" height="2.21" transform="translate(-2.21 31) rotate(-90)"/><rect class="cls-1" x="22.15" y="15.5" width="2.21" height="2.21" transform="translate(6.64 39.86) rotate(-90)"/><rect class="cls-1" x="28.79" y="15.5" width="2.21" height="2.21" transform="translate(13.29 46.51) rotate(-90)"/><rect class="cls-1" x="37.65" y="15.5" width="2.21" height="2.21" transform="translate(22.15 55.36) rotate(-90)"/><rect class="cls-2" x="11.07" y="17.72" width="2.21" height="2.21" transform="translate(-6.64 31) rotate(-90)"/><polygon class="cls-3" points="22.15 17.72 22.15 15.5 22.15 13.29 19.93 13.29 19.93 15.5 17.72 15.5 17.72 17.72 19.93 17.72 19.93 19.93 22.15 19.93 24.36 19.93 24.36 17.72 22.15 17.72"/><rect class="cls-4" x="26.57" y="17.72" width="2.21" height="2.21" transform="translate(8.86 46.51) rotate(-90)"/><rect class="cls-5" x="11.07" y="15.5" width="2.21" height="2.21"/><rect class="cls-5" x="13.29" y="17.72" width="2.21" height="2.21"/><rect class="cls-5" x="37.65" y="17.72" width="2.21" height="2.21"/><rect class="cls-6" x="17.72" y="17.72" width="2.21" height="2.21"/><rect class="cls-6" x="19.93" y="19.93" width="2.21" height="2.21"/><rect class="cls-7" x="19.93" y="2.21" width="2.21" height="2.21"/><polygon class="cls-7" points="4.43 6.64 2.21 6.64 2.21 8.86 2.21 11.07 2.21 13.29 4.43 13.29 6.64 13.29 6.64 11.07 6.64 8.86 4.43 8.86 4.43 6.64"/><polygon class="cls-7" points="37.65 6.64 37.65 8.86 35.43 8.86 35.43 11.07 33.22 11.07 31 11.07 28.79 11.07 26.57 11.07 24.36 11.07 24.36 13.29 26.57 13.29 28.79 13.29 31 13.29 33.22 13.29 35.43 13.29 37.65 13.29 39.86 13.29 39.86 11.07 39.86 8.86 39.86 6.64 37.65 6.64"/><rect class="cls-7" x="17.72" y="8.86" width="2.21" height="2.21"/><rect class="cls-7" x="22.15" y="8.86" width="2.21" height="2.21"/><rect class="cls-7" x="8.86" y="11.07" width="2.21" height="2.21"/><polygon class="cls-7" points="13.29 11.07 13.29 13.29 15.5 13.29 17.72 13.29 17.72 11.07 15.5 11.07 13.29 11.07"/><rect class="cls-7" x="17.72" y="22.15" width="2.21" height="2.21"/><rect class="cls-7" x="22.15" y="22.15" width="2.21" height="2.21"/><rect class="cls-8" x="17.72" y="4.43" width="2.21" height="2.21"/><rect class="cls-8" x="22.15" y="4.43" width="2.21" height="2.21"/><polygon class="cls-8" points="13.29 13.29 13.29 11.07 11.07 11.07 11.07 13.29 8.86 13.29 8.86 11.07 6.64 11.07 6.64 13.29 4.43 13.29 2.21 13.29 2.21 15.5 4.43 15.5 6.64 15.5 8.86 15.5 11.07 15.5 13.29 15.5 15.5 15.5 17.72 15.5 17.72 13.29 15.5 13.29 13.29 13.29"/><polygon class="cls-8" points="37.65 13.29 35.43 13.29 33.22 13.29 31 13.29 28.79 13.29 26.57 13.29 24.36 13.29 24.36 15.5 26.57 15.5 28.79 15.5 31 15.5 33.22 15.5 35.43 15.5 37.65 15.5 39.86 15.5 39.86 13.29 37.65 13.29"/><polygon class="cls-8" points="22.15 11.07 22.15 8.86 22.15 6.64 19.93 6.64 19.93 8.86 19.93 11.07 17.72 11.07 17.72 13.29 19.93 13.29 22.15 13.29 24.36 13.29 24.36 11.07 22.15 11.07"/><polygon class="cls-8" points="13.29 19.93 11.07 19.93 8.86 19.93 6.64 19.93 4.43 19.93 2.21 19.93 2.21 22.15 4.43 22.15 4.43 24.36 6.64 24.36 6.64 22.15 8.86 22.15 11.07 22.15 13.29 22.15 13.29 24.36 15.5 24.36 17.72 24.36 17.72 22.15 17.72 19.93 15.5 19.93 13.29 19.93"/><polygon class="cls-8" points="35.43 19.93 33.22 19.93 31 19.93 28.79 19.93 26.57 19.93 24.36 19.93 24.36 22.15 24.36 24.36 26.57 24.36 28.79 24.36 28.79 22.15 31 22.15 33.22 22.15 35.43 22.15 35.43 24.36 37.65 24.36 37.65 22.15 39.86 22.15 39.86 19.93 37.65 19.93 35.43 19.93"/><polygon class="cls-9" points="15.5 8.86 13.29 8.86 13.29 6.64 11.07 6.64 11.07 8.86 8.86 8.86 8.86 11.07 11.07 11.07 13.29 11.07 15.5 11.07 15.5 8.86"/><polygon class="cls-9" points="31 11.07 33.22 11.07 33.22 8.86 31 8.86 31 6.64 28.79 6.64 28.79 8.86 26.57 8.86 26.57 11.07 28.79 11.07 31 11.07"/><rect class="cls-9" x="17.72" y="13.29" width="2.21" height="2.21"/><rect class="cls-9" x="22.15" y="13.29" width="2.21" height="2.21"/><polygon class="cls-9" points="17.72 15.5 15.5 15.5 15.5 17.72 15.5 19.93 17.72 19.93 17.72 17.72 17.72 15.5"/><polygon class="cls-9" points="24.36 17.72 24.36 19.93 26.57 19.93 26.57 17.72 26.57 15.5 24.36 15.5 24.36 17.72"/><polygon class="cls-9" points="8.86 19.93 11.07 19.93 11.07 17.72 11.07 15.5 8.86 15.5 6.64 15.5 4.43 15.5 4.43 17.72 4.43 19.93 6.64 19.93 8.86 19.93"/><polygon class="cls-9" points="37.65 17.72 37.65 15.5 35.43 15.5 33.22 15.5 31 15.5 31 17.72 31 19.93 33.22 19.93 35.43 19.93 37.65 19.93 37.65 17.72"/><rect class="cls-9" x="17.72" y="19.93" width="2.21" height="2.21"/><rect class="cls-9" x="22.15" y="19.93" width="2.21" height="2.21"/><rect class="cls-9" x="2.21" y="22.15" width="2.21" height="2.21"/><polygon class="cls-9" points="8.86 22.15 6.64 22.15 6.64 24.36 8.86 24.36 11.07 24.36 13.29 24.36 13.29 22.15 11.07 22.15 8.86 22.15"/><rect class="cls-9" x="19.93" y="22.15" width="2.21" height="2.21"/><polygon class="cls-9" points="31 22.15 28.79 22.15 28.79 24.36 31 24.36 33.22 24.36 35.43 24.36 35.43 22.15 33.22 22.15 31 22.15"/><rect class="cls-9" x="37.65" y="22.15" width="2.21" height="2.21"/><rect class="cls-10" x="19.93" width="2.21" height="2.21"/><rect class="cls-10" x="17.72" y="2.21" width="2.21" height="2.21"/><rect class="cls-10" x="22.15" y="2.21" width="2.21" height="2.21"/><polygon class="cls-10" points="39.86 4.43 37.65 4.43 37.65 6.64 39.86 6.64 39.86 8.86 39.86 11.07 39.86 13.29 39.86 15.5 39.86 17.72 39.86 19.93 39.86 22.15 39.86 24.36 37.65 24.36 35.43 24.36 33.22 24.36 31 24.36 28.79 24.36 26.57 24.36 24.36 24.36 22.15 24.36 19.93 24.36 17.72 24.36 15.5 24.36 13.29 24.36 11.07 24.36 8.86 24.36 6.64 24.36 4.43 24.36 2.21 24.36 2.21 22.15 2.21 19.93 2.21 17.72 2.21 15.5 2.21 13.29 2.21 11.07 2.21 8.86 2.21 6.64 4.43 6.64 4.43 4.43 2.21 4.43 0 4.43 0 6.64 0 8.86 0 11.07 0 13.29 0 15.5 0 17.72 0 19.93 0 22.15 0 24.36 0 26.57 2.21 26.57 4.43 26.57 6.64 26.57 8.86 26.57 11.07 26.57 13.29 26.57 15.5 26.57 17.72 26.57 19.93 26.57 22.15 26.57 24.36 26.57 26.57 26.57 28.79 26.57 31 26.57 33.22 26.57 35.43 26.57 37.65 26.57 39.86 26.57 42.08 26.57 42.08 24.36 42.08 22.15 42.08 19.93 42.08 17.72 42.08 15.5 42.08 13.29 42.08 11.07 42.08 8.86 42.08 6.64 42.08 4.43 39.86 4.43"/><polygon class="cls-10" points="6.64 8.86 6.64 11.07 8.86 11.07 8.86 8.86 11.07 8.86 11.07 6.64 13.29 6.64 13.29 4.43 11.07 4.43 8.86 4.43 8.86 6.64 6.64 6.64 4.43 6.64 4.43 8.86 6.64 8.86"/><polygon class="cls-10" points="15.5 8.86 15.5 11.07 17.72 11.07 17.72 8.86 19.93 8.86 19.93 6.64 17.72 6.64 17.72 4.43 15.5 4.43 15.5 6.64 13.29 6.64 13.29 8.86 15.5 8.86"/><polygon class="cls-10" points="22.15 6.64 22.15 8.86 24.36 8.86 24.36 11.07 26.57 11.07 26.57 8.86 28.79 8.86 28.79 6.64 26.57 6.64 26.57 4.43 24.36 4.43 24.36 6.64 22.15 6.64"/><polygon class="cls-10" points="31 8.86 33.22 8.86 33.22 11.07 35.43 11.07 35.43 8.86 37.65 8.86 37.65 6.64 35.43 6.64 33.22 6.64 33.22 4.43 31 4.43 28.79 4.43 28.79 6.64 31 6.64 31 8.86"/><rect class="cls-11" x="26.57" y="15.5" width="2.21" height="2.21"/><rect class="cls-11" x="2.21" y="17.72" width="2.21" height="2.21"/><rect class="cls-11" x="28.79" y="17.72" width="2.21" height="2.21"/></g></g></svg>