<svg xmlns="http://www.w3.org/2000/svg" viewBox="0 0 555 334"><defs><style>.cls-1{fill:#b98042;}.cls-2{fill:none;}.cls-3{fill:#f8ad4d;}.cls-4{fill:#ffef2a;}</style></defs><title>ladder</title><g id="Calque_2" data-name="Calque 2"><g id="Calque_1-2" data-name="Calque 1"><polygon points="499.11 253.99 383.58 253.99 383.58 254 383.58 254 268.06 254 268.05 254 268.05 253.99 152.53 253.99 152.53 254 37 254 37 334 268.06 334 383.58 334 498.43 334 498.43 334 499.11 334 499.11 253.99"/><polygon points="481.11 239.07 370.08 239.07 370.08 239.07 370.08 239.07 259.06 239.07 259.05 239.07 259.05 239.07 148.03 239.07 148.03 239.07 37 239.07 37 319.08 259.06 319.08 370.08 319.08 480.45 319.08 480.45 319.08 481.11 319.08 481.11 239.07"/><polygon points="444.11 57.69 333.08 57.69 333.08 57.7 333.08 57.7 222.06 57.7 222.05 57.7 222.05 57.69 111.03 57.69 111.03 57.7 0 57.7 0 296.76 222.06 296.76 333.08 296.76 443.45 296.76 443.45 296.76 444.11 296.76 444.11 57.69"/><polygon class="cls-1" points="129.11 279.19 110.59 279.19 110.59 279.2 110.59 279.2 92.08 279.2 92.08 279.2 92.08 279.19 73.56 279.19 73.56 279.2 55.04 279.2 55.04 319.08 92.08 319.08 110.59 319.08 129 319.08 129 319.08 129.11 319.08 129.11 279.19"/><rect class="cls-2" x="36.52" y="239.31" width="18.52"/><rect class="cls-2" x="414.9" y="86.67" height="39.88"/><rect class="cls-2" x="166.14" y="279.2" width="18.52"/><rect class="cls-2" x="388.35" y="279.2" width="18.52"/><rect class="cls-2" x="73.56" y="239.31" width="18.52"/><rect class="cls-2" x="129.11" y="279.2" width="18.52"/><rect class="cls-2" x="110.59" y="239.31" width="18.52"/><rect class="cls-2" x="184.66" y="199.43" height="39.88"/><rect class="cls-2" x="184.66" y="239.31" width="18.52"/><rect class="cls-2" x="147.63" y="239.31" width="18.52"/><rect class="cls-2" x="414.9" y="86.67" width="18.52"/><rect class="cls-2" x="433.42" y="22.56" height="18.52"/><rect class="cls-2" x="414.9" y="126.55" width="18.52"/><rect class="cls-2" x="451.93" y="22.56" height="18.52"/><rect class="cls-2" x="451.93" y="41.08" width="18.52"/><rect class="cls-2" x="451.93" y="22.56" width="18.52"/><rect class="cls-2" x="203.18" y="199.43" width="18.52"/><rect class="cls-2" x="470.45" y="22.56" height="18.52"/><rect class="cls-2" x="396.38" y="246.2" width="18.52"/><rect class="cls-2" x="258.73" y="159.55" width="18.52"/><rect class="cls-2" x="295.76" y="159.55" width="18.52"/><rect class="cls-2" x="332.8" y="159.55" width="18.52"/><rect class="cls-2" x="351.31" y="199.43" width="18.52"/><polygon class="cls-2" points="221.69 199.43 221.69 159.55 240.21 159.55 240.21 159.55 221.69 159.55 221.69 199.43 221.69 199.43"/><rect class="cls-2" x="388.35" y="119.67" height="39.88"/><rect class="cls-2" x="369.83" y="119.67" width="18.52"/><rect class="cls-2" x="369.83" y="159.55" width="18.52"/><rect class="cls-2" x="351.31" y="159.55" height="39.88"/><rect class="cls-2" x="277.25" y="159.55" height="39.88"/><rect class="cls-2" x="258.73" y="159.55" height="39.88"/><rect class="cls-2" x="240.21" y="199.43" width="18.52"/><rect class="cls-2" x="332.8" y="159.55" height="39.88"/><rect class="cls-2" x="240.21" y="159.55" height="39.88"/><rect class="cls-2" x="314.28" y="199.43" width="18.52"/><rect class="cls-2" x="314.28" y="159.55" height="39.88"/><rect class="cls-2" x="277.25" y="199.43" width="18.52"/><rect class="cls-2" x="295.76" y="159.55" height="39.88"/><rect class="cls-2" x="488.97" y="41.08" width="18.52"/><rect class="cls-2" x="377.86" y="206.31" width="18.52"/><rect class="cls-2" x="396.38" y="166.43" height="39.88"/><rect class="cls-2" x="396.38" y="166.43" width="18.52"/><rect class="cls-2" x="414.9" y="166.43" height="39.88"/><rect class="cls-2" x="369.83" y="239.31" width="18.52"/><rect class="cls-2" x="388.35" y="199.43" height="39.88"/><rect class="cls-2" x="377.86" y="86.67" width="18.52"/><rect class="cls-2" x="488.97" y="22.56" height="18.52"/><rect class="cls-2" x="351.31" y="239.31" height="39.88"/><polygon class="cls-2" points="507.48 22.56 507.48 22.56 488.97 22.56 488.97 22.56 507.48 22.56 507.48 22.56"/><rect class="cls-2" x="470.45" y="59.59" width="18.52"/><rect class="cls-2" x="433.42" y="59.59" width="18.52"/><rect class="cls-2" x="388.35" y="199.43" width="18.52"/><rect class="cls-2" x="203.18" y="279.2" width="18.52"/><rect class="cls-2" x="240.21" y="279.2" width="18.52"/><rect class="cls-2" x="277.25" y="279.2" width="18.52"/><rect class="cls-2" x="221.69" y="239.31" width="18.52"/><rect class="cls-2" x="221.69" y="239.31" height="39.88"/><rect class="cls-2" x="377.86" y="126.55" width="18.52"/><rect class="cls-2" x="314.28" y="279.2" width="18.52"/><rect class="cls-2" x="396.38" y="86.67" height="39.88"/><rect class="cls-2" x="351.31" y="279.2" width="18.52"/><rect class="cls-2" x="295.76" y="239.31" width="18.52"/><rect class="cls-2" x="314.28" y="239.31" height="39.88"/><rect class="cls-2" x="332.8" y="239.31" width="18.52"/><rect class="cls-2" x="295.76" y="239.31" height="39.88"/><rect class="cls-2" x="332.8" y="239.31" height="39.88"/><rect class="cls-2" x="240.21" y="239.31" height="39.88"/><rect class="cls-2" x="258.73" y="239.31" height="39.88"/><rect class="cls-2" x="258.73" y="239.31" width="18.52"/><rect class="cls-2" x="277.25" y="239.31" height="39.88"/><rect class="cls-3" x="396.38" y="246.2" width="18.52" height="39.88"/><rect class="cls-3" x="129.11" y="279.2" width="18.52" height="39.88"/><rect class="cls-3" x="166.14" y="279.2" width="18.52" height="39.88"/><rect class="cls-3" x="414.9" y="86.67" width="18.52" height="39.88"/><rect class="cls-3" x="451.93" y="22.56" width="18.52" height="18.52"/><rect class="cls-3" x="73.56" y="199.43" width="18.52" height="39.88"/><rect class="cls-3" x="110.59" y="199.43" width="18.52" height="39.88"/><polygon class="cls-4" points="536.48 39.9 536.48 39.91 518 39.91 518 0 55 0 55 39.91 36.52 39.91 36.52 39.9 18.01 39.9 18.01 40.92 18 40.92 18 107.69 18 120.61 18 200.3 185 200.3 185 159.55 203.18 159.55 203.18 159.55 221.69 159.55 221.69 120.61 370 120.61 370 79.79 388.35 79.79 388.35 79.69 388.35 79.69 388.35 79.79 406.86 79.79 406.86 79.79 425.38 79.79 425.38 79.69 425.38 79.69 425.38 79.79 443.9 79.79 443.9 79.69 443.9 79.69 443.9 79.79 462.42 79.79 462.42 79.69 462.42 79.69 462.42 79.79 480.93 79.79 480.93 79.69 480.93 79.69 480.93 79.79 499.45 79.79 499.45 79.69 499.45 79.69 499.45 79.79 517.97 79.79 517.97 79.69 517.97 79.69 517.97 79.79 536.48 79.79 536.48 79.79 555 79.79 555 39.9 536.48 39.9"/><polygon class="cls-3" points="555 119.67 555 79.79 536.48 79.79 536.48 79.79 517.97 79.79 517.97 79.79 499.45 79.79 499.45 79.79 480.93 79.79 480.93 79.79 462.42 79.79 462.42 79.79 443.9 79.79 443.9 79.79 425.38 79.79 425.38 79.79 406.86 79.79 406.86 79.79 388.35 79.79 388.35 79.79 369.83 79.79 369.83 119.67 370 119.67 370 119.67 369.83 119.67 369.83 119.67 351.31 119.67 351.31 119.67 332.8 119.67 332.8 119.67 314.28 119.67 314.28 119.67 295.76 119.67 295.76 119.67 277.25 119.67 277.25 119.67 258.73 119.67 258.73 119.67 240.21 119.67 240.21 119.67 221.69 119.67 221.69 159.38 185 159.38 185 159.55 184.66 159.55 184.66 199.43 184.66 199.43 184.66 200.3 184.66 200.3 184.66 199.43 166.14 199.43 166.14 200.3 166.14 200.3 166.14 199.43 147.63 199.43 147.63 200.3 147.63 200.3 147.63 199.43 134 199.43 129.11 199.43 110.59 199.43 92.08 199.43 71 199.43 69.82 199.43 60.08 199.43 55.04 199.43 55.04 200.3 55.04 200.3 55.04 199.43 36.52 199.43 36.52 199.43 18.01 199.43 18.01 200.3 18 200.3 18 279.99 129 279.99 129 318.76 147.63 318.76 147.63 319.08 166.14 319.08 166.14 318.76 184.66 318.76 184.66 319.08 203.18 319.08 203.18 319.08 221.69 319.08 221.69 319.08 240.21 319.08 240.21 319.08 258.73 319.08 258.73 319.08 277.25 319.08 277.25 319.08 295.76 319.08 295.76 319.08 314.28 319.08 314.28 319.08 332.8 319.08 332.8 319.08 351.31 319.08 351.31 319.08 369.83 319.08 369.83 319.08 388.35 319.08 388.35 318.76 388.35 318.76 388.35 319.08 406.86 319.08 406.86 319.08 425.38 319.08 425.38 318.76 443.9 318.76 443.9 319.08 462.42 319.08 462.42 318.76 462.42 318.76 462.42 319.08 480.93 319.08 480.93 318.76 480.93 318.76 480.93 319.08 499.45 319.08 499.45 318.76 499.45 318.76 499.45 319.08 517.97 319.08 517.97 318.76 518 318.76 518 279.99 555 279.99 555 239.31 555 199.43 555 159.55 555 140 555 119.67 555 119.67"/></g></g></svg>