<svg xmlns="http://www.w3.org/2000/svg" viewBox="0 0 555 167.15"><defs><style>.cls-1{fill:#b98042;}.cls-2{fill:none;}.cls-3{fill:#f8ad4d;}.cls-4{fill:#ffef2a;}</style></defs><title>score</title><g id="Calque_2" data-name="Calque 2"><g id="Calque_1-2" data-name="Calque 1"><polygon points="499.11 130 383.58 130 383.58 130 383.58 130 268.06 130 268.05 130 268.05 130 152.53 130 152.53 130 37 130 37 167.15 268.06 167.15 383.58 167.15 498.43 167.15 498.43 167.15 499.11 167.15 499.11 130"/><polygon points="481.11 111 370.08 111 370.08 111 370.08 111 259.06 111 259.05 111 259.05 111 148.03 111 148.03 111 37 111 37 148.15 259.06 148.15 370.08 148.15 480.45 148.15 480.45 148.15 481.11 148.15 481.11 111"/><polygon points="444.11 37 333.08 37 333.08 37 333.08 37 222.06 37 222.05 37 222.05 37 111.03 37 111.03 37 0 37 0 148 222.06 148 333.08 148 443.45 148 443.45 148 444.11 148 444.11 37"/><polygon class="cls-1" points="129.11 129.63 110.59 129.63 110.59 129.63 110.59 129.63 92.08 129.63 92.08 129.63 92.08 129.63 73.56 129.63 73.56 129.63 55.04 129.63 55.04 148.15 92.08 148.15 110.59 148.15 129 148.15 129 148.15 129.11 148.15 129.11 129.63"/><rect class="cls-2" x="36.52" y="111.11" width="18.52"/><rect class="cls-2" x="443.9" y="55.56" height="18.52"/><rect class="cls-2" x="166.14" y="129.63" width="18.52"/><rect class="cls-2" x="388.35" y="129.63" width="18.52"/><rect class="cls-2" x="73.56" y="111.11" width="18.52"/><rect class="cls-2" x="129.11" y="129.63" width="18.52"/><rect class="cls-2" x="110.59" y="111.11" width="18.52"/><rect class="cls-2" x="184.66" y="92.6" height="18.52"/><rect class="cls-2" x="184.66" y="111.11" width="18.52"/><rect class="cls-2" x="147.63" y="111.11" width="18.52"/><rect class="cls-2" x="443.9" y="55.56" width="18.52"/><rect class="cls-2" x="462.42" y="55.56" height="18.52"/><rect class="cls-2" x="443.9" y="74.08" width="18.52"/><rect class="cls-2" x="480.93" y="55.56" height="18.52"/><rect class="cls-2" x="480.93" y="74.08" width="18.52"/><rect class="cls-2" x="480.93" y="55.56" width="18.52"/><rect class="cls-2" x="203.18" y="92.59" width="18.52"/><rect class="cls-2" x="499.45" y="55.56" height="18.52"/><rect class="cls-2" x="425.38" y="129.63" width="18.52"/><rect class="cls-2" x="258.73" y="74.08" width="18.52"/><rect class="cls-2" x="295.76" y="74.08" width="18.52"/><rect class="cls-2" x="332.8" y="74.08" width="18.52"/><rect class="cls-2" x="351.31" y="92.59" width="18.52"/><polygon class="cls-2" points="221.69 92.59 221.69 74.08 240.21 74.08 240.21 74.08 221.69 74.08 221.69 92.59 221.69 92.59"/><rect class="cls-2" x="388.35" y="55.56" height="18.52"/><rect class="cls-2" x="369.83" y="55.56" width="18.52"/><rect class="cls-2" x="369.83" y="74.08" width="18.52"/><rect class="cls-2" x="351.31" y="74.08" height="18.52"/><rect class="cls-2" x="277.25" y="74.08" height="18.52"/><rect class="cls-2" x="258.73" y="74.08" height="18.52"/><rect class="cls-2" x="240.21" y="92.59" width="18.52"/><rect class="cls-2" x="332.8" y="74.08" height="18.52"/><rect class="cls-2" x="240.21" y="74.08" height="18.52"/><rect class="cls-2" x="314.28" y="92.59" width="18.52"/><rect class="cls-2" x="314.28" y="74.08" height="18.52"/><rect class="cls-2" x="277.25" y="92.59" width="18.52"/><rect class="cls-2" x="295.76" y="74.08" height="18.52"/><rect class="cls-2" x="517.97" y="74.08" width="18.52"/><rect class="cls-2" x="406.86" y="111.11" width="18.52"/><rect class="cls-2" x="425.38" y="92.6" height="18.52"/><rect class="cls-2" x="425.38" y="92.59" width="18.52"/><rect class="cls-2" x="443.9" y="92.6" height="18.52"/><rect class="cls-2" x="369.83" y="111.11" width="18.52"/><rect class="cls-2" x="388.35" y="92.6" height="18.52"/><rect class="cls-2" x="406.86" y="55.56" width="18.52"/><rect class="cls-2" x="517.97" y="55.56" height="18.52"/><rect class="cls-2" x="351.31" y="111.11" height="18.52"/><polygon class="cls-2" points="536.48 55.56 536.48 55.56 517.97 55.56 517.97 55.56 536.48 55.56 536.48 55.56"/><rect class="cls-2" x="499.45" y="92.59" width="18.52"/><rect class="cls-2" x="462.42" y="92.59" width="18.52"/><rect class="cls-2" x="388.35" y="92.59" width="18.52"/><rect class="cls-2" x="203.18" y="129.63" width="18.52"/><rect class="cls-2" x="240.21" y="129.63" width="18.52"/><rect class="cls-2" x="277.25" y="129.63" width="18.52"/><rect class="cls-2" x="221.69" y="111.11" width="18.52"/><rect class="cls-2" x="221.69" y="111.11" height="18.52"/><rect class="cls-2" x="406.86" y="74.08" width="18.52"/><rect class="cls-2" x="314.28" y="129.63" width="18.52"/><rect class="cls-2" x="425.38" y="55.56" height="18.52"/><rect class="cls-2" x="351.31" y="129.63" width="18.52"/><rect class="cls-2" x="295.76" y="111.11" width="18.52"/><rect class="cls-2" x="314.28" y="111.11" height="18.52"/><rect class="cls-2" x="332.8" y="111.11" width="18.52"/><rect class="cls-2" x="295.76" y="111.11" height="18.52"/><rect class="cls-2" x="332.8" y="111.11" height="18.52"/><rect class="cls-2" x="240.21" y="111.11" height="18.52"/><rect class="cls-2" x="258.73" y="111.11" height="18.52"/><rect class="cls-2" x="258.73" y="111.11" width="18.52"/><rect class="cls-2" x="277.25" y="111.11" height="18.52"/><rect class="cls-3" x="425.38" y="129.63" width="18.52" height="18.52"/><rect class="cls-3" x="129.11" y="129.63" width="18.52" height="18.52"/><rect class="cls-3" x="166.14" y="129.63" width="18.52" height="18.52"/><rect class="cls-3" x="443.9" y="55.56" width="18.52" height="18.52"/><rect class="cls-3" x="480.93" y="55.56" width="18.52" height="18.52"/><rect class="cls-3" x="73.56" y="92.59" width="18.52" height="18.52"/><rect class="cls-3" x="110.59" y="92.59" width="18.52" height="18.52"/><polygon class="cls-4" points="536.48 18.53 536.48 18.53 518 18.53 518 0 55 0 55 18.53 36.52 18.53 36.52 18.53 18.01 18.53 18.01 19 18 19 18 50 18 56 18 93 185 93 185 74.08 203.18 74.08 203.18 74.08 221.69 74.08 221.69 56 370 56 370 37.04 388.35 37.04 388.35 37 388.35 37 388.35 37.04 406.86 37.04 406.86 37.04 425.38 37.04 425.38 37 425.38 37 425.38 37.04 443.9 37.04 443.9 37 443.9 37 443.9 37.04 462.42 37.04 462.42 37 462.42 37 462.42 37.04 480.93 37.04 480.93 37 480.93 37 480.93 37.04 499.45 37.04 499.45 37 499.45 37 499.45 37.04 517.97 37.04 517.97 37 517.97 37 517.97 37.04 536.48 37.04 536.48 37.04 555 37.04 555 18.53 536.48 18.53"/><polygon class="cls-3" points="555 55.56 555 37.04 536.48 37.04 536.48 37.04 517.97 37.04 517.97 37.04 499.45 37.04 499.45 37.04 480.93 37.04 480.93 37.04 462.42 37.04 462.42 37.04 443.9 37.04 443.9 37.04 425.38 37.04 425.38 37.04 406.86 37.04 406.86 37.04 388.35 37.04 388.35 37.04 369.83 37.04 369.83 55.56 370 55.56 370 55.56 369.83 55.56 369.83 55.56 351.31 55.56 351.31 55.56 332.8 55.56 332.8 55.56 314.28 55.56 314.28 55.56 295.76 55.56 295.76 55.56 277.25 55.56 277.25 55.56 258.73 55.56 258.73 55.56 240.21 55.56 240.21 55.56 221.69 55.56 221.69 74 185 74 185 74.08 184.66 74.08 184.66 92.59 184.66 92.59 184.66 93 184.66 93 184.66 92.59 166.14 92.59 166.14 93 166.14 93 166.14 92.59 147.63 92.59 147.63 93 147.63 93 147.63 92.59 134 92.59 129.11 92.59 110.59 92.59 92.08 92.59 71 92.59 69.82 92.59 60.08 92.59 55.04 92.59 55.04 93 55.04 93 55.04 92.59 36.52 92.59 36.52 92.59 18.01 92.59 18.01 93 18 93 18 130 129 130 129 148 147.63 148 147.63 148.15 166.14 148.15 166.14 148 184.66 148 184.66 148.15 203.18 148.15 203.18 148.15 221.69 148.15 221.69 148.15 240.21 148.15 240.21 148.15 258.73 148.15 258.73 148.15 277.25 148.15 277.25 148.15 295.76 148.15 295.76 148.15 314.28 148.15 314.28 148.15 332.8 148.15 332.8 148.15 351.31 148.15 351.31 148.15 369.83 148.15 369.83 148.15 388.35 148.15 388.35 148 388.35 148 388.35 148.15 406.86 148.15 406.86 148.15 425.38 148.15 425.38 148 443.9 148 443.9 148.15 462.42 148.15 462.42 148 462.42 148 462.42 148.15 480.93 148.15 480.93 148 480.93 148 480.93 148.15 499.45 148.15 499.45 148 499.45 148 499.45 148.15 517.97 148.15 517.97 148 518 148 518 130 555 130 555 111.11 555 92.59 555 74.08 555 65 555 55.56 555 55.56"/></g></g></svg>