<svg xmlns="http://www.w3.org/2000/svg" viewBox="0 0 286 286"><defs><style>.cls-1{opacity:0.2;}</style></defs><title>button_attack</title><g id="Calque_2" data-name="Calque 2"><g id="Calque_1-2" data-name="Calque 1"><path class="cls-1" d="M143,0A143,143,0,1,0,286,143,143,143,0,0,0,143,0Zm33.44,154.17,11.11,11.11,11.11,11.11,11.12-11.11,11.11,11.11-11.11,11.12,11.11,11.11L232,209.73l-11.11,11.12L209.78,232l-11.12-11.11-11.11-11.12-11.11,11.12-11.12-11.12,11.12-11.11-11.12-11.11-11.11-11.12L143.1,165.28,132,176.39l-11.11,11.12-11.11,11.11,11.11,11.11-11.11,11.12L98.64,209.73,87.53,220.85,76.42,232,65.3,220.85,54.19,209.73,65.3,198.62l11.12-11.11L65.3,176.39l11.12-11.11,11.11,11.11,11.11-11.11,11.12-11.11,11.11-11.12-11.11-11.11L98.64,120.83,87.53,109.71,76.42,98.6,65.3,87.49,54.19,76.37,65.3,65.26,76.42,54.15,87.53,65.26,98.64,76.37h0l11.12,11.12L120.87,98.6,132,109.71l11.12,11.12,11.11-11.12L165.32,98.6l11.12-11.11,11.11-11.12h0l11.11-11.11,11.12-11.11,11.11,11.11L232,76.37,220.89,87.49,209.78,98.6l-11.12,11.11-11.11,11.12-11.11,11.11-11.12,11.11Z"/></g></g></svg>