<svg xmlns="http://www.w3.org/2000/svg" viewBox="0 0 214.47 166.67"><defs><style>.cls-1{fill:#b6b6b7;}.cls-2{fill:#cfd1d2;}.cls-3{fill:#fff;}.cls-4{fill:#231f20;}</style></defs><title>button_save</title><g id="Calque_2" data-name="Calque 2"><g id="Calque_1-2" data-name="Calque 1"><polygon points="187.47 144.17 187.47 93.67 63.47 93.67 63.47 88.5 63.47 60.92 63.47 33.33 0 33.33 0 60.92 0 88.5 0 116.08 0 143.67 13.4 143.67 55.47 143.67 55.47 166.67 187.47 166.67 187.47 166.33 187.66 166.33 187.66 144.17 187.47 144.17"/><polygon class="cls-1" points="201.06 66.5 187.66 66.5 187.66 88.67 174.25 88.67 165.36 88.67 160.85 88.67 147.44 88.67 134.04 88.67 93.83 88.67 87.36 88.67 80.42 88.67 67.02 88.67 67.02 110.83 53.62 110.83 40.21 110.83 26.81 110.83 13.4 110.83 13.4 133 26.81 133 40.21 133 53.62 133 67.02 133 67.02 155.17 80.42 155.17 93.83 155.17 107.23 155.17 120.64 155.17 134.04 155.17 147.44 155.17 160.85 155.17 174.25 155.17 187.66 155.17 201.06 155.17 201.06 133 214.47 133 214.47 110.83 214.47 88.67 214.47 66.5 201.06 66.5"/><polygon class="cls-2" points="201.06 22.17 187.66 22.17 174.25 22.17 174.25 0 160.85 0 147.44 0 134.04 0 120.64 0 107.23 0 93.83 0 80.42 0 67.02 0 53.62 0 40.21 0 26.81 0 26.81 22.17 13.4 22.17 13.4 44.33 13.4 66.33 13.4 66.5 13.4 81.67 13.46 81.67 13.46 111.67 38.38 111.67 38.38 110.83 40.21 110.83 40.31 110.83 53.62 110.83 67.02 110.83 67.02 88.67 80.42 88.67 80.71 88.67 93.83 88.67 147.44 88.67 160.85 88.67 167.78 88.67 174.25 88.67 187.66 88.67 187.66 66.5 201.06 66.5 214.47 66.5 214.47 44.33 214.47 22.17 201.06 22.17"/><polygon class="cls-3" points="128.64 32.35 120.07 32.35 120.07 32.35 111.51 32.35 111.51 41.58 120.07 41.58 120.07 50.81 128.64 50.81 128.64 41.58 128.64 41.58 128.64 32.35"/><rect class="cls-3" x="120.07" y="50.81" width="8.57" height="9.23"/><polygon class="cls-3" points="120.07 96.97 128.64 96.97 128.64 87.74 120.07 87.74 111.51 87.74 111.51 96.97 120.07 96.97 120.07 96.97"/><polygon class="cls-3" points="162.9 106.2 162.9 106.2 162.9 115.44 171.47 115.44 171.47 106.2 171.47 106.2 171.47 96.97 162.9 96.97 162.9 106.2"/><polygon class="cls-3" points="137.2 106.2 137.2 115.44 137.2 115.44 128.64 115.44 128.64 115.44 120.07 115.44 120.07 115.44 111.51 115.44 111.51 115.44 102.94 115.44 102.94 115.44 94.38 115.44 94.38 115.44 94.38 115.44 94.38 106.2 85.81 106.2 85.81 115.44 85.81 115.44 85.81 115.44 77.24 115.44 77.24 115.44 77.24 115.44 77.24 106.2 68.68 106.2 68.68 115.44 68.68 115.44 68.68 124.67 77.24 124.67 77.24 124.67 85.81 124.67 85.81 124.67 94.38 124.67 94.38 124.67 102.94 124.67 102.94 124.67 111.51 124.67 111.51 124.67 120.07 124.67 128.64 124.67 128.64 124.67 137.2 124.67 145.77 124.67 145.77 115.44 145.77 115.44 145.77 106.2 137.2 106.2"/><rect class="cls-3" x="162.9" y="115.43" width="8.57" height="9.23"/><rect class="cls-3" x="102.94" y="87.74" width="8.57" height="9.23"/><rect class="cls-3" x="68.68" y="69.28" width="8.57" height="9.23"/><rect class="cls-3" x="102.94" y="69.28" width="8.57" height="9.23"/><rect class="cls-3" x="85.81" y="32.35" width="8.57" height="9.23"/><rect class="cls-3" x="102.94" y="32.35" width="8.57" height="9.23"/><polygon class="cls-3" points="94.38 50.81 94.38 60.04 94.38 60.04 94.38 69.28 94.38 69.28 94.38 78.51 102.94 78.51 102.94 69.28 102.94 69.28 102.94 60.04 102.94 60.04 102.94 50.81 102.94 50.81 102.94 41.58 102.94 41.58 102.94 32.35 94.38 32.35 94.38 41.58 94.38 41.58 94.38 50.81 94.38 50.81"/><polygon class="cls-3" points="145.77 32.35 145.77 32.35 137.2 32.35 137.2 32.35 128.64 32.35 128.64 41.58 137.2 41.58 137.2 50.81 145.77 50.81 145.77 41.58 145.77 41.58 154.33 41.58 154.33 32.35 145.77 32.35"/><rect class="cls-3" x="154.33" y="41.58" width="8.57" height="9.23"/><polygon class="cls-3" points="162.9 50.81 162.9 60.04 162.9 60.04 162.9 69.28 162.9 69.28 162.9 78.51 162.9 78.51 162.9 87.74 162.9 87.74 162.9 96.97 171.47 96.97 171.47 87.74 171.47 78.51 171.47 78.51 171.47 69.28 171.47 69.28 171.47 60.04 171.47 50.81 162.9 50.81"/><polygon class="cls-3" points="145.77 60.04 145.77 60.04 145.77 50.81 137.2 50.81 137.2 60.04 137.2 69.28 145.77 69.28 145.77 60.04"/><polygon class="cls-3" points="128.64 69.28 128.64 78.51 137.2 78.51 137.2 78.51 145.77 78.51 145.77 69.28 137.2 69.28 137.2 69.28 128.64 69.28"/><rect class="cls-3" x="128.64" y="87.74" width="8.57" height="9.23"/><rect class="cls-3" x="137.2" y="96.97" width="8.57" height="9.23"/><polygon class="cls-3" points="154.33 115.44 145.77 115.44 145.77 124.67 154.33 124.67 162.9 124.67 162.9 115.44 154.33 115.44 154.33 115.44"/><rect class="cls-3" x="94.37" y="87.74" width="8.57" height="9.23"/><polygon class="cls-3" points="77.24 96.97 77.24 96.97 77.24 87.74 77.24 87.74 77.24 78.51 68.68 78.51 68.68 87.74 68.68 87.74 68.68 96.97 68.68 96.97 68.68 106.2 77.24 106.2 77.24 96.97"/><rect class="cls-3" x="85.81" y="96.97" width="8.57" height="9.23"/><polygon class="cls-3" points="120.07 78.51 128.64 78.51 128.64 69.28 120.07 69.28 120.07 69.28 111.51 69.28 111.51 78.51 120.07 78.51 120.07 78.51"/><polygon class="cls-3" points="77.24 60.04 77.24 60.04 77.24 50.81 68.68 50.81 68.68 60.04 68.68 60.04 68.68 69.28 77.24 69.28 77.24 60.04"/><rect class="cls-3" x="77.24" y="32.35" width="8.57" height="9.23"/><polygon class="cls-3" points="77.24 41.58 77.24 41.58 77.24 32.35 68.68 32.35 68.68 41.58 68.68 41.58 68.68 50.81 77.24 50.81 77.24 41.58"/><polygon class="cls-4" points="124.64 28.35 116.07 28.35 116.07 28.35 107.51 28.35 107.51 37.58 116.07 37.58 116.07 46.81 124.64 46.81 124.64 37.58 124.64 37.58 124.64 28.35"/><rect class="cls-4" x="116.07" y="46.81" width="8.57" height="9.23"/><polygon class="cls-4" points="116.07 92.97 124.64 92.97 124.64 83.74 116.07 83.74 107.51 83.74 107.51 92.97 116.07 92.97 116.07 92.97"/><polygon class="cls-4" points="158.9 102.2 158.9 102.2 158.9 111.44 167.47 111.44 167.47 102.2 167.47 102.2 167.47 92.97 158.9 92.97 158.9 102.2"/><polygon class="cls-4" points="133.2 102.2 133.2 111.44 133.2 111.44 124.64 111.44 124.64 111.44 116.07 111.44 116.07 111.44 107.51 111.44 107.51 111.44 98.94 111.44 98.94 111.44 90.38 111.44 90.38 111.44 90.38 111.44 90.38 102.2 81.81 102.2 81.81 111.44 81.81 111.44 81.81 111.44 73.24 111.44 73.24 111.44 73.24 111.44 73.24 102.2 64.68 102.2 64.68 111.44 64.68 111.44 64.68 120.67 73.24 120.67 73.24 120.67 81.81 120.67 81.81 120.67 90.38 120.67 90.38 120.67 98.94 120.67 98.94 120.67 107.51 120.67 107.51 120.67 116.07 120.67 124.64 120.67 124.64 120.67 133.2 120.67 141.77 120.67 141.77 111.44 141.77 111.44 141.77 102.2 133.2 102.2"/><rect class="cls-4" x="158.9" y="111.43" width="8.57" height="9.23"/><rect class="cls-4" x="98.94" y="83.74" width="8.57" height="9.23"/><rect class="cls-4" x="64.68" y="65.28" width="8.57" height="9.23"/><rect class="cls-4" x="98.94" y="65.28" width="8.57" height="9.23"/><rect class="cls-4" x="81.81" y="28.35" width="8.57" height="9.23"/><rect class="cls-4" x="98.94" y="28.35" width="8.57" height="9.23"/><polygon class="cls-4" points="90.38 46.81 90.38 56.04 90.38 56.04 90.38 65.28 90.38 65.28 90.38 74.51 98.94 74.51 98.94 65.28 98.94 65.28 98.94 56.04 98.94 56.04 98.94 46.81 98.94 46.81 98.94 37.58 98.94 37.58 98.94 28.35 90.38 28.35 90.38 37.58 90.38 37.58 90.38 46.81 90.38 46.81"/><polygon class="cls-4" points="141.77 28.35 141.77 28.35 133.2 28.35 133.2 28.35 124.64 28.35 124.64 37.58 133.2 37.58 133.2 46.81 141.77 46.81 141.77 37.58 141.77 37.58 150.33 37.58 150.33 28.35 141.77 28.35"/><rect class="cls-4" x="150.33" y="37.58" width="8.57" height="9.23"/><polygon class="cls-4" points="158.9 46.81 158.9 56.04 158.9 56.04 158.9 65.28 158.9 65.28 158.9 74.51 158.9 74.51 158.9 83.74 158.9 83.74 158.9 92.97 167.47 92.97 167.47 83.74 167.47 74.51 167.47 74.51 167.47 65.28 167.47 65.28 167.47 56.04 167.47 46.81 158.9 46.81"/><polygon class="cls-4" points="141.77 56.04 141.77 56.04 141.77 46.81 133.2 46.81 133.2 56.04 133.2 65.28 141.77 65.28 141.77 56.04"/><polygon class="cls-4" points="124.64 65.28 124.64 74.51 133.2 74.51 133.2 74.51 141.77 74.51 141.77 65.28 133.2 65.28 133.2 65.28 124.64 65.28"/><rect class="cls-4" x="124.64" y="83.74" width="8.57" height="9.23"/><rect class="cls-4" x="133.2" y="92.97" width="8.57" height="9.23"/><polygon class="cls-4" points="150.33 111.44 141.77 111.44 141.77 120.67 150.33 120.67 158.9 120.67 158.9 111.44 150.33 111.44 150.33 111.44"/><rect class="cls-4" x="90.37" y="83.74" width="8.57" height="9.23"/><polygon class="cls-4" points="73.24 92.97 73.24 92.97 73.24 83.74 73.24 83.74 73.24 74.51 64.68 74.51 64.68 83.74 64.68 83.74 64.68 92.97 64.68 92.97 64.68 102.2 73.24 102.2 73.24 92.97"/><rect class="cls-4" x="81.81" y="92.97" width="8.57" height="9.23"/><polygon class="cls-4" points="116.07 74.51 124.64 74.51 124.64 65.28 116.07 65.28 116.07 65.28 107.51 65.28 107.51 74.51 116.07 74.51 116.07 74.51"/><polygon class="cls-4" points="73.24 56.04 73.24 56.04 73.24 46.81 64.68 46.81 64.68 56.04 64.68 56.04 64.68 65.28 73.24 65.28 73.24 56.04"/><rect class="cls-4" x="73.24" y="28.35" width="8.57" height="9.23"/><polygon class="cls-4" points="73.24 37.58 73.24 37.58 73.24 28.35 64.68 28.35 64.68 37.58 64.68 37.58 64.68 46.81 73.24 46.81 73.24 37.58"/></g></g></svg>