<svg xmlns="http://www.w3.org/2000/svg" viewBox="0 0 214.47 166.67"><defs><style>.cls-1{fill:#fff;}.cls-2{fill:#b6b6b7;}.cls-3{fill:#cfd1d2;}.cls-4{fill:none;}.cls-5{fill:#32b375;}.cls-6{fill:#99999a;}.cls-7{fill:#d0d2d3;}</style></defs><title>button_settings</title><g id="Calque_2" data-name="Calque 2"><g id="Calque_1-2" data-name="Calque 1"><polygon points="187.47 144.17 187.47 93.67 63.47 93.67 63.47 88.5 63.47 60.92 63.47 33.33 0 33.33 0 60.92 0 88.5 0 116.08 0 143.67 13.4 143.67 55.47 143.67 55.47 166.67 187.47 166.67 187.47 166.33 187.66 166.33 187.66 144.17 187.47 144.17"/><polygon class="cls-1" points="187.66 0 174.25 0 174.25 22.17 187.66 22.17 201.06 22.17 201.06 0 187.66 0"/><polygon class="cls-2" points="201.06 66.5 187.66 66.5 187.66 88.67 174.25 88.67 165.36 88.67 160.85 88.67 147.44 88.67 134.04 88.67 93.83 88.67 87.36 88.67 80.42 88.67 67.02 88.67 67.02 110.83 53.62 110.83 40.21 110.83 26.81 110.83 13.4 110.83 13.4 133 26.81 133 40.21 133 53.62 133 67.02 133 67.02 155.17 80.42 155.17 93.83 155.17 107.23 155.17 120.64 155.17 134.04 155.17 147.44 155.17 160.85 155.17 174.25 155.17 187.66 155.17 201.06 155.17 201.06 133 214.47 133 214.47 110.83 214.47 88.67 214.47 66.5 201.06 66.5"/><polygon class="cls-3" points="201.06 22.17 187.66 22.17 174.25 22.17 174.25 0 160.85 0 147.44 0 134.04 0 120.64 0 107.23 0 93.83 0 80.42 0 67.02 0 53.62 0 40.21 0 26.81 0 26.81 22.17 13.4 22.17 13.4 44.33 13.4 66.33 13.4 66.5 13.4 81.67 13.46 81.67 13.46 111.67 38.38 111.67 38.38 110.83 40.21 110.83 40.31 110.83 53.62 110.83 67.02 110.83 67.02 88.67 80.42 88.67 80.71 88.67 93.83 88.67 147.44 88.67 160.85 88.67 167.78 88.67 174.25 88.67 187.66 88.67 187.66 66.5 201.06 66.5 214.47 66.5 214.47 44.33 214.47 22.17 201.06 22.17"/><rect x="103.4" y="86.55" width="4.13" height="4.13" transform="translate(16.85 194.09) rotate(-90)"/><rect x="111.66" y="86.55" width="4.13" height="4.13" transform="translate(25.11 202.35) rotate(-90)"/><rect x="119.92" y="86.55" width="4.13" height="4.13" transform="translate(33.37 210.6) rotate(-90)"/><rect x="107.53" y="90.68" width="4.13" height="4.13" transform="translate(16.85 202.35) rotate(-90)"/><rect x="115.79" y="90.68" width="4.13" height="4.13" transform="translate(25.11 210.6) rotate(-90)"/><rect x="103.4" y="78.3" width="4.13" height="4.13" transform="translate(25.11 185.83) rotate(-90)"/><rect x="111.66" y="78.3" width="4.13" height="4.13" transform="translate(33.37 194.09) rotate(-90)"/><rect x="119.92" y="78.3" width="4.13" height="4.13" transform="translate(41.62 202.35) rotate(-90)"/><rect x="99.28" y="82.43" width="4.13" height="4.13" transform="translate(16.85 185.83) rotate(-90)"/><rect x="107.53" y="82.43" width="4.13" height="4.13" transform="translate(25.11 194.09) rotate(-90)"/><rect x="115.79" y="82.43" width="4.13" height="4.13" transform="translate(33.37 202.35) rotate(-90)"/><rect x="124.05" y="82.43" width="4.13" height="4.13" transform="translate(41.62 210.6) rotate(-90)"/><rect x="111.66" y="70.04" width="4.13" height="4.13" transform="translate(41.62 185.83) rotate(-90)"/><rect x="119.92" y="70.04" width="4.13" height="4.13" transform="translate(49.88 194.09) rotate(-90)"/><rect x="99.28" y="74.17" width="4.13" height="4.13" transform="translate(25.11 177.57) rotate(-90)"/><rect x="107.53" y="74.17" width="4.13" height="4.13" transform="translate(33.37 185.83) rotate(-90)"/><rect x="115.79" y="74.17" width="4.13" height="4.13" transform="translate(41.62 194.09) rotate(-90)"/><rect x="124.05" y="74.17" width="4.13" height="4.13" transform="translate(49.88 202.35) rotate(-90)"/><rect x="107.53" y="65.91" width="4.13" height="4.13" transform="translate(41.62 177.57) rotate(-90)"/><rect x="115.79" y="65.91" width="4.13" height="4.13" transform="translate(49.88 185.83) rotate(-90)"/><rect x="107.53" y="86.55" width="4.13" height="4.13"/><rect x="115.79" y="86.55" width="4.13" height="4.13"/><rect x="111.66" y="90.68" width="4.13" height="4.13"/><rect x="99.28" y="78.3" width="4.13" height="4.13"/><rect x="107.53" y="78.3" width="4.13" height="4.13"/><rect x="115.79" y="78.3" width="4.13" height="4.13"/><rect x="124.05" y="78.3" width="4.13" height="4.13"/><rect x="103.4" y="82.43" width="4.13" height="4.13"/><rect x="111.66" y="82.43" width="4.13" height="4.13"/><rect x="119.92" y="82.43" width="4.13" height="4.13"/><rect x="107.53" y="70.04" width="4.13" height="4.13"/><rect x="115.79" y="70.04" width="4.13" height="4.13"/><rect x="103.4" y="74.17" width="4.13" height="4.13"/><rect x="111.66" y="74.17" width="4.13" height="4.13"/><rect x="119.92" y="74.17" width="4.13" height="4.13"/><rect x="111.66" y="65.91" width="4.13" height="4.13"/><polygon points="74.5 121.63 74.5 123.68 78.63 123.68 78.63 121.63 78.63 119.58 74.5 119.58 74.5 121.63"/><polygon points="82.76 121.63 82.76 123.68 86.89 123.68 86.89 121.63 86.89 119.58 82.76 119.58 82.76 121.63"/><rect x="152.95" y="45.27" width="4.13" height="4.13"/><rect x="152.95" y="70.04" width="4.13" height="4.13"/><rect x="70.37" y="86.55" width="4.13" height="4.13"/><rect x="152.95" y="86.55" width="4.13" height="4.13"/><rect x="99.28" y="90.68" width="4.13" height="4.13"/><polygon points="66.25 82.43 66.25 82.42 66.25 82.42 66.25 78.3 62.12 78.3 62.12 82.42 62.12 82.42 62.12 86.55 62.12 86.55 62.12 90.68 66.25 90.68 66.25 86.55 66.25 86.55 66.25 90.68 70.37 90.68 70.37 86.55 70.37 86.55 70.37 82.43 66.25 82.43"/><path d="M148.82,82.43h0V78.3h-4.13v4.13h-4.13V78.3h-4.13v4.13h-4.12V78.3h-4.13v4.13h0v4.12h0v4.13h-8.26v4.13H107.53V90.68H103.4v4.13H99.28V90.68h4.12V86.55H99.28V82.43h0V78.3h0V74.17h4.12V70h0V65.91H99.28V70h0V65.91h4.12V70h4.13V65.91h12.39V70h4.13v4.13h4.13V70h4.13v4.13h4.12V70h4.13V65.91h-8.25V61.78h-4.13v4.13h0V61.78h4.13V57.65h-4.13V53.52h12.38v4.13h0v4.13h0v4.13h4.13V61.78h0V57.65h0V53.52h0V49.4H128.18V45.27h-8.26V41.14h-4.13v4.13h-4.13V41.14h-4.13v4.13H95.15V49.4H91v4.12h0V49.4H82.76v4.12h0v4.13h0v4.13h0v4.13h0V61.78H78.63v4.13h0V70h4.13v4.13h0V70H78.63v4.13H74.5V78.3h0v4.13h4.13V78.3h4.13v4.13h0V78.3H78.63v4.13H74.5v4.12h4.13v4.13h0v4.13h0v4.13h4.13V94.81h0v4.13h0v4.13h0v4.13h0v4.13H91V107.2h0v4.13h8.26V107.2h4.12v4.13h4.13V107.2h4.13v4.13h4.13V107.2h4.13v4.13h0V107.2h-4.13v4.13h-4.13V107.2h-4.13v4.13H103.4V107.2H99.28v4.13H95.15v4.13h8.25v4.12h4.13v-4.12h0v4.12H103.4v8.26h0V132h4.13v-4.13h0V132h4.13v-4.13h0V132h4.13v-4.13h4.13V132h4.13v-4.13h0v-8.26h-4.13v-4.12h8.26v-4.13h16.51V107.2h-4.13v-4.13h-4.13v4.13h-4.12v-4.13h-4.13v4.13h0v-4.13h4.13v4.13h4.12v-4.13h4.13v4.13h4.13v-4.13h0V98.94h-4.13V94.81h4.13v4.13h4.13V94.81h0V90.68h0V86.55H153V82.43Zm-33,37.15h0v4.13h-4.13v-4.13h0v-4.12h0v4.12h4.13v-4.12h0Zm16.52-33h0v4.13h4.12V86.55h0v4.13h-4.12Zm-4.13,8.26h0v4.13h0V94.81h0Zm-33-33h4.13V57.65h0v4.13H95.15Zm20.64-4.13v4.13h-4.13V57.65h4.13Zm-8.26,0v4.13H103.4V57.65h4.13Zm16.52,0h-4.13v4.13h0V57.65h4.13Zm0-8.25h-4.13v4.12h0V49.4h4.13Zm-8.26,0h0v4.12h-4.13V49.4h4.13Zm-8.26,0h0v4.12H103.4V49.4h4.13Zm-8.25,4.12V49.4h0v4.12ZM86.89,61.78H91V57.65h0v4.13H86.89Zm0,8.26H91V65.91h0V70H86.89Zm0,8.26H91V74.17h0V78.3H86.89ZM91,82.43h0v4.12h0V82.43Zm-8.26,8.25h0V86.55h0v4.13h0Zm8.26,0h0v4.13h0Zm-4.13,12.39H91V98.94h0v4.13H86.89Zm33,0h0V98.94h-4.13v4.13h-4.13V98.94h-4.13v4.13H103.4V98.94H99.28v4.13h0V98.94h4.12v4.13h4.13V98.94h4.13v4.13h4.13V98.94h4.13v4.13h0Zm16.51-4.13h-4.12V94.81h4.12Zm8.26-8.26h-4.13V86.55h0v4.13h4.13V86.55h0Z"/><rect x="70.37" y="70.04" width="4.13" height="4.13"/><polygon points="148.82 78.3 148.82 78.3 148.82 82.42 152.95 82.42 152.95 78.3 152.95 78.3 152.95 74.17 148.82 74.17 148.82 74.17 148.82 74.17 148.82 70.04 144.69 70.04 144.69 74.17 144.69 74.17 144.69 78.3 148.82 78.3 148.82 78.3"/><rect x="128.18" y="53.52" width="4.13" height="4.13"/><rect x="136.43" y="53.52" width="4.13" height="4.13"/><rect x="70.37" y="45.27" width="4.13" height="4.13"/><rect x="78.63" y="45.27" width="4.13" height="4.13"/><rect x="128.18" y="45.27" width="4.13" height="4.13"/><rect x="144.69" y="45.27" width="4.13" height="4.13"/><rect x="103.4" y="37.01" width="4.13" height="4.13"/><rect x="119.92" y="37.01" width="4.13" height="4.13"/><polygon points="111.66 32.88 107.53 32.88 107.53 32.88 111.66 32.88 111.66 32.88 111.66 32.88 111.66 37.01 115.79 37.01 115.79 32.88 115.79 32.88 115.79 32.88 119.92 32.88 119.92 32.88 119.92 32.88 119.92 37.01 124.05 37.01 124.05 32.88 124.05 32.88 124.05 28.75 119.92 28.75 119.92 28.75 115.79 28.75 115.79 28.75 111.66 28.75 111.66 28.75 107.53 28.75 107.53 28.75 103.41 28.75 103.41 32.88 103.41 32.88 103.41 37.01 107.53 37.01 107.53 32.88 107.53 32.88 107.53 37.01 111.66 37.01 111.66 32.88"/><rect x="115.79" y="32.88" width="4.13" height="4.13"/><rect x="70.37" y="111.33" width="4.13" height="4.13"/><polygon points="78.63 115.46 78.63 115.46 78.63 111.33 78.63 111.33 78.63 107.2 74.5 107.2 74.5 111.33 74.5 111.33 74.5 115.46 74.5 115.46 74.5 119.58 78.63 119.58 78.63 119.58 82.76 119.58 82.76 119.58 86.89 119.58 86.89 115.46 82.76 115.46 82.76 115.46 82.76 111.33 78.63 111.33 78.63 115.46"/><rect x="128.18" y="111.33" width="4.13" height="4.13"/><rect x="152.95" y="111.33" width="4.13" height="4.13"/><rect x="78.63" y="119.58" width="4.13" height="4.13"/><rect x="144.69" y="119.58" width="4.13" height="4.13"/><rect x="157.08" y="70.04" width="4.13" height="4.13"/><polygon points="165.34 78.3 165.34 74.17 165.34 74.17 165.34 70.04 161.21 70.04 161.21 74.17 161.21 74.17 161.21 74.17 157.08 74.17 157.08 78.3 157.08 78.3 157.08 82.42 161.21 82.42 161.21 78.3 161.21 78.3 161.21 78.3 165.34 78.3"/><polygon points="161.21 82.42 161.21 82.43 157.08 82.43 157.08 86.55 157.08 86.55 157.08 90.68 161.21 90.68 161.21 86.55 161.21 86.55 161.21 90.68 165.34 90.68 165.34 86.55 165.34 86.55 165.34 82.43 165.34 82.43 165.34 78.3 161.21 78.3 161.21 82.42 161.21 82.42"/><rect x="124.05" y="86.55" width="4.13" height="4.13"/><polygon points="66.25 82.42 70.37 82.42 70.37 78.3 70.37 78.3 70.37 74.17 66.25 74.17 66.25 74.17 66.25 74.17 66.25 70.04 62.12 70.04 62.12 74.17 62.12 74.17 62.12 78.3 66.25 78.3 66.25 78.3 66.25 78.3 66.25 82.42"/><rect x="140.56" y="78.3" width="4.13" height="4.13"/><rect x="66.25" y="70.04" width="4.13" height="4.13"/><polygon points="136.44 74.17 136.44 74.17 132.31 74.17 132.31 74.17 132.31 74.17 132.31 70.04 128.18 70.04 128.18 74.17 128.18 74.17 128.18 78.3 132.31 78.3 132.31 78.3 132.31 78.3 132.31 82.42 136.44 82.42 136.44 78.3 136.44 78.3 136.44 78.3 140.56 78.3 140.56 74.17 140.56 74.17 140.56 70.04 136.44 70.04 136.44 74.17 136.44 74.17"/><rect x="132.31" y="61.78" width="4.13" height="4.13"/><polygon points="144.69 65.91 144.69 70.04 148.82 70.04 148.82 65.91 148.82 65.91 148.82 61.78 144.69 61.78 144.69 65.91 144.69 65.91"/><rect x="103.4" y="57.65" width="4.13" height="4.13"/><rect x="111.66" y="57.65" width="4.13" height="4.13"/><polygon points="78.63 45.27 78.63 45.27 78.63 45.27 82.76 45.27 82.76 45.27 86.89 45.27 86.89 41.14 82.76 41.14 82.76 41.14 82.76 37.01 78.63 37.01 78.63 41.14 78.63 41.14 74.5 41.14 74.5 45.27 74.5 45.27 74.5 49.4 74.5 49.4 74.5 53.52 78.63 53.52 78.63 49.4 78.63 49.4 78.63 45.27"/><rect x="103.4" y="49.4" width="4.13" height="4.13"/><rect x="111.66" y="49.4" width="4.13" height="4.13"/><rect x="111.66" y="41.14" width="4.13" height="4.13"/><polygon points="148.82 45.27 148.82 45.27 148.82 45.27 148.82 49.4 148.82 49.4 148.82 53.52 152.95 53.52 152.95 49.4 152.95 49.4 152.95 45.27 152.95 45.27 152.95 41.14 148.82 41.14 148.82 41.14 148.82 37.01 144.69 37.01 144.69 41.14 144.69 41.14 140.56 41.14 140.56 45.27 144.69 45.27 144.69 45.27 148.82 45.27"/><rect x="132.31" y="94.81" width="4.13" height="4.13"/><rect x="140.56" y="94.81" width="4.13" height="4.13"/><polygon points="144.69 115.46 140.56 115.46 140.56 119.58 144.69 119.58 144.69 119.58 148.82 119.58 148.82 119.58 152.95 119.58 152.95 115.46 152.95 115.46 152.95 111.33 152.95 111.33 152.95 107.2 148.82 107.2 148.82 111.33 148.82 111.33 148.82 115.46 148.82 115.46 148.82 111.33 144.69 111.33 144.69 115.46 144.69 115.46"/><rect x="115.79" y="127.84" width="4.13" height="4.13"/><polygon points="103.41 28.75 107.53 28.75 111.66 28.75 111.66 24.62 107.53 24.62 103.41 24.62 103.41 28.75 99.28 28.75 99.28 32.88 103.41 32.88 103.41 28.75"/><rect x="115.79" y="24.62" width="4.13" height="4.13"/><polygon points="165.34 78.3 165.34 78.3 165.34 82.42 169.47 82.42 169.47 78.3 169.47 78.3 169.47 74.17 165.34 74.17 165.34 78.3"/><polygon points="165.34 86.55 165.34 86.55 165.34 90.68 169.47 90.68 169.47 86.55 169.47 82.43 165.34 82.43 165.34 86.55"/><polygon points="78.63 94.81 78.63 90.68 74.5 90.68 74.5 90.68 70.37 90.68 70.37 90.68 66.25 90.68 66.25 90.68 62.12 90.68 62.12 94.81 66.25 94.81 66.25 94.81 70.37 94.81 70.37 94.81 74.5 94.81 74.5 94.81 78.63 94.81"/><polygon points="62.12 86.55 62.12 82.43 57.99 82.43 57.99 86.55 57.99 86.55 57.99 90.68 62.12 90.68 62.12 86.55 62.12 86.55"/><polygon points="103.41 74.16 99.28 74.16 99.28 78.29 103.41 78.29 103.41 74.17 107.53 74.17 107.53 70.04 103.41 70.04 103.41 74.16"/><polygon points="111.66 65.91 107.53 65.91 107.53 70.04 111.66 70.04 115.79 70.04 119.92 70.04 119.92 65.91 115.79 65.91 111.66 65.91"/><polygon points="119.92 70.04 119.92 74.17 124.05 74.17 124.05 78.3 124.05 82.42 128.18 82.42 128.18 78.3 128.18 74.17 124.05 74.17 124.05 70.04 119.92 70.04"/><polygon points="119.92 90.68 124.05 90.68 124.05 86.55 128.18 86.55 128.18 82.43 124.05 82.43 124.05 86.55 119.92 86.55 119.92 90.68"/><rect x="115.79" y="90.68" width="4.13" height="4.13"/><polygon points="115.79 90.68 111.66 90.68 111.66 90.68 107.53 90.68 107.53 94.81 111.66 94.81 111.66 94.81 115.79 94.81 115.79 90.68"/><rect x="103.4" y="86.55" width="4.13" height="4.13"/><polygon points="99.28 82.42 99.28 82.43 99.28 86.55 103.41 86.55 103.41 82.43 103.41 82.42 103.41 78.3 99.28 78.3 99.28 82.42"/><rect x="140.56" y="74.17" width="4.13" height="4.13"/><rect x="136.43" y="61.78" width="4.13" height="4.13"/><polygon points="66.25 70.04 70.37 70.04 70.37 70.04 74.5 70.04 74.5 70.04 74.5 70.04 74.5 74.17 78.63 74.17 78.63 70.04 78.63 70.04 78.63 65.91 74.5 65.91 74.5 65.91 70.37 65.91 70.37 65.91 66.25 65.91 66.25 65.91 62.12 65.91 62.12 70.04 66.25 70.04 66.25 70.04"/><polygon points="140.56 70.04 140.56 74.17 144.69 74.17 144.69 70.04 144.69 70.04 144.69 65.91 140.56 65.91 140.56 70.04 140.56 70.04"/><rect x="78.63" y="53.52" width="4.13" height="4.13"/><rect x="144.69" y="53.52" width="4.13" height="4.13"/><rect x="136.43" y="45.27" width="4.13" height="4.13"/><polygon points="148.82 103.07 144.69 103.07 144.69 107.2 144.69 107.2 144.69 111.33 148.82 111.33 148.82 107.2 148.82 107.2 148.82 103.07"/><polygon points="91.02 111.33 86.89 111.33 86.89 111.33 82.76 111.33 82.76 115.46 86.89 115.46 86.89 119.58 91.02 119.58 91.02 115.46 91.02 115.46 95.15 115.46 95.15 111.33 91.02 111.33"/><polygon points="140.56 111.33 136.44 111.33 136.44 115.46 136.44 115.46 136.44 119.58 140.56 119.58 140.56 115.46 140.56 115.46 140.56 111.33"/><polygon points="99.28 119.58 103.41 119.58 103.41 119.58 107.53 119.58 107.53 115.46 103.41 115.46 103.41 115.46 99.28 115.46 99.28 119.58"/><rect x="124.05" y="119.61" width="4.13" height="4.13"/><rect x="124.05" y="123.77" width="4.13" height="4.13"/><rect x="124.05" y="127.93" width="4.13" height="4.13"/><rect x="119.89" y="132.09" width="4.13" height="4.13"/><rect x="115.73" y="132.09" width="4.13" height="4.13"/><rect x="111.57" y="132.09" width="4.13" height="4.13"/><rect x="107.42" y="132.09" width="4.13" height="4.13"/><rect x="103.26" y="132.09" width="4.13" height="4.13"/><rect x="99.42" y="127.93" width="4.13" height="4.13"/><rect x="99.42" y="123.77" width="4.13" height="4.13"/><rect x="99.42" y="119.61" width="4.13" height="4.13"/><rect x="78.63" y="123.71" width="4.13" height="4.13"/><rect x="111.66" y="24.62" width="4.13" height="4.13"/><rect x="119.92" y="24.62" width="4.13" height="4.13"/><rect x="152.95" y="41.14" width="4.13" height="4.13"/><rect x="157.08" y="45.27" width="4.13" height="4.13"/><rect x="152.95" y="49.4" width="4.13" height="4.13"/><polygon points="161.21 65.91 161.21 65.91 157.08 65.91 157.08 65.91 152.95 65.91 152.95 65.91 148.82 65.91 148.82 70.04 148.82 70.04 148.82 74.17 152.95 74.17 152.95 70.04 152.95 70.04 152.95 70.04 157.08 70.04 157.08 70.04 161.21 70.04 161.21 70.04 165.34 70.04 165.34 65.91 161.21 65.91"/><rect x="165.34" y="70.04" width="4.13" height="4.13"/><rect x="152.95" y="74.17" width="4.13" height="4.13"/><polygon points="157.08 82.42 157.08 82.42 157.08 78.3 152.95 78.3 152.95 82.42 152.95 82.42 152.95 86.55 157.08 86.55 157.08 82.42"/><rect x="74.5" y="86.55" width="4.13" height="4.13"/><rect x="148.82" y="86.55" width="4.13" height="4.13"/><polygon points="57.99 82.42 62.12 82.42 62.12 78.3 62.12 78.3 62.12 74.17 57.99 74.17 57.99 78.3 57.99 78.3 57.99 82.42"/><polygon points="74.5 82.42 74.5 78.3 70.37 78.3 70.37 82.42 70.37 82.42 70.37 86.55 74.5 86.55 74.5 82.42 74.5 82.42"/><rect x="57.99" y="70.04" width="4.13" height="4.13"/><rect x="70.37" y="74.17" width="4.13" height="4.13"/><rect x="74.5" y="61.78" width="4.13" height="4.13"/><rect x="148.82" y="61.78" width="4.13" height="4.13"/><rect x="74.5" y="53.52" width="4.13" height="4.13"/><polygon points="132.31 53.52 132.31 57.65 132.31 57.65 132.31 61.78 136.44 61.78 136.44 61.78 140.56 61.78 140.56 57.65 136.44 57.65 136.44 57.65 136.44 57.65 136.44 53.52 132.31 53.52"/><rect x="148.82" y="53.52" width="4.13" height="4.13"/><rect x="78.63" y="57.65" width="4.13" height="4.13"/><rect x="144.69" y="57.65" width="4.13" height="4.13"/><rect x="66.25" y="45.27" width="4.13" height="4.13"/><polygon points="82.76 49.4 86.89 49.4 86.89 49.4 91.02 49.4 95.15 49.4 95.15 45.27 91.02 45.27 86.89 45.27 86.89 45.27 82.76 45.27 82.76 49.4"/><rect x="132.31" y="45.27" width="4.13" height="4.13"/><rect x="140.56" y="45.27" width="4.13" height="4.13"/><rect x="70.37" y="49.4" width="4.13" height="4.13"/><rect x="78.63" y="49.4" width="4.13" height="4.13"/><rect x="144.69" y="49.4" width="4.13" height="4.13"/><rect x="74.5" y="37.01" width="4.13" height="4.13"/><rect x="82.76" y="37.01" width="4.13" height="4.13"/><polygon points="103.41 37.01 103.41 32.88 99.28 32.88 99.28 37.01 99.28 37.01 99.28 41.14 99.28 41.14 99.28 45.27 103.41 45.27 103.41 41.14 103.41 41.14 103.41 37.01 103.41 37.01"/><polygon points="115.79 37.01 115.79 37.01 111.66 37.01 111.66 37.01 107.53 37.01 107.53 41.14 111.66 41.14 111.66 41.14 115.79 41.14 115.79 41.14 119.92 41.14 119.92 37.01 115.79 37.01"/><rect x="140.56" y="37.01" width="4.13" height="4.13"/><rect x="148.82" y="37.01" width="4.13" height="4.13"/><rect x="70.37" y="41.14" width="4.13" height="4.13"/><rect x="86.89" y="41.14" width="4.13" height="4.13"/><rect x="95.15" y="41.14" width="4.13" height="4.13"/><rect x="103.4" y="41.14" width="4.13" height="4.13"/><polygon points="128.18 41.14 128.18 41.14 128.18 37.01 128.18 37.01 128.18 32.88 124.05 32.88 124.05 37.01 124.05 37.01 124.05 41.14 119.92 41.14 119.92 45.27 124.05 45.27 124.05 45.27 128.18 45.27 128.18 45.27 132.31 45.27 132.31 41.14 128.18 41.14"/><rect x="136.43" y="41.14" width="4.13" height="4.13"/><rect x="124.05" y="28.75" width="4.13" height="4.13"/><rect x="78.63" y="32.88" width="4.13" height="4.13"/><rect x="144.69" y="32.88" width="4.13" height="4.13"/><polygon points="161.21 90.68 157.08 90.68 157.08 90.68 152.95 90.68 152.95 90.68 148.82 90.68 148.82 94.81 152.95 94.81 152.95 94.81 157.08 94.81 157.08 94.81 161.21 94.81 161.21 94.81 165.34 94.81 165.34 90.68 161.21 90.68 161.21 90.68"/><rect x="74.5" y="94.81" width="4.13" height="4.13"/><rect x="148.82" y="94.81" width="4.13" height="4.13"/><rect x="78.63" y="98.94" width="4.13" height="4.13"/><rect x="144.69" y="98.94" width="4.13" height="4.13"/><rect x="74.5" y="103.07" width="4.13" height="4.13"/><rect x="148.82" y="103.07" width="4.13" height="4.13"/><rect x="70.37" y="107.2" width="4.13" height="4.13"/><polygon points="82.76 107.2 82.76 103.07 78.63 103.07 78.63 107.2 78.63 107.2 78.63 111.33 82.76 111.33 82.76 107.2 82.76 107.2"/><rect x="152.95" y="107.2" width="4.13" height="4.13"/><rect x="66.25" y="111.33" width="4.13" height="4.13"/><rect x="132.31" y="111.33" width="4.13" height="4.13"/><rect x="140.56" y="111.33" width="4.13" height="4.13"/><rect x="157.08" y="111.33" width="4.13" height="4.13"/><rect x="70.37" y="115.46" width="4.13" height="4.13"/><rect x="95.15" y="115.46" width="4.13" height="4.13"/><polygon points="128.18 115.46 124.05 115.46 119.92 115.46 119.92 119.58 124.05 119.58 124.05 119.58 128.18 119.58 128.18 119.58 132.31 119.58 132.31 115.46 128.18 115.46 128.18 115.46"/><rect x="152.95" y="115.46" width="4.13" height="4.13"/><rect x="148.82" y="119.58" width="4.13" height="4.13"/><rect x="115.79" y="119.58" width="4.13" height="4.13"/><polygon points="107.53 119.58 107.53 123.71 111.66 123.71 115.79 123.71 115.79 119.58 111.66 119.58 107.53 119.58"/><rect x="144.69" y="123.71" width="4.13" height="4.13"/><rect x="140.56" y="119.58" width="4.13" height="4.13"/><rect x="74.5" y="119.58" width="4.13" height="4.13"/><rect x="82.76" y="119.58" width="4.13" height="4.13"/><rect class="cls-4" x="100.4" y="83.55" width="4.13" height="4.13" transform="translate(16.85 188.09) rotate(-90)"/><rect class="cls-4" x="108.66" y="83.55" width="4.13" height="4.13" transform="translate(25.11 196.35) rotate(-90)"/><rect class="cls-4" x="116.92" y="83.55" width="4.13" height="4.13" transform="translate(33.37 204.6) rotate(-90)"/><rect class="cls-4" x="104.53" y="87.68" width="4.13" height="4.13" transform="translate(16.85 196.35) rotate(-90)"/><rect class="cls-4" x="112.79" y="87.68" width="4.13" height="4.13" transform="translate(25.11 204.6) rotate(-90)"/><rect class="cls-4" x="100.4" y="75.3" width="4.13" height="4.13" transform="translate(25.11 179.83) rotate(-90)"/><rect class="cls-4" x="108.66" y="75.3" width="4.13" height="4.13" transform="translate(33.37 188.09) rotate(-90)"/><rect class="cls-4" x="116.92" y="75.3" width="4.13" height="4.13" transform="translate(41.62 196.35) rotate(-90)"/><rect class="cls-4" x="96.28" y="79.43" width="4.13" height="4.13" transform="translate(16.85 179.83) rotate(-90)"/><rect class="cls-4" x="104.53" y="79.43" width="4.13" height="4.13" transform="translate(25.11 188.09) rotate(-90)"/><rect class="cls-4" x="112.79" y="79.43" width="4.13" height="4.13" transform="translate(33.37 196.35) rotate(-90)"/><rect class="cls-4" x="121.05" y="79.43" width="4.13" height="4.13" transform="translate(41.62 204.6) rotate(-90)"/><rect class="cls-4" x="108.66" y="67.04" width="4.13" height="4.13" transform="translate(41.62 179.83) rotate(-90)"/><rect class="cls-4" x="116.92" y="67.04" width="4.13" height="4.13" transform="translate(49.88 188.09) rotate(-90)"/><rect class="cls-4" x="96.28" y="71.17" width="4.13" height="4.13" transform="translate(25.11 171.57) rotate(-90)"/><rect class="cls-4" x="104.53" y="71.17" width="4.13" height="4.13" transform="translate(33.37 179.83) rotate(-90)"/><rect class="cls-4" x="112.79" y="71.17" width="4.13" height="4.13" transform="translate(41.62 188.09) rotate(-90)"/><rect class="cls-4" x="121.05" y="71.17" width="4.13" height="4.13" transform="translate(49.88 196.35) rotate(-90)"/><rect class="cls-4" x="104.53" y="62.91" width="4.13" height="4.13" transform="translate(41.62 171.57) rotate(-90)"/><rect class="cls-4" x="112.79" y="62.91" width="4.13" height="4.13" transform="translate(49.88 179.83) rotate(-90)"/><rect class="cls-4" x="104.53" y="83.55" width="4.13" height="4.13"/><rect class="cls-4" x="112.79" y="83.55" width="4.13" height="4.13"/><rect class="cls-4" x="108.66" y="87.68" width="4.13" height="4.13"/><rect class="cls-4" x="96.28" y="75.3" width="4.13" height="4.13"/><rect class="cls-4" x="104.53" y="75.3" width="4.13" height="4.13"/><rect class="cls-4" x="112.79" y="75.3" width="4.13" height="4.13"/><rect class="cls-4" x="121.05" y="75.3" width="4.13" height="4.13"/><rect class="cls-4" x="100.4" y="79.43" width="4.13" height="4.13"/><rect class="cls-4" x="108.66" y="79.43" width="4.13" height="4.13"/><rect class="cls-4" x="116.92" y="79.43" width="4.13" height="4.13"/><rect class="cls-4" x="104.53" y="67.04" width="4.13" height="4.13"/><rect class="cls-4" x="112.79" y="67.04" width="4.13" height="4.13"/><rect class="cls-4" x="100.4" y="71.17" width="4.13" height="4.13"/><rect class="cls-4" x="108.66" y="71.17" width="4.13" height="4.13"/><rect class="cls-4" x="116.92" y="71.17" width="4.13" height="4.13"/><rect class="cls-4" x="108.66" y="62.91" width="4.13" height="4.13"/><polygon class="cls-5" points="71.5 118.63 71.5 120.68 75.63 120.68 75.63 118.63 75.63 116.58 71.5 116.58 71.5 118.63"/><polygon class="cls-5" points="79.76 118.63 79.76 120.68 83.89 120.68 83.89 118.63 83.89 116.58 79.76 116.58 79.76 118.63"/><rect class="cls-6" x="149.95" y="42.27" width="4.13" height="4.13"/><rect class="cls-6" x="149.95" y="67.04" width="4.13" height="4.13"/><rect class="cls-6" x="67.37" y="83.55" width="4.13" height="4.13"/><rect class="cls-6" x="149.95" y="83.55" width="4.13" height="4.13"/><rect class="cls-6" x="96.28" y="87.68" width="4.13" height="4.13"/><polygon class="cls-6" points="63.25 79.43 63.25 79.42 63.25 79.42 63.25 75.3 59.12 75.3 59.12 79.42 59.12 79.42 59.12 83.55 59.12 83.55 59.12 87.68 63.25 87.68 63.25 83.55 63.25 83.55 63.25 87.68 67.37 87.68 67.37 83.55 67.37 83.55 67.37 79.43 63.25 79.43"/><path class="cls-6" d="M145.82,79.43h0V75.3h-4.13v4.13h-4.13V75.3h-4.13v4.13h-4.12V75.3h-4.13v4.13h0v4.12h0v4.13h-8.26v4.13H104.53V87.68H100.4v4.13H96.28V87.68h4.12V83.55H96.28V79.43h0V75.3h0V71.17h4.12V67h0V62.91H96.28V67h0V62.91h4.12V67h4.13V62.91h12.39V67h4.13v4.13h4.13V67h4.13v4.13h4.12V67h4.13V62.91h-8.25V58.78h-4.13v4.13h0V58.78h4.13V54.65h-4.13V50.52h12.38v4.13h0v4.13h0v4.13h4.13V58.78h0V54.65h0V50.52h0V46.4H125.18V42.27h-8.26V38.14h-4.13v4.13h-4.13V38.14h-4.13v4.13H92.15V46.4H88v4.12h0V46.4H79.76v4.12h0v4.13h0v4.13h0v4.13h0V58.78H75.63v4.13h0V67h4.13v4.13h0V67H75.63v4.13H71.5V75.3h0v4.13h4.13V75.3h4.13v4.13h0V75.3H75.63v4.13H71.5v4.12h4.13v4.13h0v4.13h0v4.13h4.13V91.81h0v4.13h0v4.13h0v4.13h0v4.13H88V104.2h0v4.13h8.26V104.2h4.12v4.13h4.13V104.2h4.13v4.13h4.13V104.2h4.13v4.13h0V104.2h-4.13v4.13h-4.13V104.2h-4.13v4.13H100.4V104.2H96.28v4.13H92.15v4.13h8.25v4.12h4.13v-4.12h0v4.12H100.4v8.26h0V129h4.13v-4.13h0V129h4.13v-4.13h0V129h4.13v-4.13h4.13V129h4.13v-4.13h0v-8.26h-4.13v-4.12h8.26v-4.13h16.51V104.2h-4.13v-4.13h-4.13v4.13h-4.12v-4.13h-4.13v4.13h0v-4.13h4.13v4.13h4.12v-4.13h4.13v4.13h4.13v-4.13h0V95.94h-4.13V91.81h4.13v4.13h4.13V91.81h0V87.68h0V83.55H150V79.43Zm-33,37.15h0v4.13h-4.13v-4.13h0v-4.12h0v4.12h4.13v-4.12h0Zm16.52-33h0v4.13h4.12V83.55h0v4.13h-4.12Zm-4.13,8.26h0v4.13h0V91.81h0Zm-33-33h4.13V54.65h0v4.13H92.15Zm20.64-4.13v4.13h-4.13V54.65h4.13Zm-8.26,0v4.13H100.4V54.65h4.13Zm16.52,0h-4.13v4.13h0V54.65h4.13Zm0-8.25h-4.13v4.12h0V46.4h4.13Zm-8.26,0h0v4.12h-4.13V46.4h4.13Zm-8.26,0h0v4.12H100.4V46.4h4.13Zm-8.25,4.12V46.4h0v4.12ZM83.89,58.78H88V54.65h0v4.13H83.89Zm0,8.26H88V62.91h0V67H83.89Zm0,8.26H88V71.17h0V75.3H83.89ZM88,79.43h0v4.12h0V79.43Zm-8.26,8.25h0V83.55h0v4.13h0Zm8.26,0h0v4.13h0Zm-4.13,12.39H88V95.94h0v4.13H83.89Zm33,0h0V95.94h-4.13v4.13h-4.13V95.94h-4.13v4.13H100.4V95.94H96.28v4.13h0V95.94h4.12v4.13h4.13V95.94h4.13v4.13h4.13V95.94h4.13v4.13h0Zm16.51-4.13h-4.12V91.81h4.12Zm8.26-8.26h-4.13V83.55h0v4.13h4.13V83.55h0Z"/><rect class="cls-6" x="67.37" y="67.04" width="4.13" height="4.13"/><polygon class="cls-6" points="145.82 75.3 145.82 75.3 145.82 79.42 149.95 79.42 149.95 75.3 149.95 75.3 149.95 71.17 145.82 71.17 145.82 71.17 145.82 71.17 145.82 67.04 141.69 67.04 141.69 71.17 141.69 71.17 141.69 75.3 145.82 75.3 145.82 75.3"/><rect class="cls-6" x="125.18" y="50.52" width="4.13" height="4.13"/><rect class="cls-6" x="133.43" y="50.52" width="4.13" height="4.13"/><rect class="cls-6" x="67.37" y="42.27" width="4.13" height="4.13"/><rect class="cls-6" x="75.63" y="42.27" width="4.13" height="4.13"/><rect class="cls-6" x="125.18" y="42.27" width="4.13" height="4.13"/><rect class="cls-6" x="141.69" y="42.27" width="4.13" height="4.13"/><rect class="cls-6" x="100.4" y="34.01" width="4.13" height="4.13"/><rect class="cls-6" x="116.92" y="34.01" width="4.13" height="4.13"/><polygon class="cls-6" points="108.66 29.88 104.53 29.88 104.53 29.88 108.66 29.88 108.66 29.88 108.66 29.88 108.66 34.01 112.79 34.01 112.79 29.88 112.79 29.88 112.79 29.88 116.92 29.88 116.92 29.88 116.92 29.88 116.92 34.01 121.05 34.01 121.05 29.88 121.05 29.88 121.05 25.75 116.92 25.75 116.92 25.75 112.79 25.75 112.79 25.75 108.66 25.75 108.66 25.75 104.53 25.75 104.53 25.75 100.41 25.75 100.41 29.88 100.41 29.88 100.41 34.01 104.53 34.01 104.53 29.88 104.53 29.88 104.53 34.01 108.66 34.01 108.66 29.88"/><rect class="cls-6" x="112.79" y="29.88" width="4.13" height="4.13"/><rect class="cls-6" x="67.37" y="108.33" width="4.13" height="4.13"/><polygon class="cls-6" points="75.63 112.46 75.63 112.46 75.63 108.33 75.63 108.33 75.63 104.2 71.5 104.2 71.5 108.33 71.5 108.33 71.5 112.46 71.5 112.46 71.5 116.58 75.63 116.58 75.63 116.58 79.76 116.58 79.76 116.58 83.89 116.58 83.89 112.46 79.76 112.46 79.76 112.46 79.76 108.33 75.63 108.33 75.63 112.46"/><rect class="cls-6" x="125.18" y="108.33" width="4.13" height="4.13"/><rect class="cls-6" x="149.95" y="108.33" width="4.13" height="4.13"/><rect class="cls-6" x="75.63" y="116.58" width="4.13" height="4.13"/><rect class="cls-6" x="141.69" y="116.58" width="4.13" height="4.13"/><rect class="cls-6" x="154.08" y="67.04" width="4.13" height="4.13"/><polygon class="cls-6" points="162.34 75.3 162.34 71.17 162.34 71.17 162.34 67.04 158.21 67.04 158.21 71.17 158.21 71.17 158.21 71.17 154.08 71.17 154.08 75.3 154.08 75.3 154.08 79.42 158.21 79.42 158.21 75.3 158.21 75.3 158.21 75.3 162.34 75.3"/><polygon class="cls-6" points="158.21 79.42 158.21 79.43 154.08 79.43 154.08 83.55 154.08 83.55 154.08 87.68 158.21 87.68 158.21 83.55 158.21 83.55 158.21 87.68 162.34 87.68 162.34 83.55 162.34 83.55 162.34 79.43 162.34 79.43 162.34 75.3 158.21 75.3 158.21 79.42 158.21 79.42"/><rect class="cls-6" x="121.05" y="83.55" width="4.13" height="4.13"/><polygon class="cls-6" points="63.25 79.42 67.37 79.42 67.37 75.3 67.37 75.3 67.37 71.17 63.25 71.17 63.25 71.17 63.25 71.17 63.25 67.04 59.12 67.04 59.12 71.17 59.12 71.17 59.12 75.3 63.25 75.3 63.25 75.3 63.25 75.3 63.25 79.42"/><rect class="cls-6" x="137.56" y="75.3" width="4.13" height="4.13"/><rect class="cls-6" x="63.25" y="67.04" width="4.13" height="4.13"/><polygon class="cls-6" points="133.44 71.17 133.44 71.17 129.31 71.17 129.31 71.17 129.31 71.17 129.31 67.04 125.18 67.04 125.18 71.17 125.18 71.17 125.18 75.3 129.31 75.3 129.31 75.3 129.31 75.3 129.31 79.42 133.44 79.42 133.44 75.3 133.44 75.3 133.44 75.3 137.56 75.3 137.56 71.17 137.56 71.17 137.56 67.04 133.44 67.04 133.44 71.17 133.44 71.17"/><rect class="cls-6" x="129.31" y="58.78" width="4.13" height="4.13"/><polygon class="cls-6" points="141.69 62.91 141.69 67.04 145.82 67.04 145.82 62.91 145.82 62.91 145.82 58.78 141.69 58.78 141.69 62.91 141.69 62.91"/><rect class="cls-6" x="100.4" y="54.65" width="4.13" height="4.13"/><rect class="cls-6" x="108.66" y="54.65" width="4.13" height="4.13"/><polygon class="cls-6" points="75.63 42.27 75.63 42.27 75.63 42.27 79.76 42.27 79.76 42.27 83.89 42.27 83.89 38.14 79.76 38.14 79.76 38.14 79.76 34.01 75.63 34.01 75.63 38.14 75.63 38.14 71.5 38.14 71.5 42.27 71.5 42.27 71.5 46.4 71.5 46.4 71.5 50.52 75.63 50.52 75.63 46.4 75.63 46.4 75.63 42.27"/><rect class="cls-6" x="100.4" y="46.4" width="4.13" height="4.13"/><rect class="cls-6" x="108.66" y="46.4" width="4.13" height="4.13"/><rect class="cls-6" x="108.66" y="38.14" width="4.13" height="4.13"/><polygon class="cls-6" points="145.82 42.27 145.82 42.27 145.82 42.27 145.82 46.4 145.82 46.4 145.82 50.52 149.95 50.52 149.95 46.4 149.95 46.4 149.95 42.27 149.95 42.27 149.95 38.14 145.82 38.14 145.82 38.14 145.82 34.01 141.69 34.01 141.69 38.14 141.69 38.14 137.56 38.14 137.56 42.27 141.69 42.27 141.69 42.27 145.82 42.27"/><rect class="cls-6" x="129.31" y="91.81" width="4.13" height="4.13"/><rect class="cls-6" x="137.56" y="91.81" width="4.13" height="4.13"/><polygon class="cls-6" points="141.69 112.46 137.56 112.46 137.56 116.58 141.69 116.58 141.69 116.58 145.82 116.58 145.82 116.58 149.95 116.58 149.95 112.46 149.95 112.46 149.95 108.33 149.95 108.33 149.95 104.2 145.82 104.2 145.82 108.33 145.82 108.33 145.82 112.46 145.82 112.46 145.82 108.33 141.69 108.33 141.69 112.46 141.69 112.46"/><rect class="cls-6" x="112.79" y="124.84" width="4.13" height="4.13"/><polygon class="cls-7" points="100.41 25.75 104.53 25.75 108.66 25.75 108.66 21.62 104.53 21.62 100.41 21.62 100.41 25.75 96.28 25.75 96.28 29.88 100.41 29.88 100.41 25.75"/><rect class="cls-7" x="112.79" y="21.62" width="4.13" height="4.13"/><polygon class="cls-7" points="162.34 75.3 162.34 75.3 162.34 79.42 166.47 79.42 166.47 75.3 166.47 75.3 166.47 71.17 162.34 71.17 162.34 75.3"/><polygon class="cls-7" points="162.34 83.55 162.34 83.55 162.34 87.68 166.47 87.68 166.47 83.55 166.47 79.43 162.34 79.43 162.34 83.55"/><polygon class="cls-7" points="75.63 91.81 75.63 87.68 71.5 87.68 71.5 87.68 67.37 87.68 67.37 87.68 63.25 87.68 63.25 87.68 59.12 87.68 59.12 91.81 63.25 91.81 63.25 91.81 67.37 91.81 67.37 91.81 71.5 91.81 71.5 91.81 75.63 91.81"/><polygon class="cls-7" points="59.12 83.55 59.12 79.43 54.99 79.43 54.99 83.55 54.99 83.55 54.99 87.68 59.12 87.68 59.12 83.55 59.12 83.55"/><polygon class="cls-7" points="100.41 71.16 96.28 71.16 96.28 75.29 100.41 75.29 100.41 71.17 104.53 71.17 104.53 67.04 100.41 67.04 100.41 71.16"/><polygon class="cls-7" points="108.66 62.91 104.53 62.91 104.53 67.04 108.66 67.04 112.79 67.04 116.92 67.04 116.92 62.91 112.79 62.91 108.66 62.91"/><polygon class="cls-7" points="116.92 67.04 116.92 71.17 121.05 71.17 121.05 75.3 121.05 79.42 125.18 79.42 125.18 75.3 125.18 71.17 121.05 71.17 121.05 67.04 116.92 67.04"/><polygon class="cls-7" points="116.92 87.68 121.05 87.68 121.05 83.55 125.18 83.55 125.18 79.43 121.05 79.43 121.05 83.55 116.92 83.55 116.92 87.68"/><rect class="cls-7" x="112.79" y="87.68" width="4.13" height="4.13"/><polygon class="cls-7" points="112.79 87.68 108.66 87.68 108.66 87.68 104.53 87.68 104.53 91.81 108.66 91.81 108.66 91.81 112.79 91.81 112.79 87.68"/><rect class="cls-7" x="100.4" y="83.55" width="4.13" height="4.13"/><polygon class="cls-7" points="96.28 79.42 96.28 79.43 96.28 83.55 100.41 83.55 100.41 79.43 100.41 79.42 100.41 75.3 96.28 75.3 96.28 79.42"/><rect class="cls-7" x="137.56" y="71.17" width="4.13" height="4.13"/><rect class="cls-7" x="133.43" y="58.78" width="4.13" height="4.13"/><polygon class="cls-7" points="63.25 67.04 67.37 67.04 67.37 67.04 71.5 67.04 71.5 67.04 71.5 67.04 71.5 71.17 75.63 71.17 75.63 67.04 75.63 67.04 75.63 62.91 71.5 62.91 71.5 62.91 67.37 62.91 67.37 62.91 63.25 62.91 63.25 62.91 59.12 62.91 59.12 67.04 63.25 67.04 63.25 67.04"/><polygon class="cls-7" points="137.56 67.04 137.56 71.17 141.69 71.17 141.69 67.04 141.69 67.04 141.69 62.91 137.56 62.91 137.56 67.04 137.56 67.04"/><rect class="cls-7" x="75.63" y="50.52" width="4.13" height="4.13"/><rect class="cls-7" x="141.69" y="50.52" width="4.13" height="4.13"/><rect class="cls-7" x="133.43" y="42.27" width="4.13" height="4.13"/><polygon class="cls-7" points="145.82 100.07 141.69 100.07 141.69 104.2 141.69 104.2 141.69 108.33 145.82 108.33 145.82 104.2 145.82 104.2 145.82 100.07"/><polygon class="cls-7" points="88.02 108.33 83.89 108.33 83.89 108.33 79.76 108.33 79.76 112.46 83.89 112.46 83.89 116.58 88.02 116.58 88.02 112.46 88.02 112.46 92.15 112.46 92.15 108.33 88.02 108.33"/><polygon class="cls-7" points="137.56 108.33 133.44 108.33 133.44 112.46 133.44 112.46 133.44 116.58 137.56 116.58 137.56 112.46 137.56 112.46 137.56 108.33"/><polygon class="cls-7" points="96.28 116.58 100.41 116.58 100.41 116.58 104.53 116.58 104.53 112.46 100.41 112.46 100.41 112.46 96.28 112.46 96.28 116.58"/><rect class="cls-7" x="121.05" y="116.61" width="4.13" height="4.13"/><rect class="cls-7" x="121.05" y="120.77" width="4.13" height="4.13"/><rect class="cls-7" x="121.05" y="124.93" width="4.13" height="4.13"/><rect class="cls-7" x="116.89" y="129.09" width="4.13" height="4.13"/><rect class="cls-7" x="112.73" y="129.09" width="4.13" height="4.13"/><rect class="cls-7" x="108.57" y="129.09" width="4.13" height="4.13"/><rect class="cls-7" x="104.42" y="129.09" width="4.13" height="4.13"/><rect class="cls-7" x="100.26" y="129.09" width="4.13" height="4.13"/><rect class="cls-7" x="96.42" y="124.93" width="4.13" height="4.13"/><rect class="cls-7" x="96.42" y="120.77" width="4.13" height="4.13"/><rect class="cls-7" x="96.42" y="116.61" width="4.13" height="4.13"/><rect class="cls-7" x="75.63" y="120.71" width="4.13" height="4.13"/><rect class="cls-7" x="108.66" y="21.62" width="4.13" height="4.13"/><rect class="cls-7" x="116.92" y="21.62" width="4.13" height="4.13"/><rect class="cls-7" x="149.95" y="38.14" width="4.13" height="4.13"/><rect class="cls-7" x="154.08" y="42.27" width="4.13" height="4.13"/><rect class="cls-7" x="149.95" y="46.4" width="4.13" height="4.13"/><polygon class="cls-7" points="158.21 62.91 158.21 62.91 154.08 62.91 154.08 62.91 149.95 62.91 149.95 62.91 145.82 62.91 145.82 67.04 145.82 67.04 145.82 71.17 149.95 71.17 149.95 67.04 149.95 67.04 149.95 67.04 154.08 67.04 154.08 67.04 158.21 67.04 158.21 67.04 162.34 67.04 162.34 62.91 158.21 62.91"/><rect class="cls-7" x="162.34" y="67.04" width="4.13" height="4.13"/><rect class="cls-7" x="149.95" y="71.17" width="4.13" height="4.13"/><polygon class="cls-7" points="154.08 79.42 154.08 79.42 154.08 75.3 149.95 75.3 149.95 79.42 149.95 79.42 149.95 83.55 154.08 83.55 154.08 79.42"/><rect class="cls-7" x="71.5" y="83.55" width="4.13" height="4.13"/><rect class="cls-7" x="145.82" y="83.55" width="4.13" height="4.13"/><polygon class="cls-7" points="54.99 79.42 59.12 79.42 59.12 75.3 59.12 75.3 59.12 71.17 54.99 71.17 54.99 75.3 54.99 75.3 54.99 79.42"/><polygon class="cls-7" points="71.5 79.42 71.5 75.3 67.37 75.3 67.37 79.42 67.37 79.42 67.37 83.55 71.5 83.55 71.5 79.42 71.5 79.42"/><rect class="cls-7" x="54.99" y="67.04" width="4.13" height="4.13"/><rect class="cls-7" x="67.37" y="71.17" width="4.13" height="4.13"/><rect class="cls-7" x="71.5" y="58.78" width="4.13" height="4.13"/><rect class="cls-7" x="145.82" y="58.78" width="4.13" height="4.13"/><rect class="cls-7" x="71.5" y="50.52" width="4.13" height="4.13"/><polygon class="cls-7" points="129.31 50.52 129.31 54.65 129.31 54.65 129.31 58.78 133.44 58.78 133.44 58.78 137.56 58.78 137.56 54.65 133.44 54.65 133.44 54.65 133.44 54.65 133.44 50.52 129.31 50.52"/><rect class="cls-7" x="145.82" y="50.52" width="4.13" height="4.13"/><rect class="cls-7" x="75.63" y="54.65" width="4.13" height="4.13"/><rect class="cls-7" x="141.69" y="54.65" width="4.13" height="4.13"/><rect class="cls-7" x="63.25" y="42.27" width="4.13" height="4.13"/><polygon class="cls-7" points="79.76 46.4 83.89 46.4 83.89 46.4 88.02 46.4 92.15 46.4 92.15 42.27 88.02 42.27 83.89 42.27 83.89 42.27 79.76 42.27 79.76 46.4"/><rect class="cls-7" x="129.31" y="42.27" width="4.13" height="4.13"/><rect class="cls-7" x="137.56" y="42.27" width="4.13" height="4.13"/><rect class="cls-7" x="67.37" y="46.4" width="4.13" height="4.13"/><rect class="cls-7" x="75.63" y="46.4" width="4.13" height="4.13"/><rect class="cls-7" x="141.69" y="46.4" width="4.13" height="4.13"/><rect class="cls-7" x="71.5" y="34.01" width="4.13" height="4.13"/><rect class="cls-7" x="79.76" y="34.01" width="4.13" height="4.13"/><polygon class="cls-7" points="100.41 34.01 100.41 29.88 96.28 29.88 96.28 34.01 96.28 34.01 96.28 38.14 96.28 38.14 96.28 42.27 100.41 42.27 100.41 38.14 100.41 38.14 100.41 34.01 100.41 34.01"/><polygon class="cls-7" points="112.79 34.01 112.79 34.01 108.66 34.01 108.66 34.01 104.53 34.01 104.53 38.14 108.66 38.14 108.66 38.14 112.79 38.14 112.79 38.14 116.92 38.14 116.92 34.01 112.79 34.01"/><rect class="cls-7" x="137.56" y="34.01" width="4.13" height="4.13"/><rect class="cls-7" x="145.82" y="34.01" width="4.13" height="4.13"/><rect class="cls-7" x="67.37" y="38.14" width="4.13" height="4.13"/><rect class="cls-7" x="83.89" y="38.14" width="4.13" height="4.13"/><rect class="cls-7" x="92.15" y="38.14" width="4.13" height="4.13"/><rect class="cls-7" x="100.4" y="38.14" width="4.13" height="4.13"/><polygon class="cls-7" points="125.18 38.14 125.18 38.14 125.18 34.01 125.18 34.01 125.18 29.88 121.05 29.88 121.05 34.01 121.05 34.01 121.05 38.14 116.92 38.14 116.92 42.27 121.05 42.27 121.05 42.27 125.18 42.27 125.18 42.27 129.31 42.27 129.31 38.14 125.18 38.14"/><rect class="cls-7" x="133.43" y="38.14" width="4.13" height="4.13"/><rect class="cls-7" x="121.05" y="25.75" width="4.13" height="4.13"/><rect class="cls-7" x="75.63" y="29.88" width="4.13" height="4.13"/><rect class="cls-7" x="141.69" y="29.88" width="4.13" height="4.13"/><polygon class="cls-7" points="158.21 87.68 154.08 87.68 154.08 87.68 149.95 87.68 149.95 87.68 145.82 87.68 145.82 91.81 149.95 91.81 149.95 91.81 154.08 91.81 154.08 91.81 158.21 91.81 158.21 91.81 162.34 91.81 162.34 87.68 158.21 87.68 158.21 87.68"/><rect class="cls-7" x="71.5" y="91.81" width="4.13" height="4.13"/><rect class="cls-7" x="145.82" y="91.81" width="4.13" height="4.13"/><rect class="cls-7" x="75.63" y="95.94" width="4.13" height="4.13"/><rect class="cls-7" x="141.69" y="95.94" width="4.13" height="4.13"/><rect class="cls-7" x="71.5" y="100.07" width="4.13" height="4.13"/><rect class="cls-7" x="145.82" y="100.07" width="4.13" height="4.13"/><rect class="cls-7" x="67.37" y="104.2" width="4.13" height="4.13"/><polygon class="cls-7" points="79.76 104.2 79.76 100.07 75.63 100.07 75.63 104.2 75.63 104.2 75.63 108.33 79.76 108.33 79.76 104.2 79.76 104.2"/><rect class="cls-7" x="149.95" y="104.2" width="4.13" height="4.13"/><rect class="cls-7" x="63.25" y="108.33" width="4.13" height="4.13"/><rect class="cls-7" x="129.31" y="108.33" width="4.13" height="4.13"/><rect class="cls-7" x="137.56" y="108.33" width="4.13" height="4.13"/><rect class="cls-7" x="154.08" y="108.33" width="4.13" height="4.13"/><rect class="cls-7" x="67.37" y="112.46" width="4.13" height="4.13"/><rect class="cls-7" x="92.15" y="112.46" width="4.13" height="4.13"/><polygon class="cls-7" points="125.18 112.46 121.05 112.46 116.92 112.46 116.92 116.58 121.05 116.58 121.05 116.58 125.18 116.58 125.18 116.58 129.31 116.58 129.31 112.46 125.18 112.46 125.18 112.46"/><rect class="cls-7" x="149.95" y="112.46" width="4.13" height="4.13"/><rect class="cls-7" x="145.82" y="116.58" width="4.13" height="4.13"/><rect class="cls-7" x="112.79" y="116.58" width="4.13" height="4.13"/><polygon class="cls-7" points="104.53 116.58 104.53 120.71 108.66 120.71 112.79 120.71 112.79 116.58 108.66 116.58 104.53 116.58"/><rect class="cls-7" x="141.69" y="120.71" width="4.13" height="4.13"/><rect class="cls-7" x="137.56" y="116.58" width="4.13" height="4.13"/><rect class="cls-7" x="71.5" y="116.58" width="4.13" height="4.13"/><rect class="cls-7" x="79.76" y="116.58" width="4.13" height="4.13"/></g></g></svg>