<svg xmlns="http://www.w3.org/2000/svg" viewBox="0 0 354.67 177.33"><defs><style>.cls-1{fill:#fff;}.cls-2{fill:#cfd1d2;}.cls-3{fill:#989899;}.cls-4{fill:#b6b6b7;}.cls-5{fill:#32b375;}</style></defs><title>replay</title><g id="Calque_2" data-name="Calque 2"><g id="Calque_1-2" data-name="Calque 1"><polygon class="cls-1" points="310.33 0 288.17 0 288.17 22.17 310.33 22.17 332.5 22.17 332.5 0 310.33 0"/><polygon class="cls-2" points="332.5 22.17 310.33 22.17 288.17 22.17 288.17 0 266 0 243.83 0 221.67 0 199.5 0 177.33 0 155.17 0 133 0 110.83 0 88.67 0 66.5 0 44.33 0 44.33 22.17 22.17 22.17 22.17 44.33 22.17 66.33 22.17 66.5 22.17 85.67 21.46 85.67 21.46 111.67 63.47 111.67 63.47 110.83 66.5 110.83 66.67 110.83 88.67 110.83 110.83 110.83 110.83 88.67 133 88.67 133.47 88.67 155.17 88.67 243.83 88.67 266 88.67 277.46 88.67 288.17 88.67 310.33 88.67 310.33 66.5 332.5 66.5 354.67 66.5 354.67 44.33 354.67 22.17 332.5 22.17"/><polygon class="cls-3" points="88.67 133 66.5 133 44.33 133 44.33 155.17 66.5 155.17 88.67 155.17 110.83 155.17 110.83 133 88.67 133"/><polygon points="22.17 88.67 22.17 66.5 22.17 44.33 0 44.33 0 66.5 0 88.67 0 110.83 0 133 22.17 133 22.17 110.83 22.17 88.67"/><rect x="22.17" y="133" width="22.17" height="22.17"/><polygon points="288.17 155.17 266 155.17 243.83 155.17 221.67 155.17 199.5 155.17 177.33 155.17 155.17 155.17 133 155.17 110.83 155.17 88.67 155.17 66.5 155.17 44.33 155.17 44.33 177.33 66.5 177.33 88.67 177.33 110.83 177.33 133 177.33 155.17 177.33 177.33 177.33 199.5 177.33 221.67 177.33 243.83 177.33 266 177.33 288.17 177.33 310.33 177.33 310.33 155.17 288.17 155.17"/><polygon class="cls-4" points="332.5 66.5 310.33 66.5 310.33 88.67 288.17 88.67 273.46 88.67 266 88.67 243.83 88.67 221.67 88.67 155.17 88.67 144.47 88.67 133 88.67 110.83 88.67 110.83 110.83 88.67 110.83 66.5 110.83 44.33 110.83 22.17 110.83 22.17 133 44.33 133 66.5 133 88.67 133 110.83 133 110.83 155.17 133 155.17 155.17 155.17 177.33 155.17 199.5 155.17 221.67 155.17 243.83 155.17 266 155.17 288.17 155.17 310.33 155.17 332.5 155.17 332.5 133 354.67 133 354.67 110.83 354.67 88.67 354.67 66.5 332.5 66.5"/><path d="M194.47,41.67h-66v88h88v-88Zm0,44v22h-44v-44h44Z"/><polygon class="cls-5" points="183.21 37.97 167.29 22.06 151.38 37.97 167.29 53.88 151.38 69.79 167.29 85.7 183.21 69.79 199.12 53.88 183.21 37.97"/></g></g></svg>