<svg xmlns="http://www.w3.org/2000/svg" viewBox="0 0 214.47 166.67"><defs><style>.cls-1{fill:#b6b6b7;}.cls-2{fill:#cfd1d2;}.cls-3{fill:#fff;}.cls-4{fill:#231f20;}</style></defs><title>button_random</title><g id="Calque_2" data-name="Calque 2"><g id="Calque_1-2" data-name="Calque 1"><polygon points="187.47 144.17 187.47 93.67 63.47 93.67 63.47 88.5 63.47 60.92 63.47 33.33 0 33.33 0 60.92 0 88.5 0 116.08 0 143.67 13.4 143.67 55.47 143.67 55.47 166.67 187.47 166.67 187.47 166.33 187.66 166.33 187.66 144.17 187.47 144.17"/><polygon class="cls-1" points="201.06 66.5 187.66 66.5 187.66 88.67 174.25 88.67 165.36 88.67 160.85 88.67 147.44 88.67 134.04 88.67 93.83 88.67 87.36 88.67 80.42 88.67 67.02 88.67 67.02 110.83 53.62 110.83 40.21 110.83 26.81 110.83 13.4 110.83 13.4 133 26.81 133 40.21 133 53.62 133 67.02 133 67.02 155.17 80.42 155.17 93.83 155.17 107.23 155.17 120.64 155.17 134.04 155.17 147.44 155.17 160.85 155.17 174.25 155.17 187.66 155.17 201.06 155.17 201.06 133 214.47 133 214.47 110.83 214.47 88.67 214.47 66.5 201.06 66.5"/><polygon class="cls-2" points="201.06 22.17 187.66 22.17 174.25 22.17 174.25 0 160.85 0 147.44 0 134.04 0 120.64 0 107.23 0 93.83 0 80.42 0 67.02 0 53.62 0 40.21 0 26.81 0 26.81 22.17 13.4 22.17 13.4 44.33 13.4 66.33 13.4 66.5 13.4 81.67 13.46 81.67 13.46 111.67 38.38 111.67 38.38 110.83 40.21 110.83 40.31 110.83 53.62 110.83 67.02 110.83 67.02 88.67 80.42 88.67 80.71 88.67 93.83 88.67 147.44 88.67 160.85 88.67 167.78 88.67 174.25 88.67 187.66 88.67 187.66 66.5 201.06 66.5 214.47 66.5 214.47 44.33 214.47 22.17 201.06 22.17"/><polygon class="cls-3" points="91.99 35.69 101.2 35.69 101.2 35.69 110.41 35.69 110.41 26.48 101.2 26.48 101.2 26.48 91.99 26.48 91.99 26.48 82.78 26.48 82.78 35.69 91.99 35.69 91.99 35.69"/><polygon class="cls-3" points="119.62 35.69 128.83 35.69 128.83 26.48 119.62 26.48 110.41 26.48 110.41 35.69 119.62 35.69 119.62 35.69"/><rect class="cls-3" x="128.83" y="26.48" width="9.21" height="9.21"/><rect class="cls-3" x="138.04" y="35.69" width="9.21" height="9.21"/><polygon class="cls-3" points="110.41 63.32 119.62 63.32 119.62 63.32 119.62 72.53 128.83 72.53 128.83 63.32 128.83 63.32 128.83 54.11 119.62 54.11 119.62 54.11 110.41 54.11 110.41 54.11 101.2 54.11 101.2 63.32 110.41 63.32 110.41 63.32"/><rect class="cls-3" x="91.99" y="63.32" width="9.21" height="9.21"/><polygon class="cls-3" points="156.47 63.32 147.25 63.32 147.25 72.53 147.25 72.53 147.25 81.75 156.47 81.75 156.47 72.53 156.47 72.53 156.47 63.32"/><rect class="cls-3" x="82.78" y="72.53" width="9.21" height="9.21"/><polygon class="cls-3" points="91.99 90.96 91.99 90.96 91.99 100.17 101.2 100.17 101.2 90.96 101.2 90.96 101.2 81.75 91.99 81.75 91.99 90.96"/><rect class="cls-3" x="110.41" y="100.17" width="9.21" height="9.21"/><rect class="cls-3" x="91.99" y="118.59" width="9.21" height="9.21"/><polygon class="cls-3" points="110.41 127.8 101.2 127.8 101.2 137.01 110.41 137.01 110.41 137.01 119.62 137.01 119.62 127.8 110.41 127.8 110.41 127.8"/><rect class="cls-3" x="73.57" y="35.69" width="9.21" height="9.21"/><rect class="cls-3" x="64.36" y="44.9" width="9.21" height="9.21"/><rect class="cls-3" x="91.99" y="54.11" width="9.21" height="9.21"/><polygon class="cls-3" points="156.47 54.11 156.47 44.9 147.25 44.9 147.25 54.11 147.25 54.11 147.25 63.32 156.47 63.32 156.47 54.11 156.47 54.11"/><polygon class="cls-3" points="73.57 63.32 73.57 54.11 64.36 54.11 64.36 63.32 64.36 63.32 64.36 72.53 73.57 72.53 73.57 63.32 73.57 63.32"/><rect class="cls-3" x="73.57" y="72.53" width="9.21" height="9.21"/><polygon class="cls-3" points="110.41 72.53 101.2 72.53 101.2 81.75 110.41 81.75 110.41 81.75 119.62 81.75 119.62 72.53 110.41 72.53 110.41 72.53"/><rect class="cls-3" x="138.04" y="81.74" width="9.21" height="9.21"/><polygon class="cls-3" points="128.83 90.96 119.62 90.96 119.62 100.17 128.83 100.17 128.83 100.17 138.04 100.17 138.04 90.96 128.83 90.96 128.83 90.96"/><rect class="cls-3" x="101.2" y="100.17" width="9.21" height="9.21"/><rect class="cls-3" x="91.99" y="109.38" width="9.21" height="9.21"/><polygon class="cls-3" points="119.62 118.59 119.62 127.8 128.83 127.8 128.83 118.59 128.83 118.59 128.83 109.38 119.62 109.38 119.62 118.59 119.62 118.59"/><polygon class="cls-4" points="91.99 29.13 101.2 29.13 101.2 29.13 110.41 29.13 110.41 19.92 101.2 19.92 101.2 19.92 91.99 19.92 91.99 19.92 82.78 19.92 82.78 29.13 91.99 29.13 91.99 29.13"/><polygon class="cls-4" points="119.62 29.13 128.83 29.13 128.83 19.92 119.62 19.92 110.41 19.92 110.41 29.13 119.62 29.13 119.62 29.13"/><rect class="cls-4" x="128.83" y="19.92" width="9.21" height="9.21"/><rect class="cls-4" x="138.04" y="29.13" width="9.21" height="9.21"/><polygon class="cls-4" points="110.41 56.77 119.62 56.77 119.62 56.77 119.62 65.98 128.83 65.98 128.83 56.77 128.83 56.77 128.83 47.55 119.62 47.55 119.62 47.55 110.41 47.55 110.41 47.55 101.2 47.55 101.2 56.77 110.41 56.77 110.41 56.77"/><rect class="cls-4" x="91.99" y="56.77" width="9.21" height="9.21"/><polygon class="cls-4" points="156.47 56.77 147.25 56.77 147.25 65.98 147.25 65.98 147.25 75.19 156.47 75.19 156.47 65.98 156.47 65.98 156.47 56.77"/><rect class="cls-4" x="82.78" y="65.98" width="9.21" height="9.21"/><polygon class="cls-4" points="91.99 84.4 91.99 84.4 91.99 93.61 101.2 93.61 101.2 84.4 101.2 84.4 101.2 75.19 91.99 75.19 91.99 84.4"/><rect class="cls-4" x="110.41" y="93.61" width="9.21" height="9.21"/><rect class="cls-4" x="91.99" y="112.03" width="9.21" height="9.21"/><polygon class="cls-4" points="110.41 121.24 101.2 121.24 101.2 130.45 110.41 130.45 110.41 130.45 119.62 130.45 119.62 121.24 110.41 121.24 110.41 121.24"/><rect class="cls-4" x="73.57" y="29.13" width="9.21" height="9.21"/><rect class="cls-4" x="64.36" y="38.34" width="9.21" height="9.21"/><rect class="cls-4" x="91.99" y="47.55" width="9.21" height="9.21"/><polygon class="cls-4" points="156.47 47.55 156.47 38.34 147.25 38.34 147.25 47.55 147.25 47.55 147.25 56.77 156.47 56.77 156.47 47.55 156.47 47.55"/><polygon class="cls-4" points="73.57 56.77 73.57 47.55 64.36 47.55 64.36 56.77 64.36 56.77 64.36 65.98 73.57 65.98 73.57 56.77 73.57 56.77"/><rect class="cls-4" x="73.57" y="65.98" width="9.21" height="9.21"/><polygon class="cls-4" points="110.41 65.98 101.2 65.98 101.2 75.19 110.41 75.19 110.41 75.19 119.62 75.19 119.62 65.98 110.41 65.98 110.41 65.98"/><rect class="cls-4" x="138.04" y="75.19" width="9.21" height="9.21"/><polygon class="cls-4" points="128.83 84.4 119.62 84.4 119.62 93.61 128.83 93.61 128.83 93.61 138.04 93.61 138.04 84.4 128.83 84.4 128.83 84.4"/><rect class="cls-4" x="101.2" y="93.61" width="9.21" height="9.21"/><rect class="cls-4" x="91.99" y="102.82" width="9.21" height="9.21"/><polygon class="cls-4" points="119.62 112.03 119.62 121.24 128.83 121.24 128.83 112.03 128.83 112.03 128.83 102.82 119.62 102.82 119.62 112.03 119.62 112.03"/></g></g></svg>