<svg xmlns="http://www.w3.org/2000/svg" viewBox="0 0 703.06 546.83"><defs><style>.cls-1{fill:#43b34f;}.cls-2{fill:#32b375;}.cls-3{fill:#231f20;}</style></defs><title>check</title><g id="Calque_2" data-name="Calque 2"><g id="Calque_1-2" data-name="Calque 1"><rect class="cls-1" x="78.12" y="195.3" width="39.06" height="39.06"/><rect class="cls-1" x="156.24" y="195.3" width="39.06" height="39.06"/><rect class="cls-1" x="78.12" y="273.41" width="39.06" height="39.06"/><rect class="cls-1" x="156.24" y="273.41" width="39.06" height="39.06"/><rect class="cls-1" x="156.24" y="351.53" width="39.06" height="39.06"/><rect class="cls-1" x="273.41" y="390.59" width="39.06" height="39.06"/><rect class="cls-1" x="234.35" y="429.65" width="39.06" height="39.06"/><polygon class="cls-1" points="507.77 156.24 546.83 156.24 546.83 117.18 546.83 117.18 546.83 78.12 507.77 78.12 507.77 117.18 507.77 117.18 507.77 117.18 468.71 117.18 468.71 156.24 507.77 156.24 507.77 156.24"/><rect class="cls-1" x="468.71" y="156.24" width="39.06" height="39.06"/><polygon class="cls-1" points="468.71 195.29 468.71 156.24 429.65 156.24 429.65 195.29 429.65 195.29 429.65 195.3 390.59 195.3 390.59 234.35 429.65 234.35 429.65 234.35 429.65 234.35 429.65 273.41 468.71 273.41 468.71 234.35 468.71 234.35 468.71 234.35 507.77 234.35 507.77 195.3 468.71 195.3 468.71 195.29 468.71 195.29"/><rect class="cls-1" x="390.59" y="234.35" width="39.06" height="39.06"/><polygon class="cls-1" points="390.59 273.41 390.59 273.41 390.59 234.35 351.53 234.35 351.53 273.41 351.53 273.41 351.53 273.41 312.47 273.41 312.47 312.47 351.53 312.47 351.53 312.47 351.53 312.47 351.53 351.53 390.59 351.53 390.59 312.47 390.59 312.47 390.59 312.47 429.65 312.47 429.65 273.41 390.59 273.41 390.59 273.41"/><rect class="cls-1" x="312.47" y="312.47" width="39.06" height="39.06"/><path class="cls-1" d="M312.47,351.53h0V312.47H273.41v39.06h0V312.47h0V273.41H234.35V234.35H156.24v-39h0V156.24H117.18V195.3h0v39H39.06v39.06h78.12v39.06h0v39.06H195.3v39.06h0v39.06h78.11V390.59h78.12V351.53ZM156.24,312.47h0V273.41H195.3v39.06H156.24Z"/><polygon class="cls-2" points="624.95 117.18 624.95 78.12 585.89 78.12 585.89 39.06 546.83 39.06 546.83 78.12 546.83 78.12 546.83 117.18 585.89 117.18 585.89 117.18 546.83 117.18 546.83 156.24 507.77 156.24 507.77 195.29 507.77 195.29 507.77 234.35 468.71 234.35 468.71 273.41 429.65 273.41 429.65 312.47 390.59 312.47 390.59 351.53 351.53 351.53 351.53 390.59 312.47 390.59 312.47 429.65 273.41 429.65 273.41 468.71 312.47 468.71 312.47 468.71 351.53 468.71 351.53 429.65 390.59 429.65 390.59 390.59 429.65 390.59 429.65 351.53 468.71 351.53 468.71 312.47 468.71 312.47 468.71 312.47 507.77 312.47 507.77 273.41 546.83 273.41 546.83 234.35 546.83 234.35 546.83 234.35 585.89 234.35 585.89 195.3 624.95 195.3 624.95 156.24 664 156.24 664 117.18 624.95 117.18"/><rect class="cls-2" x="273.41" y="468.71" width="39.06" height="39.06"/><rect class="cls-3" x="546.83" width="39.06" height="39.06"/><rect class="cls-3" x="507.77" y="39.06" width="39.06" height="39.06"/><rect class="cls-3" x="585.89" y="39.06" width="39.06" height="39.06"/><rect class="cls-3" x="468.71" y="78.12" width="39.06" height="39.06"/><rect class="cls-3" x="624.95" y="78.12" width="39.06" height="39.06"/><rect class="cls-3" x="117.18" y="117.18" width="39.06" height="39.06"/><rect class="cls-3" x="429.65" y="117.18" width="39.06" height="39.06"/><rect class="cls-3" x="664" y="117.18" width="39.06" height="39.06"/><rect class="cls-3" x="78.12" y="156.24" width="39.06" height="39.06"/><rect class="cls-3" x="156.24" y="156.24" width="39.06" height="39.06"/><rect class="cls-3" x="390.59" y="156.24" width="39.06" height="39.06"/><rect class="cls-3" x="624.95" y="156.24" width="39.06" height="39.06"/><rect class="cls-3" x="39.06" y="195.3" width="39.06" height="39.06"/><rect class="cls-3" x="195.3" y="195.3" width="39.06" height="39.06"/><rect class="cls-3" x="351.53" y="195.3" width="39.06" height="39.06"/><rect class="cls-3" x="585.89" y="195.3" width="39.06" height="39.06"/><rect class="cls-3" y="234.35" width="39.06" height="39.06"/><rect class="cls-3" x="234.35" y="234.35" width="39.06" height="39.06"/><rect class="cls-3" x="312.47" y="234.35" width="39.06" height="39.06"/><rect class="cls-3" x="546.83" y="234.35" width="39.06" height="39.06"/><rect class="cls-3" x="39.06" y="273.41" width="39.06" height="39.06"/><rect class="cls-3" x="273.41" y="273.41" width="39.06" height="39.06"/><rect class="cls-3" x="507.77" y="273.41" width="39.06" height="39.06"/><rect class="cls-3" x="78.12" y="312.47" width="39.06" height="39.06"/><rect class="cls-3" x="468.71" y="312.47" width="39.06" height="39.06"/><rect class="cls-3" x="117.18" y="351.53" width="39.06" height="39.06"/><rect class="cls-3" x="429.65" y="351.53" width="39.06" height="39.06"/><rect class="cls-3" x="156.24" y="390.59" width="39.06" height="39.06"/><rect class="cls-3" x="390.59" y="390.59" width="39.06" height="39.06"/><rect class="cls-3" x="195.3" y="429.65" width="39.06" height="39.06"/><rect class="cls-3" x="351.53" y="429.65" width="39.06" height="39.06"/><rect class="cls-3" x="234.35" y="468.71" width="39.06" height="39.06"/><rect class="cls-3" x="312.47" y="468.71" width="39.06" height="39.06"/><rect class="cls-3" x="273.41" y="507.77" width="39.06" height="39.06"/></g></g></svg>