<svg xmlns="http://www.w3.org/2000/svg" viewBox="0 0 70.87 62.01"><defs><style>.cls-1{fill:#fff;}.cls-2{fill:#d5d4d3;}.cls-3{fill:#1d71b8;}.cls-4{fill:#f9b233;}.cls-5{fill:#fde922;}.cls-6{fill:#fddfc1;}.cls-7{fill:#c1bfbe;}.cls-8{fill:#dadada;}.cls-9{fill:#a4a19f;}.cls-10{fill:#1d1d1b;}</style></defs><title>hero1_2</title><g id="Calque_2" data-name="Calque 2"><g id="Calque_1-2" data-name="Calque 1"><rect class="cls-1" x="66.44" y="17.72" width="2.21" height="2.21"/><rect class="cls-1" x="17.72" y="4.43" width="2.21" height="2.21"/><rect class="cls-1" x="22.15" y="15.5" width="2.21" height="2.21"/><rect class="cls-1" x="28.79" y="15.5" width="2.21" height="2.21"/><rect class="cls-1" x="22.15" y="15.5" width="2.21" height="2.21"/><rect class="cls-1" x="28.79" y="15.5" width="2.21" height="2.21"/><polygon class="cls-1" points="11.01 26.57 11.07 26.57 13.29 26.57 13.29 28.79 11.07 28.79 11.01 28.79 8.86 28.79 8.8 28.79 8.8 26.57 8.86 26.57 11.01 26.57"/><rect class="cls-2" x="15.5" y="4.43" width="2.21" height="2.21" transform="translate(11.07 22.15) rotate(-90)"/><rect class="cls-3" x="28.79" y="17.72" width="2.21" height="2.21"/><rect class="cls-3" x="22.15" y="17.72" width="2.21" height="2.21"/><polygon class="cls-4" points="8.86 11.07 8.86 8.86 8.86 6.64 8.86 4.43 11.07 4.43 11.07 2.21 13.29 2.21 15.5 2.21 15.5 4.43 13.29 4.43 13.29 6.64 11.07 6.64 11.07 8.86 11.07 11.07 11.07 13.29 11.07 15.5 11.07 17.72 8.86 17.72 8.86 19.93 6.64 19.93 6.64 17.72 6.64 15.5 6.64 13.29 6.64 11.07 8.86 11.07"/><rect class="cls-5" x="8.86" y="2.21" width="2.21" height="2.21"/><polygon class="cls-5" points="8.86 8.86 8.86 11.07 6.64 11.07 6.64 8.86 6.64 6.64 6.64 4.43 8.86 4.43 8.86 6.64 8.86 8.86"/><polygon class="cls-5" points="4.43 17.72 6.64 17.72 6.64 19.93 4.43 19.93 2.21 19.93 2.21 17.72 4.43 17.72"/><polygon class="cls-5" points="39.86 33.22 39.86 35.43 42.08 35.43 42.08 37.65 44.29 37.65 46.51 37.65 46.51 39.86 46.51 42.08 44.29 42.08 42.08 42.08 39.86 42.08 39.86 39.86 37.65 39.86 37.65 37.65 35.43 37.65 35.43 35.43 35.43 33.22 37.65 33.22 39.86 33.22"/><polygon class="cls-5" points="6.64 35.43 6.64 33.22 8.86 33.22 11.07 33.22 11.07 35.43 11.07 37.65 8.86 37.65 8.86 39.86 6.64 39.86 6.64 42.08 4.43 42.08 4.43 39.86 4.43 37.65 6.64 37.65 6.64 35.43"/><polygon class="cls-6" points="48.72 35.43 50.94 35.43 50.94 37.65 50.94 39.86 48.72 39.86 48.72 42.08 46.51 42.08 46.51 39.86 46.51 37.65 48.72 37.65 48.72 35.43"/><polygon class="cls-6" points="6.64 44.29 8.86 44.29 8.86 46.51 8.86 48.72 6.64 48.72 4.43 48.72 4.43 46.51 4.43 44.29 6.64 44.29"/><rect class="cls-7" x="31" y="4.43" width="2.21" height="2.21"/><polygon class="cls-7" points="33.22 13.29 33.22 11.07 33.22 8.86 33.22 6.64 35.43 6.64 35.43 8.86 35.43 11.07 35.43 13.29 35.43 15.5 33.22 15.5 33.22 13.29"/><polygon class="cls-7" points="33.22 22.15 33.22 19.93 35.43 19.93 35.43 22.15 35.43 24.36 33.22 24.36 33.22 22.15"/><polygon class="cls-7" points="39.86 28.79 39.86 31 37.65 31 37.65 28.79 37.65 26.57 39.86 26.57 39.86 28.79"/><rect class="cls-7" x="28.79" y="26.57" width="2.21" height="2.21"/><rect class="cls-7" x="24.36" y="26.57" width="2.21" height="2.21"/><rect class="cls-7" x="19.93" y="26.57" width="2.21" height="2.21"/><polygon class="cls-7" points="28.79 31 28.79 33.22 26.57 33.22 26.57 31 26.57 28.79 28.79 28.79 28.79 31"/><rect class="cls-7" x="24.36" y="33.22" width="2.21" height="2.21"/><polygon class="cls-7" points="28.79 37.65 31 37.65 31 39.86 31 42.08 31 44.29 28.79 44.29 28.79 42.08 26.57 42.08 26.57 39.86 26.57 37.65 26.57 35.43 28.79 35.43 28.79 37.65"/><polygon class="cls-7" points="31 48.72 31 50.94 28.79 50.94 28.79 48.72 28.79 46.51 31 46.51 31 48.72"/><rect class="cls-7" x="31" y="50.93" width="2.21" height="2.21"/><rect class="cls-7" x="28.79" y="53.15" width="2.21" height="2.21"/><polygon class="cls-8" points="28.79 15.5 26.57 15.5 24.36 15.5 22.15 15.5 19.93 15.5 17.72 15.5 15.5 15.5 13.29 15.5 13.29 13.29 13.29 11.07 13.29 8.86 13.29 6.64 15.5 6.64 17.72 6.64 19.93 6.64 19.93 4.43 22.15 4.43 24.36 4.43 26.57 4.43 28.79 4.43 31 4.43 31 6.64 33.22 6.64 33.22 8.86 33.22 11.07 33.22 13.29 33.22 15.5 31 15.5 28.79 15.5"/><rect class="cls-8" x="68.65" y="17.72" width="2.21" height="2.21"/><polygon class="cls-8" points="28.79 24.36 26.57 24.36 24.36 24.36 22.15 24.36 19.93 24.36 17.72 24.36 15.5 24.36 13.29 24.36 13.29 22.15 13.29 19.93 15.5 19.93 17.72 19.93 19.93 19.93 22.15 19.93 24.36 19.93 26.57 19.93 28.79 19.93 31 19.93 33.22 19.93 33.22 22.15 33.22 24.36 31 24.36 28.79 24.36"/><polygon class="cls-8" points="8.86 26.57 8.86 28.79 11.07 28.79 13.29 28.79 13.29 26.57 15.5 26.57 17.72 26.57 19.93 26.57 19.93 28.79 22.15 28.79 24.36 28.79 24.36 31 24.36 33.22 22.15 33.22 22.15 35.43 19.93 35.43 17.72 35.43 15.5 35.43 15.5 33.22 15.5 31 17.72 31 17.72 28.79 15.5 28.79 15.5 31 13.29 31 11.07 31 8.86 31 6.64 31 6.64 28.79 6.64 26.57 8.86 26.57"/><polygon class="cls-8" points="50.94 33.22 53.15 33.22 53.15 31 55.36 31 55.36 28.79 57.58 28.79 57.58 26.57 59.79 26.57 59.79 24.36 62.01 24.36 62.01 22.15 64.22 22.15 64.22 19.93 66.44 19.93 68.65 19.93 68.65 22.15 66.44 22.15 66.44 24.36 64.22 24.36 64.22 26.57 62.01 26.57 62.01 28.79 59.79 28.79 59.79 31 57.58 31 57.58 33.22 55.36 33.22 55.36 35.43 53.15 35.43 53.15 37.65 50.94 37.65 50.94 35.43 48.72 35.43 48.72 33.22 48.72 31 50.94 31 50.94 33.22"/><polygon class="cls-8" points="33.22 33.22 33.22 35.43 31 35.43 28.79 35.43 28.79 33.22 28.79 31 28.79 28.79 31 28.79 31 26.57 33.22 26.57 35.43 26.57 37.65 26.57 37.65 28.79 37.65 31 35.43 31 35.43 28.79 33.22 28.79 33.22 31 33.22 33.22"/><polygon class="cls-8" points="24.36 37.65 24.36 39.86 26.57 39.86 26.57 42.08 24.36 42.08 24.36 44.29 22.15 44.29 19.93 44.29 17.72 44.29 17.72 42.08 17.72 39.86 17.72 37.65 19.93 37.65 22.15 37.65 22.15 35.43 24.36 35.43 24.36 37.65"/><rect class="cls-8" x="26.57" y="42.08" width="2.21" height="2.21"/><polygon class="cls-8" points="22.15 46.51 24.36 46.51 26.57 46.51 28.79 46.51 28.79 48.72 28.79 50.94 31 50.94 31 53.15 28.79 53.15 28.79 55.36 26.57 55.36 26.57 53.15 26.57 50.94 24.36 50.94 22.15 50.94 22.15 53.15 22.15 55.36 19.93 55.36 19.93 53.15 17.72 53.15 17.72 50.94 17.72 48.72 17.72 46.51 19.93 46.51 22.15 46.51"/><rect class="cls-9" x="68.65" y="19.93" width="2.21" height="2.21"/><rect class="cls-9" x="66.44" y="22.15" width="2.21" height="2.21"/><rect class="cls-9" x="64.22" y="24.36" width="2.21" height="2.21"/><rect class="cls-9" x="62.01" y="26.57" width="2.21" height="2.21"/><rect class="cls-9" x="59.79" y="28.79" width="2.21" height="2.21"/><rect class="cls-9" x="57.58" y="31" width="2.21" height="2.21"/><rect class="cls-9" x="55.36" y="33.22" width="2.21" height="2.21"/><polygon class="cls-9" points="55.36 37.65 57.58 37.65 57.58 39.86 55.36 39.86 53.15 39.86 53.15 37.65 53.15 35.43 55.36 35.43 55.36 37.65"/><rect class="cls-9" x="28.79" y="57.58" width="2.21" height="2.21"/><rect class="cls-9" x="19.93" y="57.58" width="2.21" height="2.21"/><polygon class="cls-10" points="11.07 2.21 8.86 2.21 8.86 0 11.07 0 13.29 0 15.5 0 15.5 2.21 13.29 2.21 11.07 2.21"/><polygon class="cls-10" points="28.79 4.43 26.57 4.43 24.36 4.43 22.15 4.43 19.93 4.43 17.72 4.43 15.5 4.43 15.5 2.21 17.72 2.21 19.93 2.21 22.15 2.21 24.36 2.21 26.57 2.21 28.79 2.21 31 2.21 33.22 2.21 33.22 4.43 31 4.43 28.79 4.43"/><rect class="cls-10" x="6.64" y="2.21" width="2.21" height="2.21"/><rect class="cls-10" x="33.22" y="4.43" width="2.21" height="2.21"/><rect class="cls-10" x="13.29" y="4.43" width="2.21" height="2.21"/><polygon class="cls-10" points="2.21 15.5 4.43 15.5 4.43 13.29 4.43 11.07 4.43 8.86 4.43 6.64 4.43 4.43 6.64 4.43 6.64 6.64 6.64 8.86 6.64 11.07 6.64 13.29 6.64 15.5 6.64 17.72 4.43 17.72 2.21 17.72 2.21 19.93 0 19.93 0 17.72 0 15.5 2.21 15.5"/><polygon class="cls-10" points="24.36 19.93 24.36 17.72 24.36 15.5 26.57 15.5 28.79 15.5 28.79 17.72 28.79 19.93 26.57 19.93 24.36 19.93"/><polygon class="cls-10" points="11.07 17.72 11.07 15.5 11.07 13.29 11.07 11.07 11.07 8.86 11.07 6.64 13.29 6.64 13.29 8.86 13.29 11.07 13.29 13.29 13.29 15.5 15.5 15.5 17.72 15.5 19.93 15.5 22.15 15.5 22.15 17.72 22.15 19.93 19.93 19.93 17.72 19.93 15.5 19.93 13.29 19.93 13.29 22.15 13.29 24.36 15.5 24.36 17.72 24.36 19.93 24.36 22.15 24.36 24.36 24.36 26.57 24.36 28.79 24.36 31 24.36 33.22 24.36 35.43 24.36 35.43 22.15 35.43 19.93 33.22 19.93 31 19.93 31 17.72 31 15.5 33.22 15.5 35.43 15.5 35.43 13.29 35.43 11.07 35.43 8.86 35.43 6.64 37.65 6.64 37.65 8.86 37.65 11.07 37.65 13.29 37.65 15.5 37.65 17.72 37.65 19.93 37.65 22.15 37.65 24.36 39.86 24.36 39.86 26.57 37.65 26.57 35.43 26.57 33.22 26.57 31 26.57 28.79 26.57 28.79 28.79 26.57 28.79 26.57 26.57 24.36 26.57 24.36 28.79 22.15 28.79 22.15 26.57 19.93 26.57 17.72 26.57 15.5 26.57 13.29 26.57 11.07 26.57 8.86 26.57 6.64 26.57 6.64 24.36 8.86 24.36 11.07 24.36 11.07 22.15 11.07 19.93 8.86 19.93 8.86 17.72 11.07 17.72"/><polygon class="cls-10" points="6.64 19.93 8.86 19.93 8.86 22.15 6.64 22.15 4.43 22.15 2.21 22.15 2.21 19.93 4.43 19.93 6.64 19.93"/><polygon class="cls-10" points="39.86 26.57 42.08 26.57 42.08 28.79 42.08 31 39.86 31 39.86 28.79 39.86 26.57"/><rect class="cls-10" x="15.5" y="28.79" width="2.21" height="2.21"/><polygon class="cls-10" points="6.64 31 4.43 31 4.43 28.79 4.43 26.57 6.64 26.57 6.64 28.79 6.64 31"/><polygon class="cls-10" points="26.57 33.22 24.36 33.22 24.36 31 24.36 28.79 26.57 28.79 26.57 31 26.57 33.22"/><polygon class="cls-10" points="11.07 31 13.29 31 15.5 31 15.5 33.22 15.5 35.43 17.72 35.43 19.93 35.43 22.15 35.43 22.15 37.65 19.93 37.65 17.72 37.65 17.72 39.86 17.72 42.08 17.72 44.29 19.93 44.29 22.15 44.29 24.36 44.29 24.36 42.08 26.57 42.08 26.57 44.29 28.79 44.29 31 44.29 31 46.51 28.79 46.51 26.57 46.51 24.36 46.51 22.15 46.51 19.93 46.51 17.72 46.51 17.72 48.72 17.72 50.94 17.72 53.15 15.5 53.15 15.5 50.94 15.5 48.72 15.5 46.51 15.5 44.29 15.5 42.08 15.5 39.86 15.5 37.65 13.29 37.65 11.07 37.65 11.07 35.43 11.07 33.22 8.86 33.22 6.64 33.22 6.64 31 8.86 31 11.07 31"/><rect class="cls-10" x="39.86" y="33.22" width="2.21" height="2.21"/><rect class="cls-10" x="26.57" y="33.22" width="2.21" height="2.21"/><rect class="cls-10" x="22.15" y="33.22" width="2.21" height="2.21"/><rect class="cls-10" x="46.51" y="35.43" width="2.21" height="2.21"/><rect class="cls-10" x="42.08" y="35.43" width="2.21" height="2.21"/><polygon class="cls-10" points="26.57 37.65 26.57 39.86 24.36 39.86 24.36 37.65 24.36 35.43 26.57 35.43 26.57 37.65"/><polygon class="cls-10" points="6.64 37.65 4.43 37.65 4.43 35.43 4.43 33.22 6.64 33.22 6.64 35.43 6.64 37.65"/><rect class="cls-10" x="50.93" y="37.65" width="2.21" height="2.21"/><rect class="cls-10" x="8.86" y="37.65" width="2.21" height="2.21"/><rect class="cls-10" x="48.72" y="39.86" width="2.21" height="2.21"/><rect class="cls-10" x="37.65" y="39.86" width="2.21" height="2.21"/><polygon class="cls-10" points="31 39.86 31 37.65 28.79 37.65 28.79 35.43 31 35.43 33.22 35.43 33.22 33.22 33.22 31 33.22 28.79 35.43 28.79 35.43 31 37.65 31 39.86 31 39.86 33.22 37.65 33.22 35.43 33.22 35.43 35.43 35.43 37.65 37.65 37.65 37.65 39.86 35.43 39.86 33.22 39.86 33.22 42.08 33.22 44.29 31 44.29 31 42.08 31 39.86"/><polygon class="cls-10" points="4.43 42.08 6.64 42.08 6.64 39.86 8.86 39.86 8.86 42.08 8.86 44.29 6.64 44.29 4.43 44.29 4.43 46.51 4.43 48.72 6.64 48.72 8.86 48.72 8.86 50.94 6.64 50.94 4.43 50.94 2.21 50.94 2.21 48.72 2.21 46.51 2.21 44.29 2.21 42.08 2.21 39.86 2.21 37.65 4.43 37.65 4.43 39.86 4.43 42.08"/><polygon class="cls-10" points="44.29 42.08 46.51 42.08 48.72 42.08 48.72 44.29 46.51 44.29 44.29 44.29 42.08 44.29 39.86 44.29 39.86 42.08 42.08 42.08 44.29 42.08"/><polygon class="cls-10" points="8.86 44.29 11.07 44.29 11.07 46.51 11.07 48.72 8.86 48.72 8.86 46.51 8.86 44.29"/><polygon class="cls-10" points="31 48.72 31 46.51 33.22 46.51 33.22 48.72 33.22 50.94 31 50.94 31 48.72"/><rect class="cls-10" x="33.22" y="50.93" width="2.21" height="2.21"/><path class="cls-10" d="M19.93,53.15H17.72V62h15.5V53.15H31v2.21H26.57V50.93H22.15v4.43H19.93Zm8.86,6.64V57.58H31v2.21Zm-8.86-2.21h2.22v2.21H19.93Z"/></g></g></svg>