<svg xmlns="http://www.w3.org/2000/svg" viewBox="0 0 35.43 33.22"><defs><style>.cls-1{fill:#db3341;}.cls-2{fill:#6e9fc5;}.cls-3{fill:#1d71b8;}.cls-4{fill:#c61618;}.cls-5{fill:#841c11;}.cls-6{fill:#1d1d1b;}</style></defs><title>mini_chevalier</title><g id="Calque_2" data-name="Calque 2"><g id="Calque_1-2" data-name="Calque 1"><rect class="cls-1" x="17.72" y="4.43" width="2.21" height="2.21" transform="translate(13.29 24.36) rotate(-90)"/><rect class="cls-2" x="26.57" y="2.21" width="2.21" height="2.21"/><polygon class="cls-2" points="33.22 8.86 33.22 6.64 31 6.64 31 4.43 28.79 4.43 28.79 6.64 28.79 8.86 28.79 11.07 28.79 13.29 31 13.29 33.22 13.29 33.22 11.07 31 11.07 31 8.86 33.22 8.86"/><polygon class="cls-3" points="26.57 4.43 26.57 2.21 24.36 2.21 22.15 2.21 22.15 4.43 24.36 4.43 24.36 6.64 26.57 6.64 26.57 8.86 26.57 11.07 26.57 13.29 28.79 13.29 28.79 11.07 28.79 8.86 28.79 6.64 28.79 4.43 26.57 4.43"/><rect class="cls-3" x="6.64" y="11.07" width="2.21" height="2.21"/><rect class="cls-3" x="13.29" y="11.07" width="2.21" height="2.21"/><polygon class="cls-4" points="22.15 6.64 19.93 6.64 17.72 6.64 17.72 4.43 15.5 4.43 13.29 4.43 11.07 4.43 8.86 4.43 6.64 4.43 6.64 6.64 4.43 6.64 4.43 8.86 6.64 8.86 8.86 8.86 11.07 8.86 13.29 8.86 15.5 8.86 17.72 8.86 19.93 8.86 22.15 8.86 24.36 8.86 24.36 6.64 22.15 6.64"/><polygon class="cls-4" points="19.93 13.29 17.72 13.29 15.5 13.29 13.29 13.29 11.07 13.29 8.86 13.29 6.64 13.29 4.43 13.29 4.43 15.5 4.43 17.72 4.43 19.93 6.64 19.93 8.86 19.93 11.07 19.93 13.29 19.93 15.5 19.93 17.72 19.93 19.93 19.93 22.15 19.93 24.36 19.93 24.36 17.72 24.36 15.5 24.36 13.29 22.15 13.29 19.93 13.29"/><polygon class="cls-4" points="17.72 22.15 15.5 22.15 13.29 22.15 11.07 22.15 8.86 22.15 8.86 24.36 11.07 24.36 13.29 24.36 15.5 24.36 17.72 24.36 17.72 26.57 19.93 26.57 19.93 24.36 22.15 24.36 22.15 22.15 19.93 22.15 17.72 22.15"/><rect class="cls-5" x="4.43" y="4.43" width="2.21" height="2.21"/><rect class="cls-5" x="19.93" y="4.43" width="2.21" height="2.21"/><rect class="cls-5" x="2.21" y="6.64" width="2.21" height="2.21"/><polygon class="cls-5" points="2.21 15.5 2.21 17.72 2.21 19.93 4.43 19.93 4.43 17.72 4.43 15.5 4.43 13.29 2.21 13.29 2.21 15.5"/><polygon class="cls-5" points="15.5 24.36 13.29 24.36 13.29 26.57 11.07 26.57 8.86 26.57 8.86 28.79 8.86 31 11.07 31 13.29 31 15.5 31 15.5 28.79 15.5 26.57 17.72 26.57 17.72 24.36 15.5 24.36"/><polygon class="cls-5" points="17.72 26.57 17.72 28.79 17.72 31 19.93 31 22.15 31 22.15 28.79 22.15 26.57 19.93 26.57 17.72 26.57"/><polygon class="cls-6" points="26.57 2.21 28.79 2.21 28.79 0 26.57 0 24.36 0 22.15 0 22.15 2.21 24.36 2.21 26.57 2.21"/><polygon class="cls-6" points="8.86 4.43 11.07 4.43 13.29 4.43 15.5 4.43 17.72 4.43 19.93 4.43 22.15 4.43 22.15 2.21 19.93 2.21 17.72 2.21 15.5 2.21 13.29 2.21 11.07 2.21 8.86 2.21 6.64 2.21 4.43 2.21 4.43 4.43 6.64 4.43 8.86 4.43"/><rect class="cls-6" x="28.79" y="2.21" width="2.21" height="2.21"/><rect class="cls-6" x="2.21" y="4.43" width="2.21" height="2.21"/><rect class="cls-6" x="22.15" y="4.43" width="2.21" height="2.21"/><rect class="cls-6" x="31" y="4.43" width="2.21" height="2.21"/><rect class="cls-6" x="33.22" y="6.64" width="2.21" height="2.21"/><rect class="cls-6" x="31" y="8.86" width="2.21" height="2.21"/><rect class="cls-6" x="33.22" y="11.07" width="2.21" height="2.21"/><path class="cls-6" d="M28.79,13.29H26.57V6.64H24.36V8.86H15.5v4.43h8.86v6.64H2.21V13.29H6.64V8.86H2.21V6.64H0V22.15H6.64V33.22H24.36V22.15h2.21V15.5h6.65V13.29H28.79ZM22.15,24.36H19.93v2.21h2.22V31H17.72V26.57H15.5V31H8.86V26.57h4.43V24.36H8.86V22.15H22.15Z"/><polygon class="cls-6" points="13.29 13.29 13.29 11.07 13.29 8.86 11.07 8.86 8.86 8.86 8.86 11.07 8.86 13.29 11.07 13.29 13.29 13.29"/></g></g></svg>