<svg xmlns="http://www.w3.org/2000/svg" viewBox="0 0 53.15 93.01"><defs><style>.cls-1{fill:#fff;}.cls-2{fill:#1d71b8;}.cls-3{fill:#a58a75;}.cls-4{fill:#dadada;}.cls-5{fill:#db3341;}.cls-6{fill:#fddfc1;}.cls-7{fill:#841c11;}.cls-8{fill:#c61618;}.cls-9{fill:#c1bfbe;}.cls-10{fill:#1d1d1b;}</style></defs><title>lancier_1</title><g id="Calque_2" data-name="Calque 2"><g id="Calque_1-2" data-name="Calque 1"><rect class="cls-1" x="35.43" y="35.43" width="2.21" height="2.21"/><rect class="cls-1" x="24.36" y="46.51" width="2.21" height="2.21"/><rect class="cls-1" x="31" y="46.51" width="2.21" height="2.21"/><rect class="cls-2" x="24.36" y="48.72" width="2.21" height="2.21" transform="translate(-24.36 75.3) rotate(-90)"/><rect class="cls-2" x="31" y="48.72" width="2.21" height="2.21" transform="translate(-17.72 81.94) rotate(-90)"/><polygon class="cls-3" points="6.64 79.72 6.64 81.94 6.64 84.15 6.64 86.37 6.64 88.58 6.64 90.8 6.64 93.01 8.86 93.01 8.86 90.8 8.86 88.58 8.86 86.37 8.86 84.15 8.86 81.94 8.86 79.72 8.86 77.51 6.64 77.51 6.64 79.72"/><polygon class="cls-3" points="6.64 11.07 6.64 13.29 6.64 15.5 6.64 17.72 6.64 19.93 6.64 22.15 6.64 24.36 6.64 26.57 6.64 28.79 6.64 31 6.64 33.22 6.64 35.43 6.64 37.65 6.64 39.86 6.64 42.08 6.64 44.29 6.64 46.51 6.64 48.72 6.64 50.94 6.64 53.15 6.64 55.36 6.64 57.58 6.64 59.79 6.64 62.01 6.64 64.22 6.64 66.44 6.64 68.65 8.86 68.65 8.86 66.44 8.86 64.22 8.86 62.01 8.86 59.79 8.86 57.58 8.86 55.36 8.86 53.15 8.86 50.94 8.86 48.72 8.86 46.51 8.86 44.29 8.86 42.08 8.86 39.86 8.86 37.65 8.86 35.43 8.86 33.22 8.86 31 8.86 28.79 8.86 26.57 8.86 24.36 8.86 22.15 8.86 19.93 8.86 17.72 8.86 15.5 8.86 13.29 8.86 11.07 8.86 8.86 6.64 8.86 6.64 11.07"/><rect class="cls-3" x="6.64" y="4.43" width="2.21" height="2.21"/><polygon class="cls-4" points="13.29 6.64 13.29 4.43 11.07 4.43 11.07 2.21 8.86 2.21 8.86 4.43 6.64 4.43 6.64 6.64 6.64 8.86 8.86 8.86 11.07 8.86 13.29 8.86 15.5 8.86 15.5 6.64 13.29 6.64"/><polygon class="cls-5" points="46.51 59.79 46.51 57.58 44.29 57.58 42.08 57.58 42.08 59.79 44.29 59.79 46.51 59.79"/><polygon class="cls-5" points="15.5 64.22 15.5 66.44 13.29 66.44 13.29 68.65 13.29 70.87 11.07 70.87 11.07 73.08 13.29 73.08 15.5 73.08 15.5 70.87 17.72 70.87 17.72 68.65 19.93 68.65 19.93 66.44 19.93 64.22 17.72 64.22 15.5 64.22"/><polygon class="cls-5" points="48.72 68.65 48.72 66.44 48.72 64.22 46.51 64.22 44.29 64.22 44.29 66.44 44.29 68.65 46.51 68.65 46.51 70.87 48.72 70.87 48.72 73.08 50.94 73.08 50.94 70.87 50.94 68.65 48.72 68.65"/><polygon class="cls-6" points="8.86 70.87 6.64 70.87 6.64 73.08 6.64 75.3 8.86 75.3 11.07 75.3 11.07 73.08 8.86 73.08 8.86 70.87"/><polygon class="cls-6" points="48.72 75.3 46.51 75.3 46.51 77.51 46.51 79.72 48.72 79.72 50.94 79.72 50.94 77.51 50.94 75.3 48.72 75.3"/><rect class="cls-7" x="22.15" y="35.43" width="2.21" height="2.21"/><polygon class="cls-7" points="19.93 39.86 19.93 42.08 19.93 44.29 19.93 46.51 22.15 46.51 22.15 44.29 22.15 42.08 22.15 39.86 22.15 37.65 19.93 37.65 19.93 39.86"/><polygon class="cls-7" points="19.93 53.15 19.93 55.36 22.15 55.36 22.15 53.15 22.15 50.94 19.93 50.94 19.93 53.15"/><polygon class="cls-7" points="15.5 59.79 15.5 62.01 17.72 62.01 17.72 59.79 17.72 57.58 15.5 57.58 15.5 59.79"/><rect class="cls-7" x="24.36" y="57.58" width="2.21" height="2.21"/><rect class="cls-7" x="28.79" y="57.58" width="2.21" height="2.21"/><rect class="cls-7" x="33.22" y="57.58" width="2.21" height="2.21"/><polygon class="cls-7" points="26.57 62.01 26.57 64.22 28.79 64.22 28.79 62.01 28.79 59.79 26.57 59.79 26.57 62.01"/><rect class="cls-7" x="28.79" y="64.22" width="2.21" height="2.21"/><polygon class="cls-7" points="26.57 68.65 24.36 68.65 24.36 70.87 24.36 73.08 24.36 75.3 26.57 75.3 26.57 73.08 28.79 73.08 28.79 70.87 28.79 68.65 28.79 66.44 26.57 66.44 26.57 68.65"/><polygon class="cls-7" points="24.36 79.72 24.36 81.94 24.36 84.15 24.36 86.37 26.57 86.37 26.57 84.15 26.57 81.94 26.57 79.72 26.57 77.51 24.36 77.51 24.36 79.72"/><polygon class="cls-8" points="26.57 46.51 28.79 46.51 31 46.51 33.22 46.51 35.43 46.51 37.65 46.51 39.86 46.51 42.08 46.51 42.08 44.29 42.08 42.08 42.08 39.86 42.08 37.65 39.86 37.65 39.86 35.43 37.65 35.43 37.65 37.65 35.43 37.65 35.43 35.43 33.22 35.43 31 35.43 28.79 35.43 26.57 35.43 24.36 35.43 24.36 37.65 22.15 37.65 22.15 39.86 22.15 42.08 22.15 44.29 22.15 46.51 24.36 46.51 26.57 46.51"/><polygon class="cls-8" points="26.57 55.36 28.79 55.36 31 55.36 33.22 55.36 35.43 55.36 37.65 55.36 39.86 55.36 42.08 55.36 42.08 53.15 42.08 50.94 39.86 50.94 37.65 50.94 35.43 50.94 33.22 50.94 31 50.94 28.79 50.94 26.57 50.94 24.36 50.94 22.15 50.94 22.15 53.15 22.15 55.36 24.36 55.36 26.57 55.36"/><polygon class="cls-8" points="46.51 57.58 46.51 59.79 44.29 59.79 42.08 59.79 42.08 57.58 39.86 57.58 37.65 57.58 35.43 57.58 35.43 59.79 33.22 59.79 31 59.79 31 62.01 31 64.22 33.22 64.22 33.22 66.44 35.43 66.44 37.65 66.44 39.86 66.44 39.86 64.22 39.86 62.01 37.65 62.01 37.65 59.79 39.86 59.79 39.86 62.01 42.08 62.01 44.29 62.01 46.51 62.01 48.72 62.01 48.72 59.79 48.72 57.58 46.51 57.58"/><polygon class="cls-8" points="26.57 64.22 26.57 62.01 26.57 59.79 24.36 59.79 24.36 57.58 22.15 57.58 19.93 57.58 17.72 57.58 17.72 59.79 17.72 62.01 19.93 62.01 19.93 59.79 22.15 59.79 22.15 62.01 22.15 64.22 22.15 66.44 24.36 66.44 26.57 66.44 26.57 64.22"/><polygon class="cls-8" points="31 68.65 31 70.87 28.79 70.87 28.79 73.08 31 73.08 31 75.3 33.22 75.3 35.43 75.3 37.65 75.3 37.65 73.08 37.65 70.87 37.65 68.65 35.43 68.65 33.22 68.65 33.22 66.44 31 66.44 31 68.65"/><rect class="cls-8" x="26.57" y="73.08" width="2.21" height="2.21"/><polygon class="cls-8" points="37.65 79.72 37.65 77.51 35.43 77.51 33.22 77.51 31 77.51 28.79 77.51 26.57 77.51 26.57 79.72 26.57 81.94 26.57 84.15 26.57 86.37 28.79 86.37 28.79 84.15 28.79 81.94 31 81.94 33.22 81.94 35.43 81.94 35.43 84.15 37.65 84.15 37.65 86.37 39.86 86.37 39.86 84.15 39.86 81.94 37.65 81.94 37.65 79.72"/><polygon class="cls-9" points="6.64 2.21 4.43 2.21 4.43 4.43 2.21 4.43 2.21 6.64 0 6.64 0 8.86 2.21 8.86 4.43 8.86 6.64 8.86 6.64 6.64 6.64 4.43 8.86 4.43 8.86 2.21 8.86 0 6.64 0 6.64 2.21"/><polygon class="cls-9" points="22.15 88.58 22.15 90.8 24.36 90.8 26.57 90.8 26.57 88.58 24.36 88.58 22.15 88.58"/><polygon class="cls-9" points="37.65 88.58 35.43 88.58 35.43 90.8 37.65 90.8 39.86 90.8 39.86 88.58 37.65 88.58"/><polygon class="cls-10" points="26.57 35.43 28.79 35.43 31 35.43 33.22 35.43 35.43 35.43 37.65 35.43 39.86 35.43 39.86 33.22 37.65 33.22 35.43 33.22 33.22 33.22 31 33.22 28.79 33.22 26.57 33.22 24.36 33.22 22.15 33.22 22.15 35.43 24.36 35.43 26.57 35.43"/><rect class="cls-10" x="19.93" y="35.43" width="2.21" height="2.21"/><rect class="cls-10" x="39.86" y="35.43" width="2.21" height="2.21"/><polygon class="cls-10" points="31 50.94 31 48.72 31 46.51 28.79 46.51 26.57 46.51 26.57 48.72 26.57 50.94 28.79 50.94 31 50.94"/><polygon class="cls-10" points="19.93 57.58 22.15 57.58 24.36 57.58 26.57 57.58 26.57 59.79 28.79 59.79 28.79 57.58 31 57.58 31 59.79 33.22 59.79 33.22 57.58 35.43 57.58 37.65 57.58 39.86 57.58 42.08 57.58 44.29 57.58 46.51 57.58 48.72 57.58 48.72 55.36 46.51 55.36 44.29 55.36 44.29 53.15 44.29 50.94 44.29 48.72 44.29 46.51 44.29 44.29 44.29 42.08 44.29 39.86 44.29 37.65 42.08 37.65 42.08 39.86 42.08 42.08 42.08 44.29 42.08 46.51 39.86 46.51 37.65 46.51 35.43 46.51 33.22 46.51 33.22 48.72 33.22 50.94 35.43 50.94 37.65 50.94 39.86 50.94 42.08 50.94 42.08 53.15 42.08 55.36 39.86 55.36 37.65 55.36 35.43 55.36 33.22 55.36 31 55.36 28.79 55.36 26.57 55.36 24.36 55.36 22.15 55.36 19.93 55.36 19.93 53.15 19.93 50.94 22.15 50.94 24.36 50.94 24.36 48.72 24.36 46.51 22.15 46.51 19.93 46.51 19.93 44.29 19.93 42.08 19.93 39.86 19.93 37.65 17.72 37.65 17.72 39.86 17.72 42.08 17.72 44.29 17.72 46.51 17.72 48.72 17.72 50.94 17.72 53.15 17.72 55.36 15.5 55.36 15.5 57.58 17.72 57.58 19.93 57.58"/><polygon class="cls-10" points="15.5 57.58 13.29 57.58 13.29 59.79 13.29 62.01 15.5 62.01 15.5 59.79 15.5 57.58"/><rect class="cls-10" x="37.65" y="59.79" width="2.21" height="2.21"/><polygon class="cls-10" points="48.72 62.01 50.94 62.01 50.94 59.79 50.94 57.58 48.72 57.58 48.72 59.79 48.72 62.01"/><polygon class="cls-10" points="31 62.01 31 59.79 28.79 59.79 28.79 62.01 28.79 64.22 31 64.22 31 62.01"/><rect class="cls-10" x="13.29" y="64.22" width="2.21" height="2.21"/><rect class="cls-10" x="26.57" y="64.22" width="2.21" height="2.21"/><rect class="cls-10" x="31" y="64.22" width="2.21" height="2.21"/><polygon class="cls-10" points="44.29 64.22 46.51 64.22 48.72 64.22 48.72 62.01 46.51 62.01 44.29 62.01 42.08 62.01 39.86 62.01 39.86 64.22 39.86 66.44 37.65 66.44 35.43 66.44 33.22 66.44 33.22 68.65 35.43 68.65 37.65 68.65 37.65 70.87 37.65 73.08 37.65 75.3 35.43 75.3 33.22 75.3 31 75.3 31 73.08 28.79 73.08 28.79 75.3 26.57 75.3 24.36 75.3 24.36 77.51 26.57 77.51 28.79 77.51 31 77.51 33.22 77.51 35.43 77.51 37.65 77.51 37.65 79.72 37.65 81.94 39.86 81.94 39.86 79.72 39.86 77.51 39.86 75.3 39.86 73.08 39.86 70.87 39.86 68.65 42.08 68.65 44.29 68.65 44.29 66.44 44.29 64.22"/><polygon class="cls-10" points="28.79 68.65 28.79 70.87 31 70.87 31 68.65 31 66.44 28.79 66.44 28.79 68.65"/><polygon class="cls-10" points="48.72 68.65 50.94 68.65 50.94 66.44 50.94 64.22 48.72 64.22 48.72 66.44 48.72 68.65"/><rect class="cls-10" x="44.29" y="68.65" width="2.21" height="2.21"/><polygon class="cls-10" points="50.94 68.65 50.94 70.87 50.94 73.08 48.72 73.08 48.72 70.87 46.51 70.87 46.51 73.08 46.51 75.3 48.72 75.3 50.94 75.3 50.94 77.51 50.94 79.72 48.72 79.72 46.51 79.72 46.51 81.94 48.72 81.94 50.94 81.94 53.15 81.94 53.15 79.72 53.15 77.51 53.15 75.3 53.15 73.08 53.15 70.87 53.15 68.65 50.94 68.65"/><rect class="cls-10" x="15.5" y="70.87" width="2.21" height="2.21"/><polygon class="cls-10" points="24.36 70.87 24.36 68.65 26.57 68.65 26.57 66.44 24.36 66.44 22.15 66.44 22.15 64.22 22.15 62.01 22.15 59.79 19.93 59.79 19.93 62.01 17.72 62.01 15.5 62.01 15.5 64.22 17.72 64.22 19.93 64.22 19.93 66.44 19.93 68.65 17.72 68.65 17.72 70.87 19.93 70.87 22.15 70.87 22.15 73.08 22.15 75.3 24.36 75.3 24.36 73.08 24.36 70.87"/><polygon class="cls-10" points="11.07 73.08 11.07 75.3 8.86 75.3 6.64 75.3 6.64 73.08 6.64 70.87 8.86 70.87 8.86 73.08 11.07 73.08 11.07 70.87 13.29 70.87 13.29 68.65 13.29 66.44 11.07 66.44 11.07 68.65 8.86 68.65 6.64 68.65 4.43 68.65 4.43 70.87 4.43 73.08 4.43 75.3 4.43 77.51 6.64 77.51 8.86 77.51 11.07 77.51 13.29 77.51 13.29 75.3 15.5 75.3 15.5 73.08 13.29 73.08 11.07 73.08"/><polygon class="cls-10" points="46.51 75.3 44.29 75.3 44.29 77.51 44.29 79.72 46.51 79.72 46.51 77.51 46.51 75.3"/><polygon class="cls-10" points="33.22 81.94 31 81.94 28.79 81.94 28.79 84.15 28.79 86.37 31 86.37 31 84.15 33.22 84.15 35.43 84.15 35.43 81.94 33.22 81.94"/><polygon class="cls-10" points="39.86 86.37 37.65 86.37 37.65 84.15 35.43 84.15 35.43 86.37 35.43 88.58 37.65 88.58 39.86 88.58 39.86 90.8 37.65 90.8 35.43 90.8 35.43 88.58 33.22 88.58 33.22 90.8 33.22 93.01 35.43 93.01 37.65 93.01 39.86 93.01 42.08 93.01 42.08 90.8 42.08 88.58 42.08 86.37 42.08 84.15 42.08 81.94 39.86 81.94 39.86 84.15 39.86 86.37"/><polygon class="cls-10" points="24.36 86.37 24.36 84.15 24.36 81.94 24.36 79.72 24.36 77.51 22.15 77.51 22.15 79.72 22.15 81.94 22.15 84.15 22.15 86.37 22.15 88.58 24.36 88.58 26.57 88.58 26.57 90.8 24.36 90.8 22.15 90.8 22.15 88.58 19.93 88.58 19.93 90.8 19.93 93.01 22.15 93.01 24.36 93.01 26.57 93.01 28.79 93.01 28.79 90.8 28.79 88.58 28.79 86.37 26.57 86.37 24.36 86.37"/></g></g></svg>